SplineFontDB: 3.2
FontName: BitstreamVeraSans-Bold
FullName: Bitstream Vera Sans Bold
FamilyName: Bitstream Vera Sans
Weight: Bold
Copyright: Copyright (c) 2003 by Bitstream, Inc. All Rights Reserved.
Version: Release 1.10
ItalicAngle: 0
UnderlinePosition: -356
UnderlineWidth: 258
Ascent: 1556
Descent: 492
InvalidEm: 0
sfntRevision: 0x00020000
LayerCount: 2
Layer: 0 1 "Back" 1
Layer: 1 1 "Fore" 0
XUID: [1021 231 601884850 15942]
StyleMap: 0x0020
FSType: 4
OS2Version: 1
OS2_WeightWidthSlopeOnly: 0
OS2_UseTypoMetrics: 0
CreationTime: 1049893776
ModificationTime: 1625231158
PfmFamily: 17
TTFWeight: 700
TTFWidth: 5
LineGap: 0
VLineGap: 0
Panose: 2 11 8 3 3 6 4 2 2 4
OS2TypoAscent: 1556
OS2TypoAOffset: 0
OS2TypoDescent: -492
OS2TypoDOffset: 0
OS2TypoLinegap: 410
OS2WinAscent: 1901
OS2WinAOffset: 0
OS2WinDescent: 483
OS2WinDOffset: 0
HheadAscent: 1901
HheadAOffset: 0
HheadDescent: -483
HheadDOffset: 0
OS2SubXSize: 1351
OS2SubYSize: 1228
OS2SubXOff: 0
OS2SubYOff: -446
OS2SupXSize: 1351
OS2SupYSize: 1228
OS2SupXOff: 0
OS2SupYOff: 595
OS2StrikeYSize: 258
OS2StrikeYPos: 614
OS2FamilyClass: 2050
OS2Vendor: 'Bits'
OS2CodePages: 00000001.00000000
OS2UnicodeRanges: 800000af.1000204a.00000000.00000000
Lookup: 258 0 0 "'kern' Horizontal Kerning in Latin lookup 0" { "'kern' Horizontal Kerning in Latin lookup 0 subtable"  } ['kern' ('DFLT' <'dflt' > 'latn' <'dflt' > ) ]
DEI: 91125
TtTable: prep
NPUSHW
 132
 640
 294
 254
 3
 293
 17
 3
 292
 289
 58
 5
 292
 250
 3
 291
 22
 3
 290
 289
 58
 5
 290
 254
 3
 289
 58
 3
 288
 250
 3
 287
 187
 3
 286
 100
 3
 285
 254
 3
 284
 25
 3
 283
 30
 3
 282
 254
 3
 281
 254
 3
 280
 254
 3
 279
 254
 3
 278
 254
 3
 277
 276
 14
 5
 277
 254
 3
 276
 14
 3
 275
 254
 3
 274
 254
 3
 271
 270
 125
 5
 271
 254
 3
 270
 125
 3
 269
 268
 140
 5
 269
 254
 3
 269
 192
 4
 268
 267
 89
 5
 268
 140
 3
 268
 128
 4
 267
 266
 38
 5
 267
 89
 3
 267
 64
 4
 266
 38
 3
 265
 254
 3
 264
 254
 3
 263
 12
 3
 263
 128
 4
 262
PUSHB_3
 151
 46
 5

StartChar: .notdef
Encoding: 65536 -1 0
Width: 1229
Flags: W
LayerCount: 2
Fore
SplineSet
102 -362 m 1,0,-1
 102 1444 l 1,1,-1
 1126 1444 l 1,2,-1
 1126 -362 l 1,3,-1
 102 -362 l 1,0,-1
217 -248 m 1,4,-1
 1012 -248 l 1,5,-1
 1012 1329 l 1,6,-1
 217 1329 l 1,7,-1
 217 -248 l 1,4,-1
EndSplineSet
EndChar

StartChar: exclam
Encoding: 33 33 4
Width: 934
Flags: W
LayerCount: 2
Fore
SplineSet
287 1493 m 1,0,-1
 647 1493 l 1,1,-1
 647 920 l 1,2,-1
 596 502 l 1,3,-1
 338 502 l 1,4,-1
 287 920 l 1,5,-1
 287 1493 l 1,0,-1
287 356 m 1,6,-1
 647 356 l 1,7,-1
 647 0 l 1,8,-1
 287 0 l 1,9,-1
 287 356 l 1,6,-1
EndSplineSet
EndChar

StartChar: quotedbl
Encoding: 34 34 5
Width: 1067
Flags: W
LayerCount: 2
Fore
SplineSet
872 1493 m 1,0,-1
 872 938 l 1,1,-1
 635 938 l 1,2,-1
 635 1493 l 1,3,-1
 872 1493 l 1,0,-1
432 1493 m 1,4,-1
 432 938 l 1,5,-1
 195 938 l 1,6,-1
 195 1493 l 1,7,-1
 432 1493 l 1,4,-1
EndSplineSet
EndChar

StartChar: numbersign
Encoding: 35 35 6
Width: 1716
Flags: W
LayerCount: 2
Fore
SplineSet
911 1470 m 1,0,-1
 815 1085 l 1,1,-1
 1079 1085 l 1,2,-1
 1176 1470 l 1,3,-1
 1397 1470 l 1,4,-1
 1300 1085 l 1,5,-1
 1577 1085 l 1,6,-1
 1577 872 l 1,7,-1
 1247 872 l 1,8,-1
 1178 598 l 1,9,-1
 1462 598 l 1,10,-1
 1462 383 l 1,11,-1
 1126 383 l 1,12,-1
 1030 0 l 1,13,-1
 809 0 l 1,14,-1
 905 383 l 1,15,-1
 641 383 l 1,16,-1
 545 0 l 1,17,-1
 322 0 l 1,18,-1
 418 383 l 1,19,-1
 139 383 l 1,20,-1
 139 598 l 1,21,-1
 467 598 l 1,22,-1
 537 872 l 1,23,-1
 254 872 l 1,24,-1
 254 1085 l 1,25,-1
 592 1085 l 1,26,-1
 688 1470 l 1,27,-1
 911 1470 l 1,0,-1
1024 872 m 1,28,-1
 760 872 l 1,29,-1
 690 598 l 1,30,-1
 954 598 l 1,31,-1
 1024 872 l 1,28,-1
EndSplineSet
EndChar

StartChar: dollar
Encoding: 36 36 7
Width: 1425
Flags: W
LayerCount: 2
Fore
SplineSet
795 -301 m 1,0,-1
 633 -301 l 1,1,-1
 632 0 l 1,2,3
 507 5 507 5 390 28 c 128,-1,4
 273 51 273 51 162 92 c 1,5,-1
 162 354 l 1,6,7
 277 295 277 295 394.5 263.5 c 128,-1,8
 512 232 512 232 633 228 c 1,9,-1
 633 539 l 1,10,-1
 600 545 l 2,11,12
 361 587 361 587 260.5 677 c 128,-1,13
 160 767 160 767 160 936 c 0,14,15
 160 1115 160 1115 282.5 1215.5 c 128,-1,16
 405 1316 405 1316 632 1325 c 1,17,-1
 633 1556 l 1,18,-1
 795 1556 l 1,19,-1
 795 1329 l 1,20,21
 895 1321 895 1321 995 1304 c 128,-1,22
 1095 1287 1095 1287 1196 1260 c 1,23,-1
 1196 1006 l 1,24,25
 1096 1048 1096 1048 996 1071.5 c 128,-1,26
 896 1095 896 1095 795 1100 c 1,27,-1
 795 813 l 1,28,-1
 827 807 l 1,29,30
 1081 767 1081 767 1183.5 673.5 c 128,-1,31
 1286 580 1286 580 1286 397 c 0,32,33
 1286 213 1286 213 1164 114.5 c 128,-1,34
 1042 16 1042 16 795 2 c 1,35,-1
 795 -301 l 1,0,-1
633 836 m 1,36,-1
 633 1097 l 1,37,38
 562 1093 562 1093 519.5 1058.5 c 128,-1,39
 477 1024 477 1024 477 971 c 0,40,41
 477 912 477 912 516 878.5 c 128,-1,42
 555 845 555 845 633 836 c 1,36,-1
795 510 m 1,43,-1
 795 232 l 1,44,45
 882 233 882 233 925.5 266 c 128,-1,46
 969 299 969 299 969 365 c 0,47,48
 969 433 969 433 929 466.5 c 128,-1,49
 889 500 889 500 795 510 c 1,43,-1
EndSplineSet
EndChar

StartChar: percent
Encoding: 37 37 8
Width: 2052
Flags: W
LayerCount: 2
Fore
SplineSet
1587 616 m 256,0,1
 1516 616 1516 616 1477 554.5 c 128,-1,2
 1438 493 1438 493 1438 379 c 0,3,4
 1438 264 1438 264 1476.5 202.5 c 128,-1,5
 1515 141 1515 141 1587 141 c 256,6,7
 1659 141 1659 141 1697 202.5 c 128,-1,8
 1735 264 1735 264 1735 379 c 0,9,10
 1735 493 1735 493 1696.5 554.5 c 128,-1,11
 1658 616 1658 616 1587 616 c 256,0,1
1587 784 m 256,12,13
 1773 784 1773 784 1880 676 c 128,-1,14
 1987 568 1987 568 1987 379 c 256,15,16
 1987 190 1987 190 1880 80.5 c 128,-1,17
 1773 -29 1773 -29 1587 -29 c 256,18,19
 1401 -29 1401 -29 1293.5 80.5 c 128,-1,20
 1186 190 1186 190 1186 379 c 0,21,22
 1186 567 1186 567 1293.5 675.5 c 128,-1,23
 1401 784 1401 784 1587 784 c 256,12,13
670 -29 m 1,24,-1
 449 -29 l 1,25,-1
 1382 1520 l 1,26,-1
 1604 1520 l 1,27,-1
 670 -29 l 1,24,-1
465 1520 m 256,28,29
 651 1520 651 1520 757.5 1411.5 c 128,-1,30
 864 1303 864 1303 864 1114 c 256,31,32
 864 925 864 925 757.5 816 c 128,-1,33
 651 707 651 707 465 707 c 256,34,35
 279 707 279 707 172.5 816 c 128,-1,36
 66 925 66 925 66 1114 c 256,37,38
 66 1303 66 1303 172.5 1411.5 c 128,-1,39
 279 1520 279 1520 465 1520 c 256,28,29
465 1352 m 0,40,41
 393 1352 393 1352 354 1290 c 128,-1,42
 315 1228 315 1228 315 1114 c 0,43,44
 315 999 315 999 354 936.5 c 128,-1,45
 393 874 393 874 465 874 c 256,46,47
 537 874 537 874 575.5 936.5 c 128,-1,48
 614 999 614 999 614 1114 c 0,49,50
 614 1228 614 1228 575 1290 c 128,-1,51
 536 1352 536 1352 465 1352 c 0,40,41
EndSplineSet
EndChar

StartChar: ampersand
Encoding: 38 38 9
Width: 1786
Flags: W
LayerCount: 2
Fore
SplineSet
799 991 m 2,0,-1
 1208 541 l 1,1,2
 1261 611 1261 611 1288.5 698 c 128,-1,3
 1316 785 1316 785 1321 895 c 1,4,-1
 1632 895 l 1,5,6
 1617 713 1617 713 1561.5 571 c 128,-1,7
 1506 429 1506 429 1407 322 c 1,8,-1
 1700 0 l 1,9,-1
 1276 0 l 1,10,-1
 1178 109 l 1,11,12
 1073 39 1073 39 957 5 c 128,-1,13
 841 -29 841 -29 711 -29 c 0,14,15
 448 -29 448 -29 285.5 109.5 c 128,-1,16
 123 248 123 248 123 467 c 0,17,18
 123 613 123 613 194.5 725.5 c 128,-1,19
 266 838 266 838 428 944 c 1,20,21
 386 997 386 997 366 1050 c 128,-1,22
 346 1103 346 1103 346 1161 c 0,23,24
 346 1324 346 1324 473 1422 c 128,-1,25
 600 1520 600 1520 811 1520 c 0,26,27
 902 1520 902 1520 1000.5 1505.5 c 128,-1,28
 1099 1491 1099 1491 1206 1462 c 1,29,-1
 1206 1184 l 1,30,31
 1112 1232 1112 1232 1028 1255 c 128,-1,32
 944 1278 944 1278 864 1278 c 0,33,34
 787 1278 787 1278 744.5 1248.5 c 128,-1,35
 702 1219 702 1219 702 1165 c 0,36,37
 702 1131 702 1131 726.5 1087.5 c 128,-1,38
 751 1044 751 1044 799 991 c 2,0,-1
600 743 m 1,39,40
 535 696 535 696 502 636.5 c 128,-1,41
 469 577 469 577 469 506 c 0,42,43
 469 391 469 391 554 310 c 128,-1,44
 639 229 639 229 758 229 c 0,45,46
 825 229 825 229 883 249.5 c 128,-1,47
 941 270 941 270 991 311 c 1,48,-1
 600 743 l 1,39,40
EndSplineSet
EndChar

StartChar: quotesingle
Encoding: 39 39 10
Width: 627
Flags: W
LayerCount: 2
Fore
SplineSet
432 1493 m 1,0,-1
 432 938 l 1,1,-1
 195 938 l 1,2,-1
 195 1493 l 1,3,-1
 432 1493 l 1,0,-1
EndSplineSet
EndChar

StartChar: parenleft
Encoding: 40 40 11
Width: 936
Flags: W
LayerCount: 2
Fore
SplineSet
772 -270 m 1,0,-1
 475 -270 l 1,1,2
 322 -23 322 -23 249 199.5 c 128,-1,3
 176 422 176 422 176 641 c 256,4,5
 176 860 176 860 249.5 1084.5 c 128,-1,6
 323 1309 323 1309 475 1554 c 1,7,-1
 772 1554 l 1,8,9
 644 1317 644 1317 580 1090.5 c 128,-1,10
 516 864 516 864 516 643 c 256,11,12
 516 422 516 422 579.5 195 c 128,-1,13
 643 -32 643 -32 772 -270 c 1,0,-1
EndSplineSet
EndChar

StartChar: parenright
Encoding: 41 41 12
Width: 936
Flags: W
LayerCount: 2
Fore
SplineSet
164 -270 m 1,0,1
 292 -32 292 -32 356 195 c 128,-1,2
 420 422 420 422 420 643 c 256,3,4
 420 864 420 864 356 1090.5 c 128,-1,5
 292 1317 292 1317 164 1554 c 1,6,-1
 461 1554 l 1,7,8
 613 1309 613 1309 686.5 1084.5 c 128,-1,9
 760 860 760 860 760 641 c 256,10,11
 760 422 760 422 687 199.5 c 128,-1,12
 614 -23 614 -23 461 -270 c 1,13,-1
 164 -270 l 1,0,1
EndSplineSet
EndChar

StartChar: asterisk
Encoding: 42 42 13
Width: 1071
Flags: W
LayerCount: 2
Fore
SplineSet
1030 1217 m 1,0,-1
 700 1044 l 1,1,-1
 1030 870 l 1,2,-1
 954 729 l 1,3,-1
 621 913 l 1,4,-1
 621 569 l 1,5,-1
 451 569 l 1,6,-1
 451 913 l 1,7,-1
 117 729 l 1,8,-1
 41 870 l 1,9,-1
 375 1044 l 1,10,-1
 41 1217 l 1,11,-1
 117 1358 l 1,12,-1
 451 1176 l 1,13,-1
 451 1520 l 1,14,-1
 621 1520 l 1,15,-1
 621 1176 l 1,16,-1
 954 1358 l 1,17,-1
 1030 1217 l 1,0,-1
EndSplineSet
EndChar

StartChar: plus
Encoding: 43 43 14
Width: 1716
Flags: W
LayerCount: 2
Fore
SplineSet
977 1284 m 1,0,-1
 977 760 l 1,1,-1
 1499 760 l 1,2,-1
 1499 524 l 1,3,-1
 977 524 l 1,4,-1
 977 0 l 1,5,-1
 739 0 l 1,6,-1
 739 524 l 1,7,-1
 217 524 l 1,8,-1
 217 760 l 1,9,-1
 739 760 l 1,10,-1
 739 1284 l 1,11,-1
 977 1284 l 1,0,-1
EndSplineSet
EndChar

StartChar: comma
Encoding: 44 44 15
Width: 778
Flags: W
LayerCount: 2
Fore
SplineSet
209 387 m 1,0,-1
 569 387 l 1,1,-1
 569 82 l 1,2,-1
 322 -291 l 1,3,-1
 109 -291 l 1,4,-1
 209 82 l 1,5,-1
 209 387 l 1,0,-1
EndSplineSet
EndChar

StartChar: hyphen
Encoding: 45 45 16
Width: 850
Flags: W
LayerCount: 2
Fore
SplineSet
111 735 m 1,0,-1
 739 735 l 1,1,-1
 739 444 l 1,2,-1
 111 444 l 1,3,-1
 111 735 l 1,0,-1
EndSplineSet
EndChar

StartChar: period
Encoding: 46 46 17
Width: 778
Flags: W
LayerCount: 2
Fore
SplineSet
209 387 m 1,0,-1
 569 387 l 1,1,-1
 569 0 l 1,2,-1
 209 0 l 1,3,-1
 209 387 l 1,0,-1
EndSplineSet
EndChar

StartChar: slash
Encoding: 47 47 18
Width: 748
Flags: W
LayerCount: 2
Fore
SplineSet
526 1493 m 1,0,-1
 748 1493 l 1,1,-1
 221 -190 l 1,2,-1
 0 -190 l 1,3,-1
 526 1493 l 1,0,-1
EndSplineSet
EndChar

StartChar: zero
Encoding: 48 48 19
Width: 1425
Flags: W
LayerCount: 2
Fore
SplineSet
942 748 m 0,0,1
 942 1028 942 1028 889.5 1142.5 c 128,-1,2
 837 1257 837 1257 713 1257 c 256,3,4
 589 1257 589 1257 536 1142.5 c 128,-1,5
 483 1028 483 1028 483 748 c 0,6,7
 483 465 483 465 536 349 c 128,-1,8
 589 233 589 233 713 233 c 0,9,10
 836 233 836 233 889 349 c 128,-1,11
 942 465 942 465 942 748 c 0,0,1
1327 745 m 0,12,13
 1327 374 1327 374 1167 172.5 c 128,-1,14
 1007 -29 1007 -29 713 -29 c 0,15,16
 418 -29 418 -29 258 172.5 c 128,-1,17
 98 374 98 374 98 745 c 0,18,19
 98 1117 98 1117 258 1318.5 c 128,-1,20
 418 1520 418 1520 713 1520 c 0,21,22
 1007 1520 1007 1520 1167 1318.5 c 128,-1,23
 1327 1117 1327 1117 1327 745 c 0,12,13
EndSplineSet
EndChar

StartChar: one
Encoding: 49 49 20
Width: 1425
Flags: W
LayerCount: 2
Fore
SplineSet
240 266 m 1,0,-1
 580 266 l 1,1,-1
 580 1231 l 1,2,-1
 231 1159 l 1,3,-1
 231 1421 l 1,4,-1
 578 1493 l 1,5,-1
 944 1493 l 1,6,-1
 944 266 l 1,7,-1
 1284 266 l 1,8,-1
 1284 0 l 1,9,-1
 240 0 l 1,10,-1
 240 266 l 1,0,-1
EndSplineSet
EndChar

StartChar: two
Encoding: 50 50 21
Width: 1425
Flags: W
LayerCount: 2
Fore
SplineSet
590 283 m 1,0,-1
 1247 283 l 1,1,-1
 1247 0 l 1,2,-1
 162 0 l 1,3,-1
 162 283 l 1,4,-1
 707 764 l 2,5,6
 780 830 780 830 815 893 c 128,-1,7
 850 956 850 956 850 1024 c 0,8,9
 850 1129 850 1129 779.5 1193 c 128,-1,10
 709 1257 709 1257 592 1257 c 0,11,12
 502 1257 502 1257 395 1218.5 c 128,-1,13
 288 1180 288 1180 166 1104 c 1,14,-1
 166 1432 l 1,15,16
 296 1475 296 1475 423 1497.5 c 128,-1,17
 550 1520 550 1520 672 1520 c 0,18,19
 940 1520 940 1520 1088.5 1402 c 128,-1,20
 1237 1284 1237 1284 1237 1073 c 0,21,22
 1237 951 1237 951 1174 845.5 c 128,-1,23
 1111 740 1111 740 909 563 c 2,24,-1
 590 283 l 1,0,-1
EndSplineSet
EndChar

StartChar: three
Encoding: 51 51 22
Width: 1425
Flags: W
LayerCount: 2
Fore
SplineSet
954 805 m 1,0,1
 1105 766 1105 766 1183.5 669.5 c 128,-1,2
 1262 573 1262 573 1262 424 c 0,3,4
 1262 202 1262 202 1092 86.5 c 128,-1,5
 922 -29 922 -29 596 -29 c 0,6,7
 481 -29 481 -29 365.5 -10.5 c 128,-1,8
 250 8 250 8 137 45 c 1,9,-1
 137 342 l 1,10,11
 245 288 245 288 351.5 260.5 c 128,-1,12
 458 233 458 233 561 233 c 0,13,14
 714 233 714 233 795.5 286 c 128,-1,15
 877 339 877 339 877 438 c 0,16,17
 877 540 877 540 793.5 592.5 c 128,-1,18
 710 645 710 645 547 645 c 2,19,-1
 393 645 l 1,20,-1
 393 893 l 1,21,-1
 555 893 l 2,22,23
 700 893 700 893 771 938.5 c 128,-1,24
 842 984 842 984 842 1077 c 0,25,26
 842 1163 842 1163 773 1210 c 128,-1,27
 704 1257 704 1257 578 1257 c 0,28,29
 485 1257 485 1257 390 1236 c 128,-1,30
 295 1215 295 1215 201 1174 c 1,31,-1
 201 1456 l 1,32,33
 315 1488 315 1488 427 1504 c 128,-1,34
 539 1520 539 1520 647 1520 c 0,35,36
 938 1520 938 1520 1082.5 1424.5 c 128,-1,37
 1227 1329 1227 1329 1227 1137 c 0,38,39
 1227 1006 1227 1006 1158 922.5 c 128,-1,40
 1089 839 1089 839 954 805 c 1,0,1
EndSplineSet
EndChar

StartChar: four
Encoding: 52 52 23
Width: 1425
Flags: W
LayerCount: 2
Fore
SplineSet
754 1176 m 1,0,-1
 332 551 l 1,1,-1
 754 551 l 1,2,-1
 754 1176 l 1,0,-1
690 1493 m 1,3,-1
 1118 1493 l 1,4,-1
 1118 551 l 1,5,-1
 1331 551 l 1,6,-1
 1331 272 l 1,7,-1
 1118 272 l 1,8,-1
 1118 0 l 1,9,-1
 754 0 l 1,10,-1
 754 272 l 1,11,-1
 92 272 l 1,12,-1
 92 602 l 1,13,-1
 690 1493 l 1,3,-1
EndSplineSet
EndChar

StartChar: five
Encoding: 53 53 24
Width: 1425
Flags: W
LayerCount: 2
Fore
SplineSet
217 1493 m 1,0,-1
 1174 1493 l 1,1,-1
 1174 1210 l 1,2,-1
 524 1210 l 1,3,-1
 524 979 l 1,4,5
 568 991 568 991 612.5 997.5 c 128,-1,6
 657 1004 657 1004 705 1004 c 0,7,8
 978 1004 978 1004 1130 867.5 c 128,-1,9
 1282 731 1282 731 1282 487 c 0,10,11
 1282 245 1282 245 1116.5 108 c 128,-1,12
 951 -29 951 -29 657 -29 c 0,13,14
 530 -29 530 -29 405.5 -4.5 c 128,-1,15
 281 20 281 20 158 70 c 1,16,-1
 158 373 l 1,17,18
 280 303 280 303 389.5 268 c 128,-1,19
 499 233 499 233 596 233 c 0,20,21
 736 233 736 233 816.5 301.5 c 128,-1,22
 897 370 897 370 897 487 c 0,23,24
 897 605 897 605 816.5 673 c 128,-1,25
 736 741 736 741 596 741 c 0,26,27
 513 741 513 741 419 719.5 c 128,-1,28
 325 698 325 698 217 653 c 1,29,-1
 217 1493 l 1,0,-1
EndSplineSet
EndChar

StartChar: six
Encoding: 54 54 25
Width: 1425
Flags: W
LayerCount: 2
Fore
SplineSet
741 737 m 0,0,1
 640 737 640 737 589.5 671.5 c 128,-1,2
 539 606 539 606 539 475 c 256,3,4
 539 344 539 344 589.5 278.5 c 128,-1,5
 640 213 640 213 741 213 c 0,6,7
 843 213 843 213 893.5 278.5 c 128,-1,8
 944 344 944 344 944 475 c 256,9,10
 944 606 944 606 893.5 671.5 c 128,-1,11
 843 737 843 737 741 737 c 0,0,1
1217 1454 m 1,12,-1
 1217 1178 l 1,13,14
 1122 1223 1122 1223 1038 1244.5 c 128,-1,15
 954 1266 954 1266 874 1266 c 0,16,17
 702 1266 702 1266 606 1170.5 c 128,-1,18
 510 1075 510 1075 494 887 c 1,19,20
 560 936 560 936 637 960.5 c 128,-1,21
 714 985 714 985 805 985 c 0,22,23
 1034 985 1034 985 1174.5 851 c 128,-1,24
 1315 717 1315 717 1315 500 c 0,25,26
 1315 260 1315 260 1158 115.5 c 128,-1,27
 1001 -29 1001 -29 737 -29 c 0,28,29
 446 -29 446 -29 286.5 167.5 c 128,-1,30
 127 364 127 364 127 725 c 0,31,32
 127 1095 127 1095 313.5 1306.5 c 128,-1,33
 500 1518 500 1518 825 1518 c 0,34,35
 928 1518 928 1518 1025 1502 c 128,-1,36
 1122 1486 1122 1486 1217 1454 c 1,12,-1
EndSplineSet
EndChar

StartChar: seven
Encoding: 55 55 26
Width: 1425
Flags: W
LayerCount: 2
Fore
SplineSet
137 1493 m 1,0,-1
 1262 1493 l 1,1,-1
 1262 1276 l 1,2,-1
 680 0 l 1,3,-1
 305 0 l 1,4,-1
 856 1210 l 1,5,-1
 137 1210 l 1,6,-1
 137 1493 l 1,0,-1
EndSplineSet
EndChar

StartChar: eight
Encoding: 56 56 27
Width: 1425
Flags: W
LayerCount: 2
Fore
SplineSet
713 668 m 0,0,1
 605 668 605 668 547 609 c 128,-1,2
 489 550 489 550 489 440 c 256,3,4
 489 330 489 330 547 271.5 c 128,-1,5
 605 213 605 213 713 213 c 0,6,7
 820 213 820 213 877 271.5 c 128,-1,8
 934 330 934 330 934 440 c 0,9,10
 934 551 934 551 877 609.5 c 128,-1,11
 820 668 820 668 713 668 c 0,0,1
432 795 m 1,12,13
 296 836 296 836 227 921 c 128,-1,14
 158 1006 158 1006 158 1133 c 0,15,16
 158 1322 158 1322 299 1421 c 128,-1,17
 440 1520 440 1520 713 1520 c 0,18,19
 984 1520 984 1520 1125 1421.5 c 128,-1,20
 1266 1323 1266 1323 1266 1133 c 0,21,22
 1266 1006 1266 1006 1196.5 921 c 128,-1,23
 1127 836 1127 836 991 795 c 1,24,25
 1143 753 1143 753 1220.5 658.5 c 128,-1,26
 1298 564 1298 564 1298 420 c 0,27,28
 1298 198 1298 198 1150.5 84.5 c 128,-1,29
 1003 -29 1003 -29 713 -29 c 0,30,31
 422 -29 422 -29 273.5 84.5 c 128,-1,32
 125 198 125 198 125 420 c 0,33,34
 125 564 125 564 202.5 658.5 c 128,-1,35
 280 753 280 753 432 795 c 1,12,13
522 1094 m 0,36,37
 522 1005 522 1005 571.5 957 c 128,-1,38
 621 909 621 909 713 909 c 0,39,40
 803 909 803 909 852 957 c 128,-1,41
 901 1005 901 1005 901 1094 c 256,42,43
 901 1183 901 1183 852 1230.5 c 128,-1,44
 803 1278 803 1278 713 1278 c 0,45,46
 621 1278 621 1278 571.5 1230 c 128,-1,47
 522 1182 522 1182 522 1094 c 0,36,37
EndSplineSet
EndChar

StartChar: nine
Encoding: 57 57 28
Width: 1425
Flags: W
LayerCount: 2
Fore
SplineSet
205 33 m 1,0,-1
 205 309 l 1,1,2
 297 266 297 266 381 244.5 c 128,-1,3
 465 223 465 223 547 223 c 0,4,5
 719 223 719 223 815 318.5 c 128,-1,6
 911 414 911 414 928 602 c 1,7,8
 860 552 860 552 783 527 c 128,-1,9
 706 502 706 502 616 502 c 0,10,11
 387 502 387 502 246.5 635.5 c 128,-1,12
 106 769 106 769 106 987 c 0,13,14
 106 1228 106 1228 262.5 1373 c 128,-1,15
 419 1518 419 1518 682 1518 c 0,16,17
 974 1518 974 1518 1134 1321 c 128,-1,18
 1294 1124 1294 1124 1294 764 c 0,19,20
 1294 394 1294 394 1107 182.5 c 128,-1,21
 920 -29 920 -29 594 -29 c 0,22,23
 489 -29 489 -29 393 -13.5 c 128,-1,24
 297 2 297 2 205 33 c 1,0,-1
680 752 m 256,25,26
 781 752 781 752 832 817.5 c 128,-1,27
 883 883 883 883 883 1014 c 0,28,29
 883 1144 883 1144 832 1210 c 128,-1,30
 781 1276 781 1276 680 1276 c 256,31,32
 579 1276 579 1276 528 1210 c 128,-1,33
 477 1144 477 1144 477 1014 c 0,34,35
 477 883 477 883 528 817.5 c 128,-1,36
 579 752 579 752 680 752 c 256,25,26
EndSplineSet
EndChar

StartChar: colon
Encoding: 58 58 29
Width: 819
Flags: W
LayerCount: 2
Fore
SplineSet
229 1120 m 1,0,-1
 590 1120 l 1,1,-1
 590 733 l 1,2,-1
 229 733 l 1,3,-1
 229 1120 l 1,0,-1
229 387 m 1,4,-1
 590 387 l 1,5,-1
 590 0 l 1,6,-1
 229 0 l 1,7,-1
 229 387 l 1,4,-1
EndSplineSet
EndChar

StartChar: semicolon
Encoding: 59 59 30
Width: 819
Flags: W
LayerCount: 2
Fore
SplineSet
229 387 m 1,0,-1
 590 387 l 1,1,-1
 590 82 l 1,2,-1
 342 -291 l 1,3,-1
 129 -291 l 1,4,-1
 229 82 l 1,5,-1
 229 387 l 1,0,-1
229 1120 m 1,6,-1
 590 1120 l 1,7,-1
 590 733 l 1,8,-1
 229 733 l 1,9,-1
 229 1120 l 1,6,-1
EndSplineSet
EndChar

StartChar: less
Encoding: 60 60 31
Width: 1716
Flags: W
LayerCount: 2
Fore
SplineSet
1499 973 m 1,0,-1
 535 641 l 1,1,-1
 1499 311 l 1,2,-1
 1499 61 l 1,3,-1
 217 524 l 1,4,-1
 217 760 l 1,5,-1
 1499 1223 l 1,6,-1
 1499 973 l 1,0,-1
EndSplineSet
EndChar

StartChar: equal
Encoding: 61 61 32
Width: 1716
Flags: W
LayerCount: 2
Fore
SplineSet
217 987 m 1,0,-1
 1499 987 l 1,1,-1
 1499 752 l 1,2,-1
 217 752 l 1,3,-1
 217 987 l 1,0,-1
217 532 m 1,4,-1
 1499 532 l 1,5,-1
 1499 295 l 1,6,-1
 217 295 l 1,7,-1
 217 532 l 1,4,-1
EndSplineSet
EndChar

StartChar: greater
Encoding: 62 62 33
Width: 1716
Flags: W
LayerCount: 2
Fore
SplineSet
217 973 m 1,0,-1
 217 1223 l 1,1,-1
 1499 760 l 1,2,-1
 1499 524 l 1,3,-1
 217 61 l 1,4,-1
 217 311 l 1,5,-1
 1182 641 l 1,6,-1
 217 973 l 1,0,-1
EndSplineSet
EndChar

StartChar: question
Encoding: 63 63 34
Width: 1188
Flags: W
LayerCount: 2
Fore
SplineSet
709 504 m 1,0,-1
 348 504 l 1,1,-1
 348 553 l 2,2,3
 348 635 348 635 381 698.5 c 128,-1,4
 414 762 414 762 520 860 c 2,5,-1
 584 918 l 2,6,7
 641 970 641 970 667.5 1016 c 128,-1,8
 694 1062 694 1062 694 1108 c 0,9,10
 694 1178 694 1178 646 1217.5 c 128,-1,11
 598 1257 598 1257 512 1257 c 0,12,13
 431 1257 431 1257 337 1223.5 c 128,-1,14
 243 1190 243 1190 141 1124 c 1,15,-1
 141 1438 l 1,16,17
 262 1480 262 1480 362 1500 c 128,-1,18
 462 1520 462 1520 555 1520 c 0,19,20
 799 1520 799 1520 927 1420.5 c 128,-1,21
 1055 1321 1055 1321 1055 1130 c 0,22,23
 1055 1032 1055 1032 1016 954.5 c 128,-1,24
 977 877 977 877 883 788 c 2,25,-1
 819 731 l 2,26,27
 751 669 751 669 730 631.5 c 128,-1,28
 709 594 709 594 709 549 c 2,29,-1
 709 504 l 1,0,-1
348 356 m 1,30,-1
 709 356 l 1,31,-1
 709 0 l 1,32,-1
 348 0 l 1,33,-1
 348 356 l 1,30,-1
EndSplineSet
EndChar

StartChar: at
Encoding: 64 64 35
Width: 2048
Flags: W
LayerCount: 2
Fore
SplineSet
831 539 m 0,0,1
 831 416 831 416 883.5 345 c 128,-1,2
 936 274 936 274 1026 274 c 0,3,4
 1115 274 1115 274 1168 345.5 c 128,-1,5
 1221 417 1221 417 1221 539 c 0,6,7
 1221 660 1221 660 1167.5 730.5 c 128,-1,8
 1114 801 1114 801 1024 801 c 0,9,10
 936 801 936 801 883.5 730.5 c 128,-1,11
 831 660 831 660 831 539 c 0,0,1
1241 238 m 1,12,13
 1211 167 1211 167 1144.5 127.5 c 128,-1,14
 1078 88 1078 88 989 88 c 0,15,16
 817 88 817 88 709.5 212.5 c 128,-1,17
 602 337 602 337 602 537 c 256,18,19
 602 737 602 737 710 862 c 128,-1,20
 818 987 818 987 989 987 c 0,21,22
 1078 987 1078 987 1144.5 947 c 128,-1,23
 1211 907 1211 907 1241 836 c 1,24,-1
 1241 967 l 1,25,-1
 1450 967 l 1,26,-1
 1450 274 l 1,27,28
 1574 293 1574 293 1645 393.5 c 128,-1,29
 1716 494 1716 494 1716 651 c 0,30,31
 1716 751 1716 751 1687 838.5 c 128,-1,32
 1658 926 1658 926 1599 999 c 0,33,34
 1504 1121 1504 1121 1361.5 1187 c 128,-1,35
 1219 1253 1219 1253 1053 1253 c 0,36,37
 937 1253 937 1253 831 1222.5 c 128,-1,38
 725 1192 725 1192 635 1133 c 0,39,40
 487 1035 487 1035 404.5 879.5 c 128,-1,41
 322 724 322 724 322 543 c 0,42,43
 322 394 322 394 375.5 263.5 c 128,-1,44
 429 133 429 133 530 33 c 0,45,46
 630 -65 630 -65 759.5 -116.5 c 128,-1,47
 889 -168 889 -168 1036 -168 c 0,48,49
 1162 -168 1162 -168 1288 -121 c 128,-1,50
 1414 -74 1414 -74 1503 6 c 1,51,-1
 1610 -156 l 1,52,53
 1485 -253 1485 -253 1337.5 -304.5 c 128,-1,54
 1190 -356 1190 -356 1038 -356 c 0,55,56
 853 -356 853 -356 689 -290.5 c 128,-1,57
 525 -225 525 -225 397 -100 c 256,58,59
 269 25 269 25 202 189.5 c 128,-1,60
 135 354 135 354 135 543 c 0,61,62
 135 725 135 725 203 890 c 128,-1,63
 271 1055 271 1055 397 1180 c 0,64,65
 523 1304 523 1304 690.5 1372 c 128,-1,66
 858 1440 858 1440 1038 1440 c 0,67,68
 1262 1440 1262 1440 1445 1354.5 c 128,-1,69
 1628 1269 1628 1269 1751 1108 c 0,70,71
 1826 1010 1826 1010 1864.5 895.5 c 128,-1,72
 1903 781 1903 781 1903 655 c 0,73,74
 1903 384 1903 384 1740 234 c 128,-1,75
 1577 84 1577 84 1280 84 c 2,76,-1
 1241 84 l 1,77,-1
 1241 238 l 1,12,13
EndSplineSet
EndChar

StartChar: A
Encoding: 65 65 36
Width: 1585
Flags: W
LayerCount: 2
Fore
SplineSet
1094 272 m 1,0,-1
 492 272 l 1,1,-1
 397 0 l 1,2,-1
 10 0 l 1,3,-1
 563 1493 l 1,4,-1
 1022 1493 l 1,5,-1
 1575 0 l 1,6,-1
 1188 0 l 1,7,-1
 1094 272 l 1,0,-1
588 549 m 1,8,-1
 997 549 l 1,9,-1
 793 1143 l 1,10,-1
 588 549 l 1,8,-1
EndSplineSet
EndChar

StartChar: B
Encoding: 66 66 37
Width: 1561
Flags: W
LayerCount: 2
Fore
SplineSet
786 915 m 2,0,1
 877 915 877 915 924 955 c 128,-1,2
 971 995 971 995 971 1073 c 0,3,4
 971 1150 971 1150 924 1190.5 c 128,-1,5
 877 1231 877 1231 786 1231 c 2,6,-1
 573 1231 l 1,7,-1
 573 915 l 1,8,-1
 786 915 l 2,0,1
799 262 m 2,9,10
 915 262 915 262 973.5 311 c 128,-1,11
 1032 360 1032 360 1032 459 c 0,12,13
 1032 556 1032 556 974 604.5 c 128,-1,14
 916 653 916 653 799 653 c 2,15,-1
 573 653 l 1,16,-1
 573 262 l 1,17,-1
 799 262 l 2,9,10
1157 799 m 1,18,19
 1281 763 1281 763 1349 666 c 128,-1,20
 1417 569 1417 569 1417 428 c 0,21,22
 1417 212 1417 212 1271 106 c 128,-1,23
 1125 0 1125 0 827 0 c 2,24,-1
 188 0 l 1,25,-1
 188 1493 l 1,26,-1
 766 1493 l 2,27,28
 1077 1493 1077 1493 1216.5 1399 c 128,-1,29
 1356 1305 1356 1305 1356 1098 c 0,30,31
 1356 989 1356 989 1305 912.5 c 128,-1,32
 1254 836 1254 836 1157 799 c 1,18,19
EndSplineSet
EndChar

StartChar: C
Encoding: 67 67 38
Width: 1503
Flags: W
LayerCount: 2
Fore
SplineSet
1372 82 m 1,0,1
 1266 27 1266 27 1151 -1 c 128,-1,2
 1036 -29 1036 -29 911 -29 c 0,3,4
 538 -29 538 -29 320 179.5 c 128,-1,5
 102 388 102 388 102 745 c 0,6,7
 102 1103 102 1103 320 1311.5 c 128,-1,8
 538 1520 538 1520 911 1520 c 0,9,10
 1036 1520 1036 1520 1151 1492 c 128,-1,11
 1266 1464 1266 1464 1372 1409 c 1,12,-1
 1372 1100 l 1,13,14
 1265 1173 1265 1173 1161 1207 c 128,-1,15
 1057 1241 1057 1241 942 1241 c 0,16,17
 736 1241 736 1241 618 1109 c 128,-1,18
 500 977 500 977 500 745 c 0,19,20
 500 514 500 514 618 382 c 128,-1,21
 736 250 736 250 942 250 c 0,22,23
 1057 250 1057 250 1161 284 c 128,-1,24
 1265 318 1265 318 1372 391 c 1,25,-1
 1372 82 l 1,0,1
EndSplineSet
EndChar

StartChar: D
Encoding: 68 68 39
Width: 1700
Flags: W
LayerCount: 2
Fore
SplineSet
573 1202 m 1,0,-1
 573 291 l 1,1,-1
 711 291 l 2,2,3
 947 291 947 291 1071.5 408 c 128,-1,4
 1196 525 1196 525 1196 748 c 0,5,6
 1196 970 1196 970 1072 1086 c 128,-1,7
 948 1202 948 1202 711 1202 c 2,8,-1
 573 1202 l 1,0,-1
188 1493 m 1,9,-1
 594 1493 l 2,10,11
 934 1493 934 1493 1100.5 1444.5 c 128,-1,12
 1267 1396 1267 1396 1386 1280 c 0,13,14
 1491 1179 1491 1179 1542 1047 c 128,-1,15
 1593 915 1593 915 1593 748 c 0,16,17
 1593 579 1593 579 1542 446.5 c 128,-1,18
 1491 314 1491 314 1386 213 c 0,19,20
 1266 97 1266 97 1098 48.5 c 128,-1,21
 930 0 930 0 594 0 c 2,22,-1
 188 0 l 1,23,-1
 188 1493 l 1,9,-1
EndSplineSet
EndChar

StartChar: E
Encoding: 69 69 40
Width: 1399
Flags: W
LayerCount: 2
Fore
SplineSet
188 1493 m 1,0,-1
 1227 1493 l 1,1,-1
 1227 1202 l 1,2,-1
 573 1202 l 1,3,-1
 573 924 l 1,4,-1
 1188 924 l 1,5,-1
 1188 633 l 1,6,-1
 573 633 l 1,7,-1
 573 291 l 1,8,-1
 1249 291 l 1,9,-1
 1249 0 l 1,10,-1
 188 0 l 1,11,-1
 188 1493 l 1,0,-1
EndSplineSet
EndChar

StartChar: F
Encoding: 70 70 41
Width: 1399
Flags: W
LayerCount: 2
Fore
SplineSet
188 1493 m 1,0,-1
 1227 1493 l 1,1,-1
 1227 1202 l 1,2,-1
 573 1202 l 1,3,-1
 573 924 l 1,4,-1
 1188 924 l 1,5,-1
 1188 633 l 1,6,-1
 573 633 l 1,7,-1
 573 0 l 1,8,-1
 188 0 l 1,9,-1
 188 1493 l 1,0,-1
EndSplineSet
EndChar

StartChar: G
Encoding: 71 71 42
Width: 1681
Flags: W
LayerCount: 2
Fore
SplineSet
1530 111 m 1,0,1
 1386 41 1386 41 1231 6 c 128,-1,2
 1076 -29 1076 -29 911 -29 c 0,3,4
 538 -29 538 -29 320 179.5 c 128,-1,5
 102 388 102 388 102 745 c 0,6,7
 102 1106 102 1106 324 1313 c 128,-1,8
 546 1520 546 1520 932 1520 c 0,9,10
 1081 1520 1081 1520 1217.5 1492 c 128,-1,11
 1354 1464 1354 1464 1475 1409 c 1,12,-1
 1475 1100 l 1,13,14
 1350 1171 1350 1171 1226.5 1206 c 128,-1,15
 1103 1241 1103 1241 979 1241 c 0,16,17
 749 1241 749 1241 624.5 1112.5 c 128,-1,18
 500 984 500 984 500 745 c 0,19,20
 500 508 500 508 620 379 c 128,-1,21
 740 250 740 250 961 250 c 0,22,23
 1021 250 1021 250 1072.5 257.5 c 128,-1,24
 1124 265 1124 265 1165 281 c 1,25,-1
 1165 571 l 1,26,-1
 930 571 l 1,27,-1
 930 829 l 1,28,-1
 1530 829 l 1,29,-1
 1530 111 l 1,0,1
EndSplineSet
EndChar

StartChar: H
Encoding: 72 72 43
Width: 1714
Flags: W
LayerCount: 2
Fore
SplineSet
188 1493 m 1,0,-1
 573 1493 l 1,1,-1
 573 924 l 1,2,-1
 1141 924 l 1,3,-1
 1141 1493 l 1,4,-1
 1526 1493 l 1,5,-1
 1526 0 l 1,6,-1
 1141 0 l 1,7,-1
 1141 633 l 1,8,-1
 573 633 l 1,9,-1
 573 0 l 1,10,-1
 188 0 l 1,11,-1
 188 1493 l 1,0,-1
EndSplineSet
EndChar

StartChar: I
Encoding: 73 73 44
Width: 762
Flags: W
LayerCount: 2
Fore
SplineSet
188 1493 m 1,0,-1
 573 1493 l 1,1,-1
 573 0 l 1,2,-1
 188 0 l 1,3,-1
 188 1493 l 1,0,-1
EndSplineSet
EndChar

StartChar: J
Encoding: 74 74 45
Width: 762
Flags: W
LayerCount: 2
Fore
SplineSet
188 1493 m 1,0,-1
 573 1493 l 1,1,-1
 573 145 l 2,2,3
 573 -134 573 -134 421.5 -272 c 128,-1,4
 270 -410 270 -410 -37 -410 c 2,5,-1
 -115 -410 l 1,6,-1
 -115 -119 l 1,7,-1
 -55 -119 l 2,8,9
 65 -119 65 -119 126.5 -52 c 128,-1,10
 188 15 188 15 188 145 c 2,11,-1
 188 1493 l 1,0,-1
EndSplineSet
EndChar

StartChar: K
Encoding: 75 75 46
Width: 1587
Flags: W
LayerCount: 2
Fore
SplineSet
188 1493 m 1,0,-1
 573 1493 l 1,1,-1
 573 948 l 1,2,-1
 1128 1493 l 1,3,-1
 1575 1493 l 1,4,-1
 856 786 l 1,5,-1
 1649 0 l 1,6,-1
 1167 0 l 1,7,-1
 573 588 l 1,8,-1
 573 0 l 1,9,-1
 188 0 l 1,10,-1
 188 1493 l 1,0,-1
EndSplineSet
EndChar

StartChar: L
Encoding: 76 76 47
Width: 1305
Flags: W
LayerCount: 2
Fore
SplineSet
188 1493 m 1,0,-1
 573 1493 l 1,1,-1
 573 291 l 1,2,-1
 1249 291 l 1,3,-1
 1249 0 l 1,4,-1
 188 0 l 1,5,-1
 188 1493 l 1,0,-1
EndSplineSet
EndChar

StartChar: M
Encoding: 77 77 48
Width: 2038
Flags: W
LayerCount: 2
Fore
SplineSet
188 1493 m 1,0,-1
 678 1493 l 1,1,-1
 1018 694 l 1,2,-1
 1360 1493 l 1,3,-1
 1849 1493 l 1,4,-1
 1849 0 l 1,5,-1
 1485 0 l 1,6,-1
 1485 1092 l 1,7,-1
 1141 287 l 1,8,-1
 897 287 l 1,9,-1
 553 1092 l 1,10,-1
 553 0 l 1,11,-1
 188 0 l 1,12,-1
 188 1493 l 1,0,-1
EndSplineSet
EndChar

StartChar: N
Encoding: 78 78 49
Width: 1714
Flags: W
LayerCount: 2
Fore
SplineSet
188 1493 m 1,0,-1
 618 1493 l 1,1,-1
 1161 469 l 1,2,-1
 1161 1493 l 1,3,-1
 1526 1493 l 1,4,-1
 1526 0 l 1,5,-1
 1096 0 l 1,6,-1
 553 1024 l 1,7,-1
 553 0 l 1,8,-1
 188 0 l 1,9,-1
 188 1493 l 1,0,-1
EndSplineSet
EndChar

StartChar: O
Encoding: 79 79 50
Width: 1741
Flags: W
LayerCount: 2
Fore
SplineSet
870 1241 m 0,0,1
 694 1241 694 1241 597 1111 c 128,-1,2
 500 981 500 981 500 745 c 0,3,4
 500 510 500 510 597 380 c 128,-1,5
 694 250 694 250 870 250 c 0,6,7
 1047 250 1047 250 1144 380 c 128,-1,8
 1241 510 1241 510 1241 745 c 0,9,10
 1241 981 1241 981 1144 1111 c 128,-1,11
 1047 1241 1047 1241 870 1241 c 0,0,1
870 1520 m 0,12,13
 1230 1520 1230 1520 1434 1314 c 128,-1,14
 1638 1108 1638 1108 1638 745 c 0,15,16
 1638 383 1638 383 1434 177 c 128,-1,17
 1230 -29 1230 -29 870 -29 c 0,18,19
 511 -29 511 -29 306.5 177 c 128,-1,20
 102 383 102 383 102 745 c 0,21,22
 102 1108 102 1108 306.5 1314 c 128,-1,23
 511 1520 511 1520 870 1520 c 0,12,13
EndSplineSet
EndChar

StartChar: P
Encoding: 80 80 51
Width: 1501
Flags: W
LayerCount: 2
Fore
SplineSet
188 1493 m 1,0,-1
 827 1493 l 2,1,2
 1112 1493 1112 1493 1264.5 1366.5 c 128,-1,3
 1417 1240 1417 1240 1417 1006 c 0,4,5
 1417 771 1417 771 1264.5 644.5 c 128,-1,6
 1112 518 1112 518 827 518 c 2,7,-1
 573 518 l 1,8,-1
 573 0 l 1,9,-1
 188 0 l 1,10,-1
 188 1493 l 1,0,-1
573 1214 m 1,11,-1
 573 797 l 1,12,-1
 786 797 l 2,13,14
 898 797 898 797 959 851.5 c 128,-1,15
 1020 906 1020 906 1020 1006 c 256,16,17
 1020 1106 1020 1106 959 1160 c 128,-1,18
 898 1214 898 1214 786 1214 c 2,19,-1
 573 1214 l 1,11,-1
EndSplineSet
EndChar

StartChar: Q
Encoding: 81 81 52
Width: 1741
Flags: W
LayerCount: 2
Fore
SplineSet
911 -27 m 1,0,-1
 881 -27 l 2,1,2
 512 -27 512 -27 307 177 c 128,-1,3
 102 381 102 381 102 745 c 0,4,5
 102 1108 102 1108 306.5 1314 c 128,-1,6
 511 1520 511 1520 870 1520 c 0,7,8
 1233 1520 1233 1520 1435.5 1316 c 128,-1,9
 1638 1112 1638 1112 1638 745 c 0,10,11
 1638 493 1638 493 1530.5 311 c 128,-1,12
 1423 129 1423 129 1221 37 c 1,13,-1
 1522 -299 l 1,14,-1
 1155 -299 l 1,15,-1
 911 -27 l 1,0,-1
870 1241 m 0,16,17
 694 1241 694 1241 597 1111 c 128,-1,18
 500 981 500 981 500 745 c 0,19,20
 500 505 500 505 595 377.5 c 128,-1,21
 690 250 690 250 870 250 c 0,22,23
 1047 250 1047 250 1144 380 c 128,-1,24
 1241 510 1241 510 1241 745 c 0,25,26
 1241 981 1241 981 1144 1111 c 128,-1,27
 1047 1241 1047 1241 870 1241 c 0,16,17
EndSplineSet
EndChar

StartChar: R
Encoding: 82 82 53
Width: 1577
Flags: W
LayerCount: 2
Fore
SplineSet
735 831 m 2,0,1
 856 831 856 831 908.5 876 c 128,-1,2
 961 921 961 921 961 1024 c 0,3,4
 961 1126 961 1126 908.5 1170 c 128,-1,5
 856 1214 856 1214 735 1214 c 2,6,-1
 573 1214 l 1,7,-1
 573 831 l 1,8,-1
 735 831 l 2,0,1
573 565 m 1,9,-1
 573 0 l 1,10,-1
 188 0 l 1,11,-1
 188 1493 l 1,12,-1
 776 1493 l 2,13,14
 1071 1493 1071 1493 1208.5 1394 c 128,-1,15
 1346 1295 1346 1295 1346 1081 c 0,16,17
 1346 933 1346 933 1274.5 838 c 128,-1,18
 1203 743 1203 743 1059 698 c 1,19,20
 1138 680 1138 680 1200.5 616.5 c 128,-1,21
 1263 553 1263 553 1327 424 c 2,22,-1
 1536 0 l 1,23,-1
 1126 0 l 1,24,-1
 944 371 l 2,25,26
 889 483 889 483 832.5 524 c 128,-1,27
 776 565 776 565 682 565 c 2,28,-1
 573 565 l 1,9,-1
EndSplineSet
EndChar

StartChar: S
Encoding: 83 83 54
Width: 1475
Flags: W
LayerCount: 2
Fore
SplineSet
1227 1446 m 1,0,-1
 1227 1130 l 1,1,2
 1104 1185 1104 1185 987 1213 c 128,-1,3
 870 1241 870 1241 766 1241 c 0,4,5
 628 1241 628 1241 562 1203 c 128,-1,6
 496 1165 496 1165 496 1085 c 0,7,8
 496 1025 496 1025 540.5 991.5 c 128,-1,9
 585 958 585 958 702 934 c 2,10,-1
 866 901 l 2,11,12
 1115 851 1115 851 1220 749 c 128,-1,13
 1325 647 1325 647 1325 459 c 0,14,15
 1325 212 1325 212 1178.5 91.5 c 128,-1,16
 1032 -29 1032 -29 731 -29 c 0,17,18
 589 -29 589 -29 446 -2 c 128,-1,19
 303 25 303 25 160 78 c 1,20,-1
 160 403 l 1,21,22
 303 327 303 327 436.5 288.5 c 128,-1,23
 570 250 570 250 694 250 c 0,24,25
 820 250 820 250 887 292 c 128,-1,26
 954 334 954 334 954 412 c 0,27,28
 954 482 954 482 908.5 520 c 128,-1,29
 863 558 863 558 727 588 c 2,30,-1
 578 621 l 2,31,32
 354 669 354 669 250.5 774 c 128,-1,33
 147 879 147 879 147 1057 c 0,34,35
 147 1280 147 1280 291 1400 c 128,-1,36
 435 1520 435 1520 705 1520 c 0,37,38
 828 1520 828 1520 958 1501.5 c 128,-1,39
 1088 1483 1088 1483 1227 1446 c 1,0,-1
EndSplineSet
EndChar

StartChar: T
Encoding: 84 84 55
Width: 1397
Flags: W
LayerCount: 2
Fore
SplineSet
10 1493 m 1,0,-1
 1386 1493 l 1,1,-1
 1386 1202 l 1,2,-1
 891 1202 l 1,3,-1
 891 0 l 1,4,-1
 506 0 l 1,5,-1
 506 1202 l 1,6,-1
 10 1202 l 1,7,-1
 10 1493 l 1,0,-1
EndSplineSet
EndChar

StartChar: U
Encoding: 85 85 56
Width: 1663
Flags: W
LayerCount: 2
Fore
SplineSet
188 1493 m 1,0,-1
 573 1493 l 1,1,-1
 573 598 l 2,2,3
 573 413 573 413 633.5 333.5 c 128,-1,4
 694 254 694 254 831 254 c 0,5,6
 969 254 969 254 1029.5 333.5 c 128,-1,7
 1090 413 1090 413 1090 598 c 2,8,-1
 1090 1493 l 1,9,-1
 1475 1493 l 1,10,-1
 1475 598 l 2,11,12
 1475 281 1475 281 1316 126 c 128,-1,13
 1157 -29 1157 -29 831 -29 c 0,14,15
 506 -29 506 -29 347 126 c 128,-1,16
 188 281 188 281 188 598 c 2,17,-1
 188 1493 l 1,0,-1
EndSplineSet
EndChar

StartChar: V
Encoding: 86 86 57
Width: 1585
Flags: W
LayerCount: 2
Fore
SplineSet
10 1493 m 1,0,-1
 397 1493 l 1,1,-1
 793 391 l 1,2,-1
 1188 1493 l 1,3,-1
 1575 1493 l 1,4,-1
 1022 0 l 1,5,-1
 563 0 l 1,6,-1
 10 1493 l 1,0,-1
EndSplineSet
EndChar

StartChar: W
Encoding: 87 87 58
Width: 2259
Flags: W
LayerCount: 2
Fore
SplineSet
61 1493 m 1,0,-1
 430 1493 l 1,1,-1
 688 408 l 1,2,-1
 944 1493 l 1,3,-1
 1315 1493 l 1,4,-1
 1571 408 l 1,5,-1
 1829 1493 l 1,6,-1
 2195 1493 l 1,7,-1
 1843 0 l 1,8,-1
 1399 0 l 1,9,-1
 1128 1135 l 1,10,-1
 860 0 l 1,11,-1
 416 0 l 1,12,-1
 61 1493 l 1,0,-1
EndSplineSet
EndChar

StartChar: X
Encoding: 88 88 59
Width: 1579
Flags: W
LayerCount: 2
Fore
SplineSet
1020 762 m 1,0,-1
 1538 0 l 1,1,-1
 1137 0 l 1,2,-1
 788 510 l 1,3,-1
 442 0 l 1,4,-1
 39 0 l 1,5,-1
 557 762 l 1,6,-1
 59 1493 l 1,7,-1
 461 1493 l 1,8,-1
 788 1012 l 1,9,-1
 1114 1493 l 1,10,-1
 1518 1493 l 1,11,-1
 1020 762 l 1,0,-1
EndSplineSet
EndChar

StartChar: Y
Encoding: 89 89 60
Width: 1483
Flags: W
LayerCount: 2
Fore
SplineSet
-20 1493 m 1,0,-1
 401 1493 l 1,1,-1
 741 961 l 1,2,-1
 1081 1493 l 1,3,-1
 1503 1493 l 1,4,-1
 934 629 l 1,5,-1
 934 0 l 1,6,-1
 549 0 l 1,7,-1
 549 629 l 1,8,-1
 -20 1493 l 1,0,-1
EndSplineSet
EndChar

StartChar: Z
Encoding: 90 90 61
Width: 1485
Flags: W
LayerCount: 2
Fore
SplineSet
115 1493 m 1,0,-1
 1370 1493 l 1,1,-1
 1370 1260 l 1,2,-1
 569 291 l 1,3,-1
 1393 291 l 1,4,-1
 1393 0 l 1,5,-1
 92 0 l 1,6,-1
 92 233 l 1,7,-1
 893 1202 l 1,8,-1
 115 1202 l 1,9,-1
 115 1493 l 1,0,-1
EndSplineSet
EndChar

StartChar: bracketleft
Encoding: 91 91 62
Width: 936
Flags: W
LayerCount: 2
Fore
SplineSet
176 1556 m 1,0,-1
 797 1556 l 1,1,-1
 797 1331 l 1,2,-1
 516 1331 l 1,3,-1
 516 -45 l 1,4,-1
 797 -45 l 1,5,-1
 797 -270 l 1,6,-1
 176 -270 l 1,7,-1
 176 1556 l 1,0,-1
EndSplineSet
EndChar

StartChar: backslash
Encoding: 92 92 63
Width: 748
Flags: W
LayerCount: 2
Fore
SplineSet
526 -190 m 1,0,-1
 0 1493 l 1,1,-1
 221 1493 l 1,2,-1
 748 -190 l 1,3,-1
 526 -190 l 1,0,-1
EndSplineSet
EndChar

StartChar: bracketright
Encoding: 93 93 64
Width: 936
Flags: W
LayerCount: 2
Fore
SplineSet
760 -270 m 1,0,-1
 139 -270 l 1,1,-1
 139 -45 l 1,2,-1
 420 -45 l 1,3,-1
 420 1331 l 1,4,-1
 139 1331 l 1,5,-1
 139 1556 l 1,6,-1
 760 1556 l 1,7,-1
 760 -270 l 1,0,-1
EndSplineSet
EndChar

StartChar: asciicircum
Encoding: 94 94 65
Width: 1716
Flags: W
LayerCount: 2
Fore
SplineSet
981 1493 m 1,0,-1
 1509 936 l 1,1,-1
 1268 936 l 1,2,-1
 858 1237 l 1,3,-1
 449 936 l 1,4,-1
 207 936 l 1,5,-1
 735 1493 l 1,6,-1
 981 1493 l 1,0,-1
EndSplineSet
EndChar

StartChar: underscore
Encoding: 95 95 66
Width: 1024
Flags: W
LayerCount: 2
Fore
SplineSet
1024 -293 m 1,0,-1
 1024 -483 l 1,1,-1
 0 -483 l 1,2,-1
 0 -293 l 1,3,-1
 1024 -293 l 1,0,-1
EndSplineSet
EndChar

StartChar: grave
Encoding: 96 96 67
Width: 1024
Flags: W
LayerCount: 2
Fore
SplineSet
377 1638 m 1,0,-1
 659 1262 l 1,1,-1
 463 1262 l 1,2,-1
 94 1638 l 1,3,-1
 377 1638 l 1,0,-1
EndSplineSet
EndChar

StartChar: a
Encoding: 97 97 68
Width: 1382
Flags: W
LayerCount: 2
Fore
SplineSet
674 504 m 2,0,1
 562 504 562 504 505.5 466 c 128,-1,2
 449 428 449 428 449 354 c 0,3,4
 449 286 449 286 494.5 247.5 c 128,-1,5
 540 209 540 209 621 209 c 0,6,7
 722 209 722 209 791 281.5 c 128,-1,8
 860 354 860 354 860 463 c 2,9,-1
 860 504 l 1,10,-1
 674 504 l 2,0,1
1221 639 m 2,11,-1
 1221 0 l 1,12,-1
 860 0 l 1,13,-1
 860 166 l 1,14,15
 788 64 788 64 698 17.5 c 128,-1,16
 608 -29 608 -29 479 -29 c 0,17,18
 305 -29 305 -29 196.5 72.5 c 128,-1,19
 88 174 88 174 88 336 c 0,20,21
 88 533 88 533 223.5 625 c 128,-1,22
 359 717 359 717 649 717 c 2,23,-1
 860 717 l 1,24,-1
 860 745 l 2,25,26
 860 830 860 830 793 869.5 c 128,-1,27
 726 909 726 909 584 909 c 0,28,29
 469 909 469 909 370 886 c 128,-1,30
 271 863 271 863 186 817 c 1,31,-1
 186 1090 l 1,32,33
 301 1118 301 1118 417 1132.5 c 128,-1,34
 533 1147 533 1147 649 1147 c 0,35,36
 952 1147 952 1147 1086.5 1027.5 c 128,-1,37
 1221 908 1221 908 1221 639 c 2,11,-1
EndSplineSet
EndChar

StartChar: b
Encoding: 98 98 69
Width: 1466
Flags: W
LayerCount: 2
Fore
SplineSet
768 231 m 256,0,1
 883 231 883 231 943.5 315 c 128,-1,2
 1004 399 1004 399 1004 559 c 256,3,4
 1004 719 1004 719 943.5 803 c 128,-1,5
 883 887 883 887 768 887 c 256,6,7
 653 887 653 887 591.5 802.5 c 128,-1,8
 530 718 530 718 530 559 c 256,9,10
 530 400 530 400 591.5 315.5 c 128,-1,11
 653 231 653 231 768 231 c 256,0,1
530 956 m 1,12,13
 604 1054 604 1054 694 1100.5 c 128,-1,14
 784 1147 784 1147 901 1147 c 0,15,16
 1108 1147 1108 1147 1241 982.5 c 128,-1,17
 1374 818 1374 818 1374 559 c 256,18,19
 1374 300 1374 300 1241 135.5 c 128,-1,20
 1108 -29 1108 -29 901 -29 c 0,21,22
 784 -29 784 -29 694 17.5 c 128,-1,23
 604 64 604 64 530 162 c 1,24,-1
 530 0 l 1,25,-1
 172 0 l 1,26,-1
 172 1556 l 1,27,-1
 530 1556 l 1,28,-1
 530 956 l 1,12,13
EndSplineSet
EndChar

StartChar: c
Encoding: 99 99 70
Width: 1214
Flags: W
LayerCount: 2
Fore
SplineSet
1077 1085 m 1,0,-1
 1077 793 l 1,1,2
 1004 843 1004 843 930.5 867 c 128,-1,3
 857 891 857 891 778 891 c 0,4,5
 628 891 628 891 544.5 803.5 c 128,-1,6
 461 716 461 716 461 559 c 256,7,8
 461 402 461 402 544.5 314.5 c 128,-1,9
 628 227 628 227 778 227 c 0,10,11
 862 227 862 227 937.5 252 c 128,-1,12
 1013 277 1013 277 1077 326 c 1,13,-1
 1077 33 l 1,14,15
 993 2 993 2 906.5 -13.5 c 128,-1,16
 820 -29 820 -29 733 -29 c 0,17,18
 430 -29 430 -29 259 126.5 c 128,-1,19
 88 282 88 282 88 559 c 256,20,21
 88 836 88 836 259 991.5 c 128,-1,22
 430 1147 430 1147 733 1147 c 0,23,24
 821 1147 821 1147 906.5 1131.5 c 128,-1,25
 992 1116 992 1116 1077 1085 c 1,0,-1
EndSplineSet
EndChar

StartChar: d
Encoding: 100 100 71
Width: 1466
Flags: W
LayerCount: 2
Fore
SplineSet
934 956 m 1,0,-1
 934 1556 l 1,1,-1
 1294 1556 l 1,2,-1
 1294 0 l 1,3,-1
 934 0 l 1,4,-1
 934 162 l 1,5,6
 860 63 860 63 771 17 c 128,-1,7
 682 -29 682 -29 565 -29 c 0,8,9
 358 -29 358 -29 225 135.5 c 128,-1,10
 92 300 92 300 92 559 c 256,11,12
 92 818 92 818 225 982.5 c 128,-1,13
 358 1147 358 1147 565 1147 c 0,14,15
 681 1147 681 1147 770.5 1100.5 c 128,-1,16
 860 1054 860 1054 934 956 c 1,0,-1
698 231 m 0,17,18
 813 231 813 231 873.5 315 c 128,-1,19
 934 399 934 399 934 559 c 256,20,21
 934 719 934 719 873.5 803 c 128,-1,22
 813 887 813 887 698 887 c 0,23,24
 584 887 584 887 523.5 803 c 128,-1,25
 463 719 463 719 463 559 c 256,26,27
 463 399 463 399 523.5 315 c 128,-1,28
 584 231 584 231 698 231 c 0,17,18
EndSplineSet
EndChar

StartChar: e
Encoding: 101 101 72
Width: 1389
Flags: W
LayerCount: 2
Fore
SplineSet
1290 563 m 2,0,-1
 1290 461 l 1,1,-1
 453 461 l 1,2,3
 466 335 466 335 544 272 c 128,-1,4
 622 209 622 209 762 209 c 0,5,6
 875 209 875 209 993.5 242.5 c 128,-1,7
 1112 276 1112 276 1237 344 c 1,8,-1
 1237 68 l 1,9,10
 1110 20 1110 20 983 -4.5 c 128,-1,11
 856 -29 856 -29 729 -29 c 0,12,13
 425 -29 425 -29 256.5 125.5 c 128,-1,14
 88 280 88 280 88 559 c 0,15,16
 88 833 88 833 253.5 990 c 128,-1,17
 419 1147 419 1147 709 1147 c 0,18,19
 973 1147 973 1147 1131.5 988 c 128,-1,20
 1290 829 1290 829 1290 563 c 2,0,-1
922 682 m 1,21,22
 922 784 922 784 862.5 846.5 c 128,-1,23
 803 909 803 909 707 909 c 0,24,25
 603 909 603 909 538 850.5 c 128,-1,26
 473 792 473 792 457 682 c 1,27,-1
 922 682 l 1,21,22
EndSplineSet
EndChar

StartChar: f
Encoding: 102 102 73
Width: 891
Flags: W
LayerCount: 2
Fore
SplineSet
909 1556 m 1,0,-1
 909 1321 l 1,1,-1
 711 1321 l 2,2,3
 635 1321 635 1321 605 1293.5 c 128,-1,4
 575 1266 575 1266 575 1198 c 2,5,-1
 575 1120 l 1,6,-1
 881 1120 l 1,7,-1
 881 864 l 1,8,-1
 575 864 l 1,9,-1
 575 0 l 1,10,-1
 217 0 l 1,11,-1
 217 864 l 1,12,-1
 39 864 l 1,13,-1
 39 1120 l 1,14,-1
 217 1120 l 1,15,-1
 217 1198 l 2,16,17
 217 1381 217 1381 319 1468.5 c 128,-1,18
 421 1556 421 1556 635 1556 c 2,19,-1
 909 1556 l 1,0,-1
EndSplineSet
EndChar

StartChar: g
Encoding: 103 103 74
Width: 1466
Flags: W
LayerCount: 2
Fore
SplineSet
934 190 m 1,0,1
 860 92 860 92 771 46 c 128,-1,2
 682 0 682 0 565 0 c 0,3,4
 360 0 360 0 226 161.5 c 128,-1,5
 92 323 92 323 92 573 c 0,6,7
 92 824 92 824 226 984.5 c 128,-1,8
 360 1145 360 1145 565 1145 c 0,9,10
 682 1145 682 1145 771 1099 c 128,-1,11
 860 1053 860 1053 934 954 c 1,12,-1
 934 1120 l 1,13,-1
 1294 1120 l 1,14,-1
 1294 113 l 2,15,16
 1294 -157 1294 -157 1123.5 -299.5 c 128,-1,17
 953 -442 953 -442 629 -442 c 0,18,19
 524 -442 524 -442 426 -426 c 128,-1,20
 328 -410 328 -410 229 -377 c 1,21,-1
 229 -98 l 1,22,23
 323 -152 323 -152 413 -178.5 c 128,-1,24
 503 -205 503 -205 594 -205 c 0,25,26
 770 -205 770 -205 852 -128 c 128,-1,27
 934 -51 934 -51 934 113 c 2,28,-1
 934 190 l 1,0,1
698 887 m 0,29,30
 587 887 587 887 525 805 c 128,-1,31
 463 723 463 723 463 573 c 0,32,33
 463 419 463 419 523 339.5 c 128,-1,34
 583 260 583 260 698 260 c 0,35,36
 810 260 810 260 872 342 c 128,-1,37
 934 424 934 424 934 573 c 0,38,39
 934 723 934 723 872 805 c 128,-1,40
 810 887 810 887 698 887 c 0,29,30
EndSplineSet
EndChar

StartChar: h
Encoding: 104 104 75
Width: 1458
Flags: W
LayerCount: 2
Fore
SplineSet
1298 682 m 2,0,-1
 1298 0 l 1,1,-1
 938 0 l 1,2,-1
 938 111 l 1,3,-1
 938 520 l 2,4,5
 938 667 938 667 931.5 722 c 128,-1,6
 925 777 925 777 909 803 c 0,7,8
 888 838 888 838 852 857.5 c 128,-1,9
 816 877 816 877 770 877 c 0,10,11
 658 877 658 877 594 790.5 c 128,-1,12
 530 704 530 704 530 551 c 2,13,-1
 530 0 l 1,14,-1
 172 0 l 1,15,-1
 172 1556 l 1,16,-1
 530 1556 l 1,17,-1
 530 956 l 1,18,19
 611 1054 611 1054 702 1100.5 c 128,-1,20
 793 1147 793 1147 903 1147 c 0,21,22
 1097 1147 1097 1147 1197.5 1028 c 128,-1,23
 1298 909 1298 909 1298 682 c 2,0,-1
EndSplineSet
EndChar

StartChar: i
Encoding: 105 105 76
Width: 702
Flags: W
LayerCount: 2
Fore
SplineSet
172 1120 m 1,0,-1
 530 1120 l 1,1,-1
 530 0 l 1,2,-1
 172 0 l 1,3,-1
 172 1120 l 1,0,-1
172 1556 m 1,4,-1
 530 1556 l 1,5,-1
 530 1264 l 1,6,-1
 172 1264 l 1,7,-1
 172 1556 l 1,4,-1
EndSplineSet
EndChar

StartChar: j
Encoding: 106 106 77
Width: 702
Flags: W
LayerCount: 2
Fore
SplineSet
172 1120 m 1,0,-1
 530 1120 l 1,1,-1
 530 20 l 2,2,3
 530 -205 530 -205 422 -323.5 c 128,-1,4
 314 -442 314 -442 109 -442 c 2,5,-1
 -68 -442 l 1,6,-1
 -68 -207 l 1,7,-1
 -6 -207 l 2,8,9
 96 -207 96 -207 134 -161 c 128,-1,10
 172 -115 172 -115 172 20 c 2,11,-1
 172 1120 l 1,0,-1
172 1556 m 1,12,-1
 530 1556 l 1,13,-1
 530 1264 l 1,14,-1
 172 1264 l 1,15,-1
 172 1556 l 1,12,-1
EndSplineSet
EndChar

StartChar: k
Encoding: 107 107 78
Width: 1362
Flags: W
LayerCount: 2
Fore
SplineSet
172 1556 m 1,0,-1
 530 1556 l 1,1,-1
 530 709 l 1,2,-1
 942 1120 l 1,3,-1
 1358 1120 l 1,4,-1
 811 606 l 1,5,-1
 1401 0 l 1,6,-1
 967 0 l 1,7,-1
 530 467 l 1,8,-1
 530 0 l 1,9,-1
 172 0 l 1,10,-1
 172 1556 l 1,0,-1
EndSplineSet
EndChar

StartChar: l
Encoding: 108 108 79
Width: 702
Flags: W
LayerCount: 2
Fore
SplineSet
172 1556 m 1,0,-1
 530 1556 l 1,1,-1
 530 0 l 1,2,-1
 172 0 l 1,3,-1
 172 1556 l 1,0,-1
EndSplineSet
EndChar

StartChar: m
Encoding: 109 109 80
Width: 2134
Flags: W
LayerCount: 2
Fore
SplineSet
1210 934 m 1,0,1
 1278 1038 1278 1038 1371.5 1092.5 c 128,-1,2
 1465 1147 1465 1147 1577 1147 c 0,3,4
 1770 1147 1770 1147 1871 1028 c 128,-1,5
 1972 909 1972 909 1972 682 c 2,6,-1
 1972 0 l 1,7,-1
 1612 0 l 1,8,-1
 1612 584 l 2,9,10
 1613 597 1613 597 1613.5 611 c 128,-1,11
 1614 625 1614 625 1614 651 c 0,12,13
 1614 770 1614 770 1579 823.5 c 128,-1,14
 1544 877 1544 877 1466 877 c 0,15,16
 1364 877 1364 877 1308.5 793 c 128,-1,17
 1253 709 1253 709 1251 550 c 2,18,-1
 1251 0 l 1,19,-1
 891 0 l 1,20,-1
 891 584 l 2,21,22
 891 770 891 770 859 823.5 c 128,-1,23
 827 877 827 877 745 877 c 0,24,25
 642 877 642 877 586 792.5 c 128,-1,26
 530 708 530 708 530 551 c 2,27,-1
 530 0 l 1,28,-1
 170 0 l 1,29,-1
 170 1120 l 1,30,-1
 530 1120 l 1,31,-1
 530 956 l 1,32,33
 596 1051 596 1051 681.5 1099 c 128,-1,34
 767 1147 767 1147 870 1147 c 0,35,36
 986 1147 986 1147 1075 1091 c 128,-1,37
 1164 1035 1164 1035 1210 934 c 1,0,1
EndSplineSet
EndChar

StartChar: n
Encoding: 110 110 81
Width: 1458
Flags: W
LayerCount: 2
Fore
SplineSet
1298 682 m 2,0,-1
 1298 0 l 1,1,-1
 938 0 l 1,2,-1
 938 111 l 1,3,-1
 938 522 l 2,4,5
 938 667 938 667 931.5 722 c 128,-1,6
 925 777 925 777 909 803 c 0,7,8
 888 838 888 838 852 857.5 c 128,-1,9
 816 877 816 877 770 877 c 0,10,11
 658 877 658 877 594 790.5 c 128,-1,12
 530 704 530 704 530 551 c 2,13,-1
 530 0 l 1,14,-1
 172 0 l 1,15,-1
 172 1120 l 1,16,-1
 530 1120 l 1,17,-1
 530 956 l 1,18,19
 611 1054 611 1054 702 1100.5 c 128,-1,20
 793 1147 793 1147 903 1147 c 0,21,22
 1097 1147 1097 1147 1197.5 1028 c 128,-1,23
 1298 909 1298 909 1298 682 c 2,0,-1
EndSplineSet
EndChar

StartChar: o
Encoding: 111 111 82
Width: 1407
Flags: W
LayerCount: 2
Fore
SplineSet
705 891 m 0,0,1
 586 891 586 891 523.5 805.5 c 128,-1,2
 461 720 461 720 461 559 c 256,3,4
 461 398 461 398 523.5 312.5 c 128,-1,5
 586 227 586 227 705 227 c 0,6,7
 822 227 822 227 884 312.5 c 128,-1,8
 946 398 946 398 946 559 c 256,9,10
 946 720 946 720 884 805.5 c 128,-1,11
 822 891 822 891 705 891 c 0,0,1
705 1147 m 0,12,13
 994 1147 994 1147 1156.5 991 c 128,-1,14
 1319 835 1319 835 1319 559 c 256,15,16
 1319 283 1319 283 1156.5 127 c 128,-1,17
 994 -29 994 -29 705 -29 c 0,18,19
 415 -29 415 -29 251.5 127 c 128,-1,20
 88 283 88 283 88 559 c 256,21,22
 88 835 88 835 251.5 991 c 128,-1,23
 415 1147 415 1147 705 1147 c 0,12,13
EndSplineSet
EndChar

StartChar: p
Encoding: 112 112 83
Width: 1466
Flags: W
LayerCount: 2
Fore
SplineSet
530 162 m 1,0,-1
 530 -426 l 1,1,-1
 172 -426 l 1,2,-1
 172 1120 l 1,3,-1
 530 1120 l 1,4,-1
 530 956 l 1,5,6
 604 1054 604 1054 694 1100.5 c 128,-1,7
 784 1147 784 1147 901 1147 c 0,8,9
 1108 1147 1108 1147 1241 982.5 c 128,-1,10
 1374 818 1374 818 1374 559 c 256,11,12
 1374 300 1374 300 1241 135.5 c 128,-1,13
 1108 -29 1108 -29 901 -29 c 0,14,15
 784 -29 784 -29 694 17.5 c 128,-1,16
 604 64 604 64 530 162 c 1,0,-1
768 887 m 256,17,18
 653 887 653 887 591.5 802.5 c 128,-1,19
 530 718 530 718 530 559 c 256,20,21
 530 400 530 400 591.5 315.5 c 128,-1,22
 653 231 653 231 768 231 c 256,23,24
 883 231 883 231 943.5 315 c 128,-1,25
 1004 399 1004 399 1004 559 c 256,26,27
 1004 719 1004 719 943.5 803 c 128,-1,28
 883 887 883 887 768 887 c 256,17,18
EndSplineSet
EndChar

StartChar: q
Encoding: 113 113 84
Width: 1466
Flags: W
LayerCount: 2
Fore
SplineSet
698 887 m 0,0,1
 584 887 584 887 523.5 803 c 128,-1,2
 463 719 463 719 463 559 c 256,3,4
 463 399 463 399 523.5 315 c 128,-1,5
 584 231 584 231 698 231 c 0,6,7
 813 231 813 231 873.5 315 c 128,-1,8
 934 399 934 399 934 559 c 256,9,10
 934 719 934 719 873.5 803 c 128,-1,11
 813 887 813 887 698 887 c 0,0,1
934 162 m 1,12,13
 860 63 860 63 771 17 c 128,-1,14
 682 -29 682 -29 565 -29 c 0,15,16
 358 -29 358 -29 225 135.5 c 128,-1,17
 92 300 92 300 92 559 c 256,18,19
 92 818 92 818 225 981.5 c 128,-1,20
 358 1145 358 1145 565 1145 c 0,21,22
 682 1145 682 1145 771 1099 c 128,-1,23
 860 1053 860 1053 934 954 c 1,24,-1
 934 1120 l 1,25,-1
 1294 1120 l 1,26,-1
 1294 -426 l 1,27,-1
 934 -426 l 1,28,-1
 934 162 l 1,12,13
EndSplineSet
EndChar

StartChar: r
Encoding: 114 114 85
Width: 1010
Flags: W
LayerCount: 2
Fore
SplineSet
1004 815 m 1,0,1
 957 837 957 837 910.5 847.5 c 128,-1,2
 864 858 864 858 817 858 c 0,3,4
 679 858 679 858 604.5 769.5 c 128,-1,5
 530 681 530 681 530 516 c 2,6,-1
 530 0 l 1,7,-1
 172 0 l 1,8,-1
 172 1120 l 1,9,-1
 530 1120 l 1,10,-1
 530 936 l 1,11,12
 599 1046 599 1046 688.5 1096.5 c 128,-1,13
 778 1147 778 1147 903 1147 c 0,14,15
 921 1147 921 1147 942 1145.5 c 128,-1,16
 963 1144 963 1144 1003 1139 c 1,17,-1
 1004 815 l 1,0,1
EndSplineSet
EndChar

StartChar: s
Encoding: 115 115 86
Width: 1219
Flags: W
LayerCount: 2
Fore
SplineSet
1047 1085 m 1,0,-1
 1047 813 l 1,1,2
 932 861 932 861 825 885 c 128,-1,3
 718 909 718 909 623 909 c 0,4,5
 521 909 521 909 471.5 883.5 c 128,-1,6
 422 858 422 858 422 805 c 0,7,8
 422 762 422 762 459.5 739 c 128,-1,9
 497 716 497 716 594 705 c 2,10,-1
 657 696 l 1,11,12
 932 661 932 661 1027 581 c 128,-1,13
 1122 501 1122 501 1122 330 c 0,14,15
 1122 151 1122 151 990 61 c 128,-1,16
 858 -29 858 -29 596 -29 c 0,17,18
 485 -29 485 -29 366.5 -11.5 c 128,-1,19
 248 6 248 6 123 41 c 1,20,-1
 123 313 l 1,21,22
 230 261 230 261 342.5 235 c 128,-1,23
 455 209 455 209 571 209 c 0,24,25
 676 209 676 209 729 238 c 128,-1,26
 782 267 782 267 782 324 c 0,27,28
 782 372 782 372 745.5 395.5 c 128,-1,29
 709 419 709 419 600 432 c 2,30,-1
 537 440 l 2,31,32
 298 470 298 470 202 551 c 128,-1,33
 106 632 106 632 106 797 c 0,34,35
 106 975 106 975 228 1061 c 128,-1,36
 350 1147 350 1147 602 1147 c 0,37,38
 701 1147 701 1147 810 1132 c 128,-1,39
 919 1117 919 1117 1047 1085 c 1,0,-1
EndSplineSet
EndChar

StartChar: t
Encoding: 116 116 87
Width: 979
Flags: W
LayerCount: 2
Fore
SplineSet
563 1438 m 1,0,-1
 563 1120 l 1,1,-1
 932 1120 l 1,2,-1
 932 864 l 1,3,-1
 563 864 l 1,4,-1
 563 389 l 2,5,6
 563 311 563 311 594 283.5 c 128,-1,7
 625 256 625 256 717 256 c 2,8,-1
 901 256 l 1,9,-1
 901 0 l 1,10,-1
 594 0 l 2,11,12
 382 0 382 0 293.5 88.5 c 128,-1,13
 205 177 205 177 205 389 c 2,14,-1
 205 864 l 1,15,-1
 27 864 l 1,16,-1
 27 1120 l 1,17,-1
 205 1120 l 1,18,-1
 205 1438 l 1,19,-1
 563 1438 l 1,0,-1
EndSplineSet
EndChar

StartChar: u
Encoding: 117 117 88
Width: 1458
Flags: W
LayerCount: 2
Fore
SplineSet
160 436 m 2,0,-1
 160 1120 l 1,1,-1
 520 1120 l 1,2,-1
 520 1008 l 2,3,4
 520 917 520 917 519 779.5 c 128,-1,5
 518 642 518 642 518 596 c 0,6,7
 518 461 518 461 525 401.5 c 128,-1,8
 532 342 532 342 549 315 c 0,9,10
 571 280 571 280 606.5 261 c 128,-1,11
 642 242 642 242 688 242 c 0,12,13
 800 242 800 242 864 328 c 128,-1,14
 928 414 928 414 928 567 c 2,15,-1
 928 1120 l 1,16,-1
 1286 1120 l 1,17,-1
 1286 0 l 1,18,-1
 928 0 l 1,19,-1
 928 162 l 1,20,21
 847 64 847 64 756.5 17.5 c 128,-1,22
 666 -29 666 -29 557 -29 c 0,23,24
 363 -29 363 -29 261.5 90 c 128,-1,25
 160 209 160 209 160 436 c 2,0,-1
EndSplineSet
EndChar

StartChar: v
Encoding: 118 118 89
Width: 1335
Flags: W
LayerCount: 2
Fore
SplineSet
31 1120 m 1,0,-1
 389 1120 l 1,1,-1
 668 346 l 1,2,-1
 946 1120 l 1,3,-1
 1305 1120 l 1,4,-1
 864 0 l 1,5,-1
 471 0 l 1,6,-1
 31 1120 l 1,0,-1
EndSplineSet
EndChar

StartChar: w
Encoding: 119 119 90
Width: 1892
Flags: W
LayerCount: 2
Fore
SplineSet
72 1120 m 1,0,-1
 420 1120 l 1,1,-1
 608 348 l 1,2,-1
 797 1120 l 1,3,-1
 1096 1120 l 1,4,-1
 1284 356 l 1,5,-1
 1473 1120 l 1,6,-1
 1821 1120 l 1,7,-1
 1526 0 l 1,8,-1
 1135 0 l 1,9,-1
 946 770 l 1,10,-1
 758 0 l 1,11,-1
 367 0 l 1,12,-1
 72 1120 l 1,0,-1
EndSplineSet
EndChar

StartChar: x
Encoding: 120 120 91
Width: 1321
Flags: W
LayerCount: 2
Fore
SplineSet
455 573 m 1,0,-1
 51 1120 l 1,1,-1
 430 1120 l 1,2,-1
 659 788 l 1,3,-1
 891 1120 l 1,4,-1
 1270 1120 l 1,5,-1
 866 575 l 1,6,-1
 1290 0 l 1,7,-1
 911 0 l 1,8,-1
 659 354 l 1,9,-1
 410 0 l 1,10,-1
 31 0 l 1,11,-1
 455 573 l 1,0,-1
EndSplineSet
EndChar

StartChar: y
Encoding: 121 121 92
Width: 1335
Flags: W
LayerCount: 2
Fore
SplineSet
25 1120 m 1,0,-1
 383 1120 l 1,1,-1
 684 360 l 1,2,-1
 940 1120 l 1,3,-1
 1298 1120 l 1,4,-1
 827 -106 l 2,5,6
 756 -293 756 -293 661.5 -367.5 c 128,-1,7
 567 -442 567 -442 412 -442 c 2,8,-1
 205 -442 l 1,9,-1
 205 -207 l 1,10,-1
 317 -207 l 2,11,12
 408 -207 408 -207 449.5 -178 c 128,-1,13
 491 -149 491 -149 514 -74 c 2,14,-1
 524 -43 l 1,15,-1
 25 1120 l 1,0,-1
EndSplineSet
EndChar

StartChar: z
Encoding: 122 122 93
Width: 1192
Flags: W
LayerCount: 2
Fore
SplineSet
117 1120 m 1,0,-1
 1094 1120 l 1,1,-1
 1094 870 l 1,2,-1
 504 256 l 1,3,-1
 1094 256 l 1,4,-1
 1094 0 l 1,5,-1
 92 0 l 1,6,-1
 92 250 l 1,7,-1
 682 864 l 1,8,-1
 117 864 l 1,9,-1
 117 1120 l 1,0,-1
EndSplineSet
EndChar

StartChar: braceleft
Encoding: 123 123 94
Width: 1458
Flags: W
LayerCount: 2
Fore
SplineSet
1202 -109 m 1,0,-1
 1202 -334 l 1,1,-1
 985 -334 l 2,2,3
 767 -334 767 -334 667 -246 c 128,-1,4
 567 -158 567 -158 567 35 c 2,5,-1
 567 227 l 2,6,7
 567 377 567 377 513 435.5 c 128,-1,8
 459 494 459 494 317 494 c 2,9,-1
 256 494 l 1,10,-1
 256 717 l 1,11,-1
 317 717 l 2,12,13
 459 717 459 717 513 775 c 128,-1,14
 567 833 567 833 567 983 c 2,15,-1
 567 1188 l 2,16,17
 567 1381 567 1381 667 1468.5 c 128,-1,18
 767 1556 767 1556 985 1556 c 2,19,-1
 1202 1556 l 1,20,-1
 1202 1331 l 1,21,-1
 1133 1331 l 2,22,23
 992 1331 992 1331 949.5 1287.5 c 128,-1,24
 907 1244 907 1244 907 1102 c 2,25,-1
 907 936 l 2,26,27
 907 779 907 779 862 708 c 128,-1,28
 817 637 817 637 707 612 c 1,29,30
 818 585 818 585 862.5 514 c 128,-1,31
 907 443 907 443 907 287 c 2,32,-1
 907 121 l 2,33,34
 907 -22 907 -22 949.5 -65.5 c 128,-1,35
 992 -109 992 -109 1133 -109 c 2,36,-1
 1202 -109 l 1,0,-1
EndSplineSet
EndChar

StartChar: bar
Encoding: 124 124 95
Width: 748
Flags: W
LayerCount: 2
Fore
SplineSet
487 1565 m 1,0,-1
 487 -483 l 1,1,-1
 260 -483 l 1,2,-1
 260 1565 l 1,3,-1
 487 1565 l 1,0,-1
EndSplineSet
EndChar

StartChar: braceright
Encoding: 125 125 96
Width: 1458
Flags: W
LayerCount: 2
Fore
SplineSet
256 -109 m 1,0,-1
 326 -109 l 2,1,2
 466 -109 466 -109 508.5 -65.5 c 128,-1,3
 551 -22 551 -22 551 121 c 2,4,-1
 551 287 l 2,5,6
 551 443 551 443 596 514 c 128,-1,7
 641 585 641 585 752 612 c 1,8,9
 641 637 641 637 596 708 c 128,-1,10
 551 779 551 779 551 936 c 2,11,-1
 551 1102 l 2,12,13
 551 1244 551 1244 508.5 1287.5 c 128,-1,14
 466 1331 466 1331 326 1331 c 2,15,-1
 256 1331 l 1,16,-1
 256 1556 l 1,17,-1
 473 1556 l 2,18,19
 691 1556 691 1556 791 1468.5 c 128,-1,20
 891 1381 891 1381 891 1188 c 2,21,-1
 891 983 l 2,22,23
 891 833 891 833 945 775 c 128,-1,24
 999 717 999 717 1141 717 c 2,25,-1
 1202 717 l 1,26,-1
 1202 494 l 1,27,-1
 1141 494 l 2,28,29
 999 494 999 494 945 435.5 c 128,-1,30
 891 377 891 377 891 227 c 2,31,-1
 891 35 l 2,32,33
 891 -158 891 -158 791 -246 c 128,-1,34
 691 -334 691 -334 473 -334 c 2,35,-1
 256 -334 l 1,36,-1
 256 -109 l 1,0,-1
EndSplineSet
EndChar

StartChar: asciitilde
Encoding: 126 126 97
Width: 1716
Flags: W
LayerCount: 2
Fore
SplineSet
1499 850 m 1,0,-1
 1499 606 l 1,1,2
 1393 526 1393 526 1303.5 491.5 c 128,-1,3
 1214 457 1214 457 1118 457 c 0,4,5
 1011 457 1011 457 868 515 c 0,6,7
 854 521 854 521 846 524 c 0,8,9
 839 527 839 527 824 533 c 0,10,11
 669 594 669 594 575 594 c 0,12,13
 487 594 487 594 401 555.5 c 128,-1,14
 315 517 315 517 217 434 c 1,15,-1
 217 678 l 1,16,17
 324 758 324 758 413 792.5 c 128,-1,18
 502 827 502 827 598 827 c 0,19,20
 705 827 705 827 848 769 c 0,21,22
 863 763 863 763 870 760 c 256,23,24
 877 757 877 757 892 751 c 0,25,26
 1047 690 1047 690 1141 690 c 0,27,28
 1227 690 1227 690 1311.5 727.5 c 128,-1,29
 1396 765 1396 765 1499 850 c 1,0,-1
EndSplineSet
EndChar

StartChar: Aring
Encoding: 197 197 99
Width: 1585
Flags: W
LayerCount: 2
Fore
SplineSet
1032 1464 m 1,0,-1
 1575 0 l 1,1,-1
 1188 0 l 1,2,-1
 1094 272 l 1,3,-1
 492 272 l 1,4,-1
 397 0 l 1,5,-1
 10 0 l 1,6,-1
 553 1464 l 1,7,8
 530 1498 530 1498 519 1535.5 c 128,-1,9
 508 1573 508 1573 508 1616 c 0,10,11
 508 1733 508 1733 591.5 1817 c 128,-1,12
 675 1901 675 1901 793 1901 c 0,13,14
 909 1901 909 1901 993 1817 c 128,-1,15
 1077 1733 1077 1733 1077 1616 c 0,16,17
 1077 1569 1077 1569 1066 1531 c 128,-1,18
 1055 1493 1055 1493 1032 1464 c 1,0,-1
662 1616 m 256,19,20
 662 1562 662 1562 700.5 1523.5 c 128,-1,21
 739 1485 739 1485 793 1485 c 256,22,23
 847 1485 847 1485 885.5 1523.5 c 128,-1,24
 924 1562 924 1562 924 1616 c 256,25,26
 924 1670 924 1670 885 1708.5 c 128,-1,27
 846 1747 846 1747 793 1747 c 0,28,29
 739 1747 739 1747 700.5 1708.5 c 128,-1,30
 662 1670 662 1670 662 1616 c 256,19,20
588 549 m 1,31,-1
 997 549 l 1,32,-1
 793 1143 l 1,33,-1
 588 549 l 1,31,-1
EndSplineSet
EndChar

StartChar: dagger
Encoding: 8224 8224 130
Width: 1024
Flags: W
LayerCount: 2
Fore
SplineSet
342 1493 m 1,0,-1
 672 1493 l 1,1,-1
 672 1112 l 1,2,-1
 963 1112 l 1,3,-1
 963 874 l 1,4,-1
 672 874 l 1,5,-1
 672 -197 l 1,6,-1
 342 -197 l 1,7,-1
 342 874 l 1,8,-1
 53 874 l 1,9,-1
 53 1112 l 1,10,-1
 342 1112 l 1,11,-1
 342 1493 l 1,0,-1
EndSplineSet
EndChar

StartChar: degree
Encoding: 176 176 131
Width: 1024
Flags: W
LayerCount: 2
Fore
SplineSet
512 1372 m 0,0,1
 440 1372 440 1372 390 1322 c 128,-1,2
 340 1272 340 1272 340 1200 c 256,3,4
 340 1128 340 1128 389.5 1079 c 128,-1,5
 439 1030 439 1030 512 1030 c 0,6,7
 584 1030 584 1030 634 1079.5 c 128,-1,8
 684 1129 684 1129 684 1200 c 0,9,10
 684 1272 684 1272 633.5 1322 c 128,-1,11
 583 1372 583 1372 512 1372 c 0,0,1
512 1534 m 0,12,13
 578 1534 578 1534 639 1508.5 c 128,-1,14
 700 1483 700 1483 748 1436 c 0,15,16
 795 1388 795 1388 819.5 1328 c 128,-1,17
 844 1268 844 1268 844 1200 c 0,18,19
 844 1133 844 1133 819.5 1072.5 c 128,-1,20
 795 1012 795 1012 750 967 c 0,21,22
 702 919 702 919 640 893.5 c 128,-1,23
 578 868 578 868 510 868 c 0,24,25
 369 868 369 868 273.5 963.5 c 128,-1,26
 178 1059 178 1059 178 1200 c 256,27,28
 178 1341 178 1341 274.5 1437.5 c 128,-1,29
 371 1534 371 1534 512 1534 c 0,12,13
EndSplineSet
EndChar

StartChar: cent
Encoding: 162 162 132
Width: 1425
Flags: W
LayerCount: 2
Fore
SplineSet
702 858 m 1,0,1
 624 814 624 814 585.5 740.5 c 128,-1,2
 547 667 547 667 547 559 c 0,3,4
 547 450 547 450 585.5 376 c 128,-1,5
 624 302 624 302 702 260 c 1,6,-1
 702 858 l 1,0,1
1161 1085 m 1,7,-1
 1161 793 l 1,8,9
 1087 841 1087 841 1015.5 866 c 128,-1,10
 944 891 944 891 879 891 c 2,11,-1
 864 891 l 1,12,-1
 864 228 l 1,13,14
 953 229 953 229 1028.5 254 c 128,-1,15
 1104 279 1104 279 1161 326 c 1,16,-1
 1161 33 l 1,17,18
 1078 3 1078 3 1005 -13 c 128,-1,19
 932 -29 932 -29 874 -29 c 2,20,-1
 864 -29 l 1,21,-1
 864 -313 l 1,22,-1
 702 -313 l 1,23,-1
 702 -25 l 1,24,25
 440 15 440 15 307 166 c 128,-1,26
 174 317 174 317 174 575 c 0,27,28
 174 819 174 819 309 964.5 c 128,-1,29
 444 1110 444 1110 702 1145 c 1,30,-1
 702 1432 l 1,31,-1
 864 1432 l 1,32,-1
 865 1145 l 1,33,34
 936 1142 936 1142 1009.5 1127.5 c 128,-1,35
 1083 1113 1083 1113 1161 1085 c 1,7,-1
EndSplineSet
EndChar

StartChar: sterling
Encoding: 163 163 133
Width: 1425
Flags: W
LayerCount: 2
Fore
SplineSet
1243 1466 m 1,0,-1
 1243 1180 l 1,1,2
 1173 1219 1173 1219 1099 1238 c 128,-1,3
 1025 1257 1025 1257 948 1257 c 0,4,5
 830 1257 830 1257 773.5 1194.5 c 128,-1,6
 717 1132 717 1132 717 1001 c 2,7,-1
 717 831 l 1,8,-1
 1090 831 l 1,9,-1
 1090 592 l 1,10,-1
 717 592 l 1,11,-1
 717 266 l 1,12,-1
 1255 266 l 1,13,-1
 1255 0 l 1,14,-1
 125 0 l 1,15,-1
 125 266 l 1,16,-1
 352 266 l 1,17,-1
 352 592 l 1,18,-1
 158 592 l 1,19,-1
 158 831 l 1,20,-1
 352 831 l 1,21,-1
 352 1001 l 2,22,23
 352 1272 352 1272 479 1396 c 128,-1,24
 606 1520 606 1520 881 1520 c 0,25,26
 973 1520 973 1520 1063.5 1506.5 c 128,-1,27
 1154 1493 1154 1493 1243 1466 c 1,0,-1
EndSplineSet
EndChar

StartChar: section
Encoding: 167 167 134
Width: 1024
Flags: W
LayerCount: 2
Fore
SplineSet
885 1462 m 1,0,-1
 885 1235 l 1,1,2
 786 1274 786 1274 707 1293.5 c 128,-1,3
 628 1313 628 1313 571 1313 c 0,4,5
 496 1313 496 1313 458 1288.5 c 128,-1,6
 420 1264 420 1264 420 1217 c 0,7,8
 420 1150 420 1150 608 1071 c 0,9,10
 634 1060 634 1060 647 1055 c 0,11,12
 857 966 857 966 936.5 879.5 c 128,-1,13
 1016 793 1016 793 1016 668 c 0,14,15
 1016 551 1016 551 959.5 471.5 c 128,-1,16
 903 392 903 392 786 344 c 1,17,18
 863 303 863 303 900.5 246.5 c 128,-1,19
 938 190 938 190 938 117 c 0,20,21
 938 -28 938 -28 817 -111.5 c 128,-1,22
 696 -195 696 -195 483 -195 c 0,23,24
 398 -195 398 -195 307.5 -180.5 c 128,-1,25
 217 -166 217 -166 115 -137 c 1,26,-1
 115 100 l 1,27,28
 230 59 230 59 321 37.5 c 128,-1,29
 412 16 412 16 469 16 c 0,30,31
 534 16 534 16 573 41 c 128,-1,32
 612 66 612 66 612 106 c 0,33,34
 612 176 612 176 432 250 c 0,35,36
 396 264 396 264 377 272 c 0,37,38
 174 359 174 359 94 448.5 c 128,-1,39
 14 538 14 538 14 668 c 0,40,41
 14 772 14 772 69.5 849 c 128,-1,42
 125 926 125 926 238 977 c 1,43,44
 163 1028 163 1028 130.5 1083.5 c 128,-1,45
 98 1139 98 1139 98 1214 c 0,46,47
 98 1358 98 1358 212.5 1439 c 128,-1,48
 327 1520 327 1520 528 1520 c 0,49,50
 612 1520 612 1520 702 1505.5 c 128,-1,51
 792 1491 792 1491 885 1462 c 1,0,-1
434 856 m 1,52,53
 366 828 366 828 332.5 790 c 128,-1,54
 299 752 299 752 299 702 c 0,55,56
 299 635 299 635 360.5 586 c 128,-1,57
 422 537 422 537 604 471 c 1,58,59
 669 494 669 494 704 533.5 c 128,-1,60
 739 573 739 573 739 625 c 0,61,62
 739 692 739 692 670 745 c 128,-1,63
 601 798 601 798 434 856 c 1,52,53
EndSplineSet
EndChar

StartChar: bullet
Encoding: 8226 8226 135
Width: 1309
Flags: W
LayerCount: 2
Fore
SplineSet
295 762 m 256,0,1
 295 836 295 836 321.5 901 c 128,-1,2
 348 966 348 966 399 1016 c 0,3,4
 452 1067 452 1067 517 1093.5 c 128,-1,5
 582 1120 582 1120 655 1120 c 256,6,7
 728 1120 728 1120 793.5 1093 c 128,-1,8
 859 1066 859 1066 909 1016 c 0,9,10
 961 964 961 964 987.5 899.5 c 128,-1,11
 1014 835 1014 835 1014 762 c 0,12,13
 1014 688 1014 688 987 622.5 c 128,-1,14
 960 557 960 557 909 506 c 256,15,16
 858 455 858 455 792.5 428 c 128,-1,17
 727 401 727 401 653 401 c 0,18,19
 580 401 580 401 515 428 c 128,-1,20
 450 455 450 455 399 506 c 0,21,22
 349 557 349 557 322 622.5 c 128,-1,23
 295 688 295 688 295 762 c 256,0,1
EndSplineSet
EndChar

StartChar: paragraph
Encoding: 182 182 136
Width: 1303
Flags: W
LayerCount: 2
Fore
SplineSet
604 1493 m 2,0,-1
 1124 1493 l 1,1,-1
 1124 -197 l 1,2,-1
 934 -197 l 1,3,-1
 934 1346 l 1,4,-1
 745 1346 l 1,5,-1
 745 -197 l 1,6,-1
 555 -197 l 1,7,-1
 555 649 l 1,8,9
 351 674 351 674 240 783.5 c 128,-1,10
 129 893 129 893 129 1071 c 0,11,12
 129 1261 129 1261 259 1377 c 128,-1,13
 389 1493 389 1493 604 1493 c 2,0,-1
EndSplineSet
EndChar

StartChar: germandbls
Encoding: 223 223 137
Width: 1473
Flags: W
LayerCount: 2
Fore
SplineSet
172 1114 m 2,0,1
 172 1336 172 1336 307 1446 c 128,-1,2
 442 1556 442 1556 715 1556 c 0,3,4
 977 1556 977 1556 1111 1444 c 128,-1,5
 1245 1332 1245 1332 1245 1114 c 2,6,-1
 1245 1043 l 1,7,8
 1094 1033 1094 1033 1022 994 c 128,-1,9
 950 955 950 955 950 881 c 0,10,11
 950 844 950 844 974.5 815.5 c 128,-1,12
 999 787 999 787 1092 735 c 2,13,-1
 1161 698 l 2,14,15
 1277 634 1277 634 1330.5 549.5 c 128,-1,16
 1384 465 1384 465 1384 348 c 0,17,18
 1384 159 1384 159 1269.5 65 c 128,-1,19
 1155 -29 1155 -29 924 -29 c 0,20,21
 859 -29 859 -29 790 -16.5 c 128,-1,22
 721 -4 721 -4 647 20 c 1,23,-1
 647 264 l 1,24,25
 703 237 703 237 760.5 223 c 128,-1,26
 818 209 818 209 872 209 c 0,27,28
 944 209 944 209 988 245 c 128,-1,29
 1032 281 1032 281 1032 338 c 0,30,31
 1032 385 1032 385 1004.5 419 c 128,-1,32
 977 453 977 453 879 508 c 2,33,-1
 809 547 l 2,34,35
 721 596 721 596 679 663.5 c 128,-1,36
 637 731 637 731 637 821 c 0,37,38
 637 937 637 937 706.5 1016 c 128,-1,39
 776 1095 776 1095 921 1145 c 1,40,41
 920 1230 920 1230 872 1274.5 c 128,-1,42
 824 1319 824 1319 733 1319 c 0,43,44
 632 1319 632 1319 581 1264 c 128,-1,45
 530 1209 530 1209 530 1100 c 2,46,-1
 530 0 l 1,47,-1
 172 0 l 1,48,-1
 172 1114 l 2,0,1
EndSplineSet
EndChar

StartChar: registered
Encoding: 174 174 138
Width: 2048
Flags: W
LayerCount: 2
Fore
SplineSet
1024 1331 m 256,0,1
 903 1331 903 1331 799 1287.5 c 128,-1,2
 695 1244 695 1244 608 1157 c 256,3,4
 521 1070 521 1070 477.5 966.5 c 128,-1,5
 434 863 434 863 434 741 c 0,6,7
 434 620 434 620 477.5 516.5 c 128,-1,8
 521 413 521 413 608 326 c 0,9,10
 694 240 694 240 798.5 197 c 128,-1,11
 903 154 903 154 1024 154 c 0,12,13
 1147 154 1147 154 1250 196.5 c 128,-1,14
 1353 239 1353 239 1440 326 c 256,15,16
 1527 413 1527 413 1570.5 516.5 c 128,-1,17
 1614 620 1614 620 1614 741 c 0,18,19
 1614 863 1614 863 1570.5 966.5 c 128,-1,20
 1527 1070 1527 1070 1440 1157 c 0,21,22
 1352 1245 1352 1245 1248.5 1288 c 128,-1,23
 1145 1331 1145 1331 1024 1331 c 256,0,1
967 1036 m 2,24,-1
 932 1036 l 1,25,-1
 932 829 l 1,26,-1
 967 829 l 2,27,28
 1045 829 1045 829 1084.5 855.5 c 128,-1,29
 1124 882 1124 882 1124 934 c 256,30,31
 1124 986 1124 986 1085.5 1011 c 128,-1,32
 1047 1036 1047 1036 967 1036 c 2,24,-1
1004 1174 m 2,33,34
 1180 1174 1180 1174 1267 1114.5 c 128,-1,35
 1354 1055 1354 1055 1354 934 c 0,36,37
 1354 848 1354 848 1301.5 792 c 128,-1,38
 1249 736 1249 736 1153 719 c 1,39,40
 1194 697 1194 697 1229.5 657 c 128,-1,41
 1265 617 1265 617 1294 559 c 2,42,-1
 1405 338 l 1,43,-1
 1176 338 l 1,44,-1
 1069 551 l 2,45,46
 1031 629 1031 629 1002 661.5 c 128,-1,47
 973 694 973 694 944 694 c 2,48,-1
 932 694 l 1,49,-1
 932 338 l 1,50,-1
 719 338 l 1,51,-1
 719 1174 l 1,52,-1
 1004 1174 l 2,33,34
1024 1485 m 256,53,54
 1176 1485 1176 1485 1307.5 1430 c 128,-1,55
 1439 1375 1439 1375 1548 1266 c 256,56,57
 1657 1157 1657 1157 1711 1026 c 128,-1,58
 1765 895 1765 895 1765 741 c 0,59,60
 1765 589 1765 589 1711 458.5 c 128,-1,61
 1657 328 1657 328 1548 219 c 256,62,63
 1439 110 1439 110 1307.5 55 c 128,-1,64
 1176 0 1176 0 1024 0 c 256,65,66
 872 0 872 0 740.5 55 c 128,-1,67
 609 110 609 110 500 219 c 256,68,69
 391 328 391 328 337 458.5 c 128,-1,70
 283 589 283 589 283 741 c 0,71,72
 283 895 283 895 337 1026 c 128,-1,73
 391 1157 391 1157 500 1266 c 256,74,75
 609 1375 609 1375 740.5 1430 c 128,-1,76
 872 1485 872 1485 1024 1485 c 256,53,54
EndSplineSet
EndChar

StartChar: copyright
Encoding: 169 169 139
Width: 2048
Flags: W
LayerCount: 2
Fore
SplineSet
1323 1126 m 1,0,-1
 1323 911 l 1,1,2
 1266 948 1266 948 1210.5 965.5 c 128,-1,3
 1155 983 1155 983 1098 983 c 0,4,5
 985 983 985 983 921.5 919 c 128,-1,6
 858 855 858 855 858 741 c 0,7,8
 858 626 858 626 921 563 c 128,-1,9
 984 500 984 500 1098 500 c 0,10,11
 1162 500 1162 500 1219.5 518 c 128,-1,12
 1277 536 1277 536 1323 571 c 1,13,-1
 1323 358 l 1,14,15
 1258 336 1258 336 1192.5 324.5 c 128,-1,16
 1127 313 1127 313 1065 313 c 0,17,18
 854 313 854 313 727 430 c 128,-1,19
 600 547 600 547 600 741 c 0,20,21
 600 936 600 936 727 1052.5 c 128,-1,22
 854 1169 854 1169 1065 1169 c 0,23,24
 1134 1169 1134 1169 1198 1158.5 c 128,-1,25
 1262 1148 1262 1148 1323 1126 c 1,0,-1
1024 1331 m 256,26,27
 903 1331 903 1331 799 1287.5 c 128,-1,28
 695 1244 695 1244 608 1157 c 256,29,30
 521 1070 521 1070 477.5 966.5 c 128,-1,31
 434 863 434 863 434 741 c 0,32,33
 434 620 434 620 477.5 516.5 c 128,-1,34
 521 413 521 413 608 326 c 0,35,36
 694 240 694 240 798.5 197 c 128,-1,37
 903 154 903 154 1024 154 c 0,38,39
 1147 154 1147 154 1250 196.5 c 128,-1,40
 1353 239 1353 239 1440 326 c 256,41,42
 1527 413 1527 413 1570.5 516.5 c 128,-1,43
 1614 620 1614 620 1614 741 c 0,44,45
 1614 863 1614 863 1570.5 966.5 c 128,-1,46
 1527 1070 1527 1070 1440 1157 c 0,47,48
 1352 1245 1352 1245 1248.5 1288 c 128,-1,49
 1145 1331 1145 1331 1024 1331 c 256,26,27
1024 1485 m 256,50,51
 1176 1485 1176 1485 1307.5 1430 c 128,-1,52
 1439 1375 1439 1375 1548 1266 c 256,53,54
 1657 1157 1657 1157 1711 1026 c 128,-1,55
 1765 895 1765 895 1765 741 c 0,56,57
 1765 589 1765 589 1711 458.5 c 128,-1,58
 1657 328 1657 328 1548 219 c 256,59,60
 1439 110 1439 110 1307.5 55 c 128,-1,61
 1176 0 1176 0 1024 0 c 256,62,63
 872 0 872 0 740.5 55 c 128,-1,64
 609 110 609 110 500 219 c 256,65,66
 391 328 391 328 337 458.5 c 128,-1,67
 283 589 283 589 283 741 c 0,68,69
 283 895 283 895 337 1026 c 128,-1,70
 391 1157 391 1157 500 1266 c 256,71,72
 609 1375 609 1375 740.5 1430 c 128,-1,73
 872 1485 872 1485 1024 1485 c 256,50,51
EndSplineSet
EndChar

StartChar: trademark
Encoding: 8482 8482 140
Width: 2048
Flags: W
LayerCount: 2
Fore
SplineSet
1153 1493 m 1,0,-1
 1272 1266 l 1,1,-1
 1391 1493 l 1,2,-1
 1618 1493 l 1,3,-1
 1618 915 l 1,4,-1
 1448 915 l 1,5,-1
 1448 1352 l 1,6,-1
 1311 1096 l 1,7,-1
 1235 1096 l 1,8,-1
 1098 1352 l 1,9,-1
 1098 915 l 1,10,-1
 926 915 l 1,11,-1
 926 1493 l 1,12,-1
 1153 1493 l 1,0,-1
813 1493 m 1,13,-1
 813 1350 l 1,14,-1
 639 1350 l 1,15,-1
 639 915 l 1,16,-1
 467 915 l 1,17,-1
 467 1350 l 1,18,-1
 295 1350 l 1,19,-1
 295 1493 l 1,20,-1
 813 1493 l 1,13,-1
EndSplineSet
EndChar

StartChar: acute
Encoding: 180 180 141
Width: 1024
Flags: W
LayerCount: 2
Fore
SplineSet
647 1638 m 1,0,-1
 930 1638 l 1,1,-1
 561 1262 l 1,2,-1
 365 1262 l 1,3,-1
 647 1638 l 1,0,-1
EndSplineSet
EndChar

StartChar: dieresis
Encoding: 168 168 142
Width: 1024
Flags: W
LayerCount: 2
Fore
SplineSet
197 1585 m 1,0,-1
 432 1585 l 1,1,-1
 432 1339 l 1,2,-1
 197 1339 l 1,3,-1
 197 1585 l 1,0,-1
592 1585 m 1,4,-1
 827 1585 l 1,5,-1
 827 1339 l 1,6,-1
 592 1339 l 1,7,-1
 592 1585 l 1,4,-1
EndSplineSet
EndChar

StartChar: notequal
Encoding: 8800 8800 143
Width: 1716
Flags: W
LayerCount: 2
Fore
SplineSet
217 987 m 1,0,-1
 1008 987 l 1,1,-1
 1260 1292 l 1,2,-1
 1409 1167 l 1,3,-1
 1264 987 l 1,4,-1
 1499 987 l 1,5,-1
 1499 752 l 1,6,-1
 1081 752 l 1,7,-1
 907 532 l 1,8,-1
 1499 532 l 1,9,-1
 1499 295 l 1,10,-1
 709 295 l 1,11,-1
 457 -10 l 1,12,-1
 307 117 l 1,13,-1
 453 295 l 1,14,-1
 217 295 l 1,15,-1
 217 532 l 1,16,-1
 641 532 l 1,17,-1
 817 752 l 1,18,-1
 217 752 l 1,19,-1
 217 987 l 1,0,-1
EndSplineSet
EndChar

StartChar: AE
Encoding: 198 198 144
Width: 2222
Flags: W
LayerCount: 2
Fore
SplineSet
891 1237 m 1,0,-1
 635 627 l 1,1,-1
 1012 627 l 1,2,-1
 1012 1237 l 1,3,-1
 891 1237 l 1,0,-1
625 1493 m 1,4,-1
 2050 1493 l 1,5,-1
 2050 1202 l 1,6,-1
 1397 1202 l 1,7,-1
 1397 924 l 1,8,-1
 2011 924 l 1,9,-1
 2011 633 l 1,10,-1
 1397 633 l 1,11,-1
 1397 291 l 1,12,-1
 2073 291 l 1,13,-1
 2073 0 l 1,14,-1
 1012 0 l 1,15,-1
 1012 350 l 1,16,-1
 518 350 l 1,17,-1
 371 0 l 1,18,-1
 0 0 l 1,19,-1
 625 1493 l 1,4,-1
EndSplineSet
EndChar

StartChar: Oslash
Encoding: 216 216 145
Width: 1741
Flags: W
LayerCount: 2
Fore
SplineSet
604 371 m 1,0,1
 656 309 656 309 721.5 279.5 c 128,-1,2
 787 250 787 250 870 250 c 0,3,4
 1047 250 1047 250 1144 380 c 128,-1,5
 1241 510 1241 510 1241 745 c 0,6,7
 1241 813 1241 813 1233.5 871.5 c 128,-1,8
 1226 930 1226 930 1210 979 c 1,9,-1
 604 371 l 1,0,1
1133 1126 m 1,10,11
 1082 1184 1082 1184 1017 1212.5 c 128,-1,12
 952 1241 952 1241 870 1241 c 0,13,14
 694 1241 694 1241 597 1111 c 128,-1,15
 500 981 500 981 500 745 c 0,16,17
 500 681 500 681 507 624.5 c 128,-1,18
 514 568 514 568 528 522 c 1,19,-1
 1133 1126 l 1,10,11
250 244 m 1,20,21
 176 344 176 344 139 469 c 128,-1,22
 102 594 102 594 102 745 c 0,23,24
 102 1108 102 1108 306.5 1314 c 128,-1,25
 511 1520 511 1520 870 1520 c 0,26,27
 1024 1520 1024 1520 1148 1482.5 c 128,-1,28
 1272 1445 1272 1445 1374 1368 c 1,29,-1
 1573 1567 l 1,30,-1
 1686 1452 l 1,31,-1
 1485 1253 l 1,32,33
 1562 1154 1562 1154 1600 1026.5 c 128,-1,34
 1638 899 1638 899 1638 745 c 0,35,36
 1638 383 1638 383 1434 177 c 128,-1,37
 1230 -29 1230 -29 870 -29 c 0,38,39
 717 -29 717 -29 589.5 10.5 c 128,-1,40
 462 50 462 50 360 129 c 1,41,-1
 158 -74 l 1,42,-1
 45 39 l 1,43,-1
 250 244 l 1,20,21
EndSplineSet
EndChar

StartChar: infinity
Encoding: 8734 8734 146
Width: 1706
Flags: W
LayerCount: 2
Fore
SplineSet
956 561 m 1,0,1
 999 494 999 494 1058 460 c 128,-1,2
 1117 426 1117 426 1190 426 c 0,3,4
 1280 426 1280 426 1336.5 476.5 c 128,-1,5
 1393 527 1393 527 1393 606 c 0,6,7
 1393 683 1393 683 1341.5 733.5 c 128,-1,8
 1290 784 1290 784 1214 784 c 0,9,10
 1142 784 1142 784 1082.5 733.5 c 128,-1,11
 1023 683 1023 683 956 561 c 1,0,1
752 657 m 1,12,13
 709 724 709 724 651 757.5 c 128,-1,14
 593 791 593 791 518 791 c 0,15,16
 428 791 428 791 371.5 741 c 128,-1,17
 315 691 315 691 315 612 c 0,18,19
 315 535 315 535 366 484.5 c 128,-1,20
 417 434 417 434 494 434 c 0,21,22
 565 434 565 434 626 486.5 c 128,-1,23
 687 539 687 539 752 657 c 1,12,13
856 442 m 1,24,25
 788 312 788 312 708.5 249 c 128,-1,26
 629 186 629 186 532 186 c 0,27,28
 393 186 393 186 294 307.5 c 128,-1,29
 195 429 195 429 195 608 c 0,30,31
 195 796 195 796 282.5 913 c 128,-1,32
 370 1030 370 1030 510 1030 c 0,33,34
 600 1030 600 1030 676.5 973.5 c 128,-1,35
 753 917 753 917 852 774 c 1,36,37
 923 906 923 906 1002 969 c 128,-1,38
 1081 1032 1081 1032 1176 1032 c 0,39,40
 1316 1032 1316 1032 1414.5 911 c 128,-1,41
 1513 790 1513 790 1513 610 c 0,42,43
 1513 421 1513 421 1425.5 303.5 c 128,-1,44
 1338 186 1338 186 1198 186 c 0,45,46
 1107 186 1107 186 1032 241 c 128,-1,47
 957 296 957 296 856 442 c 1,24,25
EndSplineSet
EndChar

StartChar: plusminus
Encoding: 177 177 147
Width: 1716
Flags: W
LayerCount: 2
Fore
SplineSet
977 1284 m 1,0,-1
 977 930 l 1,1,-1
 1499 930 l 1,2,-1
 1499 694 l 1,3,-1
 977 694 l 1,4,-1
 977 340 l 1,5,-1
 739 340 l 1,6,-1
 739 694 l 1,7,-1
 217 694 l 1,8,-1
 217 930 l 1,9,-1
 739 930 l 1,10,-1
 739 1284 l 1,11,-1
 977 1284 l 1,0,-1
217 238 m 1,12,-1
 1499 238 l 1,13,-1
 1499 0 l 1,14,-1
 217 0 l 1,15,-1
 217 238 l 1,12,-1
EndSplineSet
EndChar

StartChar: lessequal
Encoding: 8804 8804 148
Width: 1716
Flags: W
LayerCount: 2
Fore
SplineSet
1499 238 m 1,0,-1
 1499 0 l 1,1,-1
 217 0 l 1,2,-1
 217 238 l 1,3,-1
 1499 238 l 1,0,-1
1499 948 m 1,4,-1
 602 739 l 1,5,-1
 1499 530 l 1,6,-1
 1499 287 l 1,7,-1
 217 623 l 1,8,-1
 217 858 l 1,9,-1
 1499 1192 l 1,10,-1
 1499 948 l 1,4,-1
EndSplineSet
EndChar

StartChar: greaterequal
Encoding: 8805 8805 149
Width: 1716
Flags: W
LayerCount: 2
Fore
SplineSet
217 238 m 1,0,-1
 1499 238 l 1,1,-1
 1499 0 l 1,2,-1
 217 0 l 1,3,-1
 217 238 l 1,0,-1
217 948 m 1,4,-1
 217 1192 l 1,5,-1
 1499 858 l 1,6,-1
 1499 623 l 1,7,-1
 217 287 l 1,8,-1
 217 530 l 1,9,-1
 1114 739 l 1,10,-1
 217 948 l 1,4,-1
EndSplineSet
EndChar

StartChar: yen
Encoding: 165 165 150
Width: 1425
Flags: W
LayerCount: 2
Fore
SplineSet
1358 416 m 1,0,-1
 903 416 l 1,1,-1
 903 0 l 1,2,-1
 522 0 l 1,3,-1
 522 416 l 1,4,-1
 68 416 l 1,5,-1
 68 610 l 1,6,-1
 522 610 l 1,7,-1
 522 676 l 1,8,-1
 473 762 l 1,9,-1
 68 762 l 1,10,-1
 68 954 l 1,11,-1
 360 954 l 1,12,-1
 25 1493 l 1,13,-1
 424 1493 l 1,14,-1
 713 1032 l 1,15,-1
 1001 1493 l 1,16,-1
 1401 1493 l 1,17,-1
 1065 954 l 1,18,-1
 1358 954 l 1,19,-1
 1358 762 l 1,20,-1
 952 762 l 1,21,-1
 903 676 l 1,22,-1
 903 610 l 1,23,-1
 1358 610 l 1,24,-1
 1358 416 l 1,0,-1
EndSplineSet
EndChar

StartChar: mu
Encoding: 181 181 151
Width: 1507
Flags: W
LayerCount: 2
Fore
SplineSet
174 -428 m 1,0,-1
 174 1120 l 1,1,-1
 535 1120 l 1,2,-1
 535 469 l 2,3,4
 535 353 535 353 585 296.5 c 128,-1,5
 635 240 635 240 737 240 c 0,6,7
 840 240 840 240 890 296.5 c 128,-1,8
 940 353 940 353 940 469 c 2,9,-1
 940 1120 l 1,10,-1
 1300 1120 l 1,11,-1
 1300 371 l 2,12,13
 1300 300 1300 300 1316.5 272 c 128,-1,14
 1333 244 1333 244 1372 244 c 0,15,16
 1390 244 1390 244 1406.5 249 c 128,-1,17
 1423 254 1423 254 1442 266 c 1,18,-1
 1442 16 l 1,19,20
 1389 -7 1389 -7 1342.5 -18 c 128,-1,21
 1296 -29 1296 -29 1251 -29 c 0,22,23
 1162 -29 1162 -29 1105.5 8.5 c 128,-1,24
 1049 46 1049 46 1014 129 c 1,25,26
 967 50 967 50 899.5 10.5 c 128,-1,27
 832 -29 832 -29 743 -29 c 0,28,29
 669 -29 669 -29 617 -5.5 c 128,-1,30
 565 18 565 18 535 66 c 1,31,-1
 535 -428 l 1,32,-1
 174 -428 l 1,0,-1
EndSplineSet
EndChar

StartChar: partialdiff
Encoding: 8706 8706 152
Width: 1114
Flags: W
LayerCount: 2
Fore
SplineSet
766 684 m 1,0,1
 787 797 787 797 798 890 c 128,-1,2
 809 983 809 983 809 1040 c 0,3,4
 809 1127 809 1127 779.5 1188 c 128,-1,5
 750 1249 750 1249 711 1249 c 0,6,7
 676 1249 676 1249 579 1156 c 128,-1,8
 482 1063 482 1063 399 1063 c 0,9,10
 351 1063 351 1063 319 1096.5 c 128,-1,11
 287 1130 287 1130 287 1180 c 0,12,13
 287 1249 287 1249 380 1305.5 c 128,-1,14
 473 1362 473 1362 600 1362 c 0,15,16
 810 1362 810 1362 932.5 1201 c 128,-1,17
 1055 1040 1055 1040 1055 760 c 0,18,19
 1055 416 1055 416 892.5 195.5 c 128,-1,20
 730 -25 730 -25 475 -25 c 0,21,22
 293 -25 293 -25 176 91.5 c 128,-1,23
 59 208 59 208 59 391 c 0,24,25
 59 594 59 594 178.5 727 c 128,-1,26
 298 860 298 860 477 860 c 0,27,28
 578 860 578 860 647.5 817.5 c 128,-1,29
 717 775 717 775 766 684 c 1,0,1
698 532 m 0,30,31
 698 646 698 646 661.5 708 c 128,-1,32
 625 770 625 770 557 770 c 0,33,34
 461 770 461 770 396.5 633.5 c 128,-1,35
 332 497 332 497 332 287 c 0,36,37
 332 171 332 171 368.5 111 c 128,-1,38
 405 51 405 51 475 51 c 0,39,40
 572 51 572 51 635 186.5 c 128,-1,41
 698 322 698 322 698 532 c 0,30,31
EndSplineSet
EndChar

StartChar: summation
Encoding: 8721 8721 153
Width: 1470
Flags: W
LayerCount: 2
Fore
SplineSet
66 1473 m 1,0,-1
 1374 1473 l 1,1,-1
 1374 1208 l 1,2,-1
 496 1208 l 1,3,-1
 1116 563 l 1,4,-1
 494 -127 l 1,5,-1
 1427 -127 l 1,6,-1
 1427 -393 l 1,7,-1
 41 -393 l 1,8,-1
 41 -221 l 1,9,-1
 739 551 l 1,10,-1
 66 1241 l 1,11,-1
 66 1473 l 1,0,-1
EndSplineSet
EndChar

StartChar: product
Encoding: 8719 8719 154
Width: 1612
Flags: W
LayerCount: 2
Fore
SplineSet
150 1473 m 1,0,-1
 1458 1473 l 1,1,-1
 1458 -393 l 1,2,-1
 1114 -393 l 1,3,-1
 1114 1184 l 1,4,-1
 494 1184 l 1,5,-1
 494 -393 l 1,6,-1
 150 -393 l 1,7,-1
 150 1473 l 1,0,-1
EndSplineSet
EndChar

StartChar: pi
Encoding: 960 960 155
Width: 1319
Flags: W
LayerCount: 2
Fore
SplineSet
1354 1092 m 1,0,-1
 1315 868 l 1,1,-1
 1139 868 l 1,2,-1
 985 0 l 1,3,-1
 698 0 l 1,4,-1
 850 868 l 1,5,-1
 612 868 l 1,6,-1
 461 0 l 1,7,-1
 174 0 l 1,8,-1
 326 868 l 1,9,-1
 301 868 l 2,10,11
 246 868 246 868 217 837 c 128,-1,12
 188 806 188 806 178 738 c 1,13,-1
 -35 737 l 1,14,15
 -6 936 -6 936 88 1014 c 128,-1,16
 182 1092 182 1092 399 1092 c 2,17,-1
 1354 1092 l 1,0,-1
EndSplineSet
EndChar

StartChar: integral
Encoding: 8747 8747 156
Width: 1249
Flags: W
LayerCount: 2
Fore
SplineSet
362 -248 m 0,0,1
 461 -248 461 -248 481 419 c 0,2,3
 484 520 484 520 485 573 c 0,4,5
 502 1096 502 1096 615.5 1326 c 128,-1,6
 729 1556 729 1556 965 1556 c 0,7,8
 1070 1556 1070 1556 1135 1503 c 128,-1,9
 1200 1450 1200 1450 1200 1366 c 0,10,11
 1200 1302 1200 1302 1159 1262.5 c 128,-1,12
 1118 1223 1118 1223 1053 1223 c 0,13,14
 989 1223 989 1223 956.5 1261.5 c 128,-1,15
 924 1300 924 1300 924 1374 c 0,16,17
 924 1412 924 1412 916.5 1423 c 128,-1,18
 909 1434 909 1434 891 1434 c 0,19,20
 790 1434 790 1434 767 767 c 0,21,22
 765 707 765 707 764 676 c 0,23,24
 753 347 753 347 733.5 203.5 c 128,-1,25
 714 60 714 60 676 -41 c 0,26,27
 614 -207 614 -207 516.5 -290 c 128,-1,28
 419 -373 419 -373 287 -373 c 0,29,30
 180 -373 180 -373 115.5 -321 c 128,-1,31
 51 -269 51 -269 51 -182 c 0,32,33
 51 -117 51 -117 93 -78 c 128,-1,34
 135 -39 135 -39 205 -39 c 0,35,36
 265 -39 265 -39 297.5 -75 c 128,-1,37
 330 -111 330 -111 330 -178 c 0,38,39
 330 -190 330 -190 328 -202 c 0,40,41
 328 -204 328 -204 328 -205 c 0,42,43
 328 -229 328 -229 336 -238.5 c 128,-1,44
 344 -248 344 -248 362 -248 c 0,0,1
EndSplineSet
EndChar

StartChar: ordfeminine
Encoding: 170 170 157
Width: 1155
Flags: W
LayerCount: 2
Fore
SplineSet
176 573 m 1,0,-1
 989 573 l 1,1,-1
 989 373 l 1,2,-1
 176 373 l 1,3,-1
 176 573 l 1,0,-1
643 1081 m 2,4,5
 510 1081 510 1081 458 1055 c 128,-1,6
 406 1029 406 1029 406 967 c 0,7,8
 406 916 406 916 439 887 c 128,-1,9
 472 858 472 858 530 858 c 0,10,11
 619 858 619 858 676 915 c 128,-1,12
 733 972 733 972 733 1059 c 2,13,-1
 733 1081 l 1,14,-1
 643 1081 l 2,4,5
1001 1165 m 2,15,-1
 1001 717 l 1,16,-1
 756 717 l 1,17,-1
 756 844 l 1,18,19
 701 768 701 768 631 732 c 128,-1,20
 561 696 561 696 467 696 c 0,21,22
 322 696 322 696 240 763 c 128,-1,23
 158 830 158 830 158 946 c 0,24,25
 158 1087 158 1087 263 1153 c 128,-1,26
 368 1219 368 1219 594 1219 c 2,27,-1
 731 1219 l 1,28,-1
 731 1239 l 2,29,30
 731 1295 731 1295 686.5 1324.5 c 128,-1,31
 642 1354 642 1354 557 1354 c 0,32,33
 470 1354 470 1354 387 1336.5 c 128,-1,34
 304 1319 304 1319 225 1284 c 1,35,-1
 225 1464 l 1,36,37
 317 1492 317 1492 401.5 1506 c 128,-1,38
 486 1520 486 1520 561 1520 c 0,39,40
 785 1520 785 1520 893 1432.5 c 128,-1,41
 1001 1345 1001 1345 1001 1165 c 2,15,-1
EndSplineSet
EndChar

StartChar: ordmasculine
Encoding: 186 186 158
Width: 1155
Flags: W
LayerCount: 2
Fore
SplineSet
578 1520 m 0,0,1
 791 1520 791 1520 914.5 1409 c 128,-1,2
 1038 1298 1038 1298 1038 1108 c 256,3,4
 1038 918 1038 918 915 808 c 128,-1,5
 792 698 792 698 578 698 c 256,6,7
 364 698 364 698 240.5 808 c 128,-1,8
 117 918 117 918 117 1108 c 256,9,10
 117 1298 117 1298 240.5 1409 c 128,-1,11
 364 1520 364 1520 578 1520 c 0,0,1
166 573 m 1,12,-1
 989 573 l 1,13,-1
 989 373 l 1,14,-1
 166 373 l 1,15,-1
 166 573 l 1,12,-1
578 1350 m 0,16,17
 494 1350 494 1350 448.5 1287 c 128,-1,18
 403 1224 403 1224 403 1108 c 256,19,20
 403 992 403 992 448.5 930 c 128,-1,21
 494 868 494 868 578 868 c 0,22,23
 661 868 661 868 706.5 930 c 128,-1,24
 752 992 752 992 752 1108 c 256,25,26
 752 1224 752 1224 706.5 1287 c 128,-1,27
 661 1350 661 1350 578 1350 c 0,16,17
EndSplineSet
EndChar

StartChar: Omega
Encoding: 937 937 159
Width: 1575
Flags: W
LayerCount: 2
Fore
SplineSet
1227 256 m 1,0,-1
 1518 256 l 1,1,-1
 1518 0 l 1,2,-1
 909 0 l 1,3,-1
 909 291 l 1,4,5
 1035 377 1035 377 1101 508.5 c 128,-1,6
 1167 640 1167 640 1167 805 c 0,7,8
 1167 1008 1167 1008 1065.5 1124.5 c 128,-1,9
 964 1241 964 1241 786 1241 c 0,10,11
 609 1241 609 1241 507.5 1124.5 c 128,-1,12
 406 1008 406 1008 406 805 c 0,13,14
 406 641 406 641 472 508.5 c 128,-1,15
 538 376 538 376 664 291 c 1,16,-1
 664 0 l 1,17,-1
 55 0 l 1,18,-1
 55 256 l 1,19,-1
 346 256 l 1,20,21
 220 377 220 377 159 516 c 128,-1,22
 98 655 98 655 98 819 c 0,23,24
 98 1132 98 1132 286 1320.5 c 128,-1,25
 474 1509 474 1509 786 1509 c 0,26,27
 1099 1509 1099 1509 1287 1320.5 c 128,-1,28
 1475 1132 1475 1132 1475 819 c 0,29,30
 1475 655 1475 655 1414 516 c 128,-1,31
 1353 377 1353 377 1227 256 c 1,0,-1
EndSplineSet
EndChar

StartChar: ae
Encoding: 230 230 160
Width: 2146
Flags: W
LayerCount: 2
Fore
SplineSet
1679 682 m 1,0,1
 1679 784 1679 784 1619.5 846.5 c 128,-1,2
 1560 909 1560 909 1464 909 c 0,3,4
 1361 909 1361 909 1297 850.5 c 128,-1,5
 1233 792 1233 792 1217 682 c 1,6,-1
 1679 682 l 1,0,1
674 504 m 2,7,8
 562 504 562 504 505.5 466 c 128,-1,9
 449 428 449 428 449 354 c 0,10,11
 449 286 449 286 494.5 247.5 c 128,-1,12
 540 209 540 209 621 209 c 0,13,14
 722 209 722 209 791 281.5 c 128,-1,15
 860 354 860 354 860 463 c 2,16,-1
 860 504 l 1,17,-1
 674 504 l 2,7,8
186 1090 m 1,18,19
 305 1118 305 1118 416.5 1132.5 c 128,-1,20
 528 1147 528 1147 625 1147 c 0,21,22
 775 1147 775 1147 883.5 1108.5 c 128,-1,23
 992 1070 992 1070 1063 991 c 1,24,25
 1140 1068 1140 1068 1242 1107.5 c 128,-1,26
 1344 1147 1344 1147 1466 1147 c 0,27,28
 1731 1147 1731 1147 1889.5 988 c 128,-1,29
 2048 829 2048 829 2048 563 c 2,30,-1
 2048 461 l 1,31,-1
 1210 461 l 1,32,33
 1224 335 1224 335 1301.5 272 c 128,-1,34
 1379 209 1379 209 1520 209 c 0,35,36
 1633 209 1633 209 1751.5 242.5 c 128,-1,37
 1870 276 1870 276 1995 344 c 1,38,-1
 1995 68 l 1,39,40
 1868 20 1868 20 1740.5 -4.5 c 128,-1,41
 1613 -29 1613 -29 1487 -29 c 0,42,43
 1308 -29 1308 -29 1175.5 24.5 c 128,-1,44
 1043 78 1043 78 971 178 c 1,45,46
 870 71 870 71 758.5 21 c 128,-1,47
 647 -29 647 -29 508 -29 c 0,48,49
 314 -29 314 -29 201 69.5 c 128,-1,50
 88 168 88 168 88 336 c 0,51,52
 88 533 88 533 223.5 625 c 128,-1,53
 359 717 359 717 649 717 c 2,54,-1
 860 717 l 1,55,-1
 860 745 l 2,56,57
 860 830 860 830 793 869.5 c 128,-1,58
 726 909 726 909 584 909 c 0,59,60
 469 909 469 909 370 886 c 128,-1,61
 271 863 271 863 186 817 c 1,62,-1
 186 1090 l 1,18,19
EndSplineSet
EndChar

StartChar: oslash
Encoding: 248 248 161
Width: 1407
Flags: W
LayerCount: 2
Fore
SplineSet
856 836 m 1,0,1
 827 864 827 864 789.5 877.5 c 128,-1,2
 752 891 752 891 705 891 c 0,3,4
 586 891 586 891 523.5 805.5 c 128,-1,5
 461 720 461 720 461 559 c 0,6,7
 461 518 461 518 464.5 485.5 c 128,-1,8
 468 453 468 453 475 426 c 1,9,-1
 856 836 l 1,0,1
547 287 m 1,10,11
 578 257 578 257 617.5 242 c 128,-1,12
 657 227 657 227 705 227 c 0,13,14
 822 227 822 227 884 312.5 c 128,-1,15
 946 398 946 398 946 559 c 0,16,17
 946 602 946 602 942.5 635.5 c 128,-1,18
 939 669 939 669 932 698 c 1,19,-1
 547 287 l 1,10,11
223 158 m 1,20,21
 156 236 156 236 122 336 c 128,-1,22
 88 436 88 436 88 559 c 0,23,24
 88 835 88 835 251.5 991 c 128,-1,25
 415 1147 415 1147 705 1147 c 0,26,27
 811 1147 811 1147 900.5 1125 c 128,-1,28
 990 1103 990 1103 1065 1059 c 1,29,-1
 1212 1217 l 1,30,-1
 1321 1116 l 1,31,-1
 1180 967 l 1,32,33
 1250 887 1250 887 1284.5 786 c 128,-1,34
 1319 685 1319 685 1319 559 c 0,35,36
 1319 283 1319 283 1156.5 127 c 128,-1,37
 994 -29 994 -29 705 -29 c 0,38,39
 597 -29 597 -29 506 -6.5 c 128,-1,40
 415 16 415 16 338 61 c 1,41,-1
 190 -94 l 1,42,-1
 78 0 l 1,43,-1
 223 158 l 1,20,21
EndSplineSet
EndChar

StartChar: questiondown
Encoding: 191 191 162
Width: 1188
Flags: W
LayerCount: 2
Fore
SplineSet
487 987 m 1,0,-1
 848 987 l 1,1,-1
 848 938 l 2,2,3
 848 857 848 857 815.5 794 c 128,-1,4
 783 731 783 731 674 631 c 2,5,-1
 610 573 l 2,6,7
 554 522 554 522 528 476 c 128,-1,8
 502 430 502 430 502 383 c 0,9,10
 502 313 502 313 550 273 c 128,-1,11
 598 233 598 233 684 233 c 0,12,13
 765 233 765 233 859.5 267 c 128,-1,14
 954 301 954 301 1055 367 c 1,15,-1
 1055 53 l 1,16,17
 936 11 936 11 834.5 -9 c 128,-1,18
 733 -29 733 -29 641 -29 c 0,19,20
 397 -29 397 -29 269 70.5 c 128,-1,21
 141 170 141 170 141 360 c 0,22,23
 141 459 141 459 180 536.5 c 128,-1,24
 219 614 219 614 313 702 c 2,25,-1
 377 760 l 2,26,27
 445 821 445 821 466 859 c 128,-1,28
 487 897 487 897 487 942 c 2,29,-1
 487 987 l 1,0,-1
848 1137 m 1,30,-1
 487 1137 l 1,31,-1
 487 1493 l 1,32,-1
 848 1493 l 1,33,-1
 848 1137 l 1,30,-1
EndSplineSet
EndChar

StartChar: exclamdown
Encoding: 161 161 163
Width: 934
Flags: W
LayerCount: 2
Fore
SplineSet
287 0 m 1,0,-1
 287 573 l 1,1,-1
 338 991 l 1,2,-1
 596 991 l 1,3,-1
 647 573 l 1,4,-1
 647 0 l 1,5,-1
 287 0 l 1,0,-1
287 1137 m 1,6,-1
 287 1493 l 1,7,-1
 647 1493 l 1,8,-1
 647 1137 l 1,9,-1
 287 1137 l 1,6,-1
EndSplineSet
EndChar

StartChar: logicalnot
Encoding: 172 172 164
Width: 1716
Flags: W
LayerCount: 2
Fore
SplineSet
217 909 m 1,0,-1
 1499 909 l 1,1,-1
 1499 287 l 1,2,-1
 1264 287 l 1,3,-1
 1264 672 l 1,4,-1
 217 672 l 1,5,-1
 217 909 l 1,0,-1
EndSplineSet
EndChar

StartChar: radical
Encoding: 8730 8730 165
Width: 1366
Flags: W
LayerCount: 2
Fore
SplineSet
1155 1714 m 1,0,-1
 1370 1714 l 1,1,-1
 1370 1565 l 1,2,-1
 1274 1565 l 1,3,-1
 684 -41 l 1,4,-1
 565 -41 l 1,5,-1
 258 805 l 1,6,-1
 113 750 l 1,7,-1
 76 879 l 1,8,-1
 436 1006 l 1,9,-1
 659 371 l 1,10,-1
 1155 1714 l 1,0,-1
EndSplineSet
EndChar

StartChar: florin
Encoding: 402 402 166
Width: 1425
Flags: W
LayerCount: 2
Fore
SplineSet
1335 1516 m 1,0,-1
 1335 1262 l 1,1,2
 1289 1291 1289 1291 1247 1305 c 128,-1,3
 1205 1319 1205 1319 1163 1319 c 0,4,5
 1073 1319 1073 1319 1023 1261.5 c 128,-1,6
 973 1204 973 1204 946 1063 c 2,7,-1
 913 895 l 1,8,-1
 1198 895 l 1,9,-1
 1198 657 l 1,10,-1
 866 657 l 1,11,-1
 733 -16 l 2,12,13
 692 -222 692 -222 577.5 -324 c 128,-1,14
 463 -426 463 -426 272 -426 c 0,15,16
 207 -426 207 -426 140.5 -416 c 128,-1,17
 74 -406 74 -406 6 -385 c 1,18,-1
 6 -131 l 1,19,20
 52 -160 52 -160 94.5 -174 c 128,-1,21
 137 -188 137 -188 178 -188 c 0,22,23
 267 -188 267 -188 316.5 -130.5 c 128,-1,24
 366 -73 366 -73 395 68 c 2,25,-1
 512 657 l 1,26,-1
 270 657 l 1,27,-1
 270 895 l 1,28,-1
 559 895 l 1,29,-1
 610 1147 l 2,30,31
 652 1353 652 1353 765.5 1454.5 c 128,-1,32
 879 1556 879 1556 1069 1556 c 0,33,34
 1135 1556 1135 1556 1201 1546 c 128,-1,35
 1267 1536 1267 1536 1335 1516 c 1,0,-1
EndSplineSet
EndChar

StartChar: approxequal
Encoding: 8776 8776 167
Width: 1716
Flags: W
LayerCount: 2
Fore
SplineSet
1499 1059 m 1,0,-1
 1499 815 l 1,1,2
 1393 735 1393 735 1303.5 700.5 c 128,-1,3
 1214 666 1214 666 1118 666 c 0,4,5
 1011 666 1011 666 868 724 c 0,6,7
 854 730 854 730 846 733 c 0,8,9
 839 736 839 736 824 742 c 0,10,11
 669 803 669 803 575 803 c 0,12,13
 487 803 487 803 401 764.5 c 128,-1,14
 315 726 315 726 217 643 c 1,15,-1
 217 887 l 1,16,17
 322 965 322 965 411.5 999.5 c 128,-1,18
 501 1034 501 1034 598 1034 c 0,19,20
 708 1034 708 1034 855 975 c 0,21,22
 865 971 865 971 870 969 c 0,23,24
 878 966 878 966 892 960 c 0,25,26
 1047 899 1047 899 1141 899 c 0,27,28
 1227 899 1227 899 1311.5 936.5 c 128,-1,29
 1396 974 1396 974 1499 1059 c 1,0,-1
1499 641 m 1,30,-1
 1499 397 l 1,31,32
 1393 317 1393 317 1303.5 282.5 c 128,-1,33
 1214 248 1214 248 1118 248 c 0,34,35
 1011 248 1011 248 868 306 c 0,36,37
 854 312 854 312 845 316 c 0,38,39
 839 318 839 318 824 324 c 0,40,41
 669 385 669 385 575 385 c 0,42,43
 487 385 487 385 401 347 c 128,-1,44
 315 309 315 309 217 225 c 1,45,-1
 217 469 l 1,46,47
 324 549 324 549 413 583.5 c 128,-1,48
 502 618 502 618 598 618 c 0,49,50
 705 618 705 618 848 560 c 0,51,52
 863 554 863 554 870 551 c 0,53,54
 878 548 878 548 892 543 c 0,55,56
 1047 481 1047 481 1141 481 c 0,57,58
 1227 481 1227 481 1311.5 518.5 c 128,-1,59
 1396 556 1396 556 1499 641 c 1,30,-1
EndSplineSet
EndChar

StartChar: Delta
Encoding: 8710 8710 168
Width: 1427
Flags: W
LayerCount: 2
Fore
SplineSet
713 1110 m 1,0,-1
 387 256 l 1,1,-1
 1040 256 l 1,2,-1
 713 1110 l 1,0,-1
563 1473 m 1,3,-1
 864 1473 l 1,4,-1
 1427 0 l 1,5,-1
 0 0 l 1,6,-1
 563 1473 l 1,3,-1
EndSplineSet
EndChar

StartChar: guillemotleft
Encoding: 171 171 169
Width: 1323
Flags: W
LayerCount: 2
Fore
SplineSet
651 1063 m 1,0,-1
 651 821 l 1,1,-1
 358 600 l 1,2,-1
 651 379 l 1,3,-1
 651 137 l 1,4,-1
 158 506 l 1,5,-1
 158 692 l 1,6,-1
 651 1063 l 1,0,-1
1130 1063 m 1,7,-1
 1130 821 l 1,8,-1
 838 600 l 1,9,-1
 1130 379 l 1,10,-1
 1130 137 l 1,11,-1
 637 506 l 1,12,-1
 637 692 l 1,13,-1
 1130 1063 l 1,7,-1
EndSplineSet
EndChar

StartChar: guillemotright
Encoding: 187 187 170
Width: 1323
Flags: W
LayerCount: 2
Fore
SplineSet
672 1063 m 1,0,-1
 1165 692 l 1,1,-1
 1165 506 l 1,2,-1
 672 137 l 1,3,-1
 672 379 l 1,4,-1
 965 600 l 1,5,-1
 672 821 l 1,6,-1
 672 1063 l 1,0,-1
193 1063 m 1,7,-1
 684 692 l 1,8,-1
 684 506 l 1,9,-1
 193 137 l 1,10,-1
 193 379 l 1,11,-1
 485 600 l 1,12,-1
 193 821 l 1,13,-1
 193 1063 l 1,7,-1
EndSplineSet
EndChar

StartChar: ellipsis
Encoding: 8230 8230 171
Width: 2048
Flags: W
LayerCount: 2
Fore
SplineSet
1526 387 m 1,0,-1
 1886 387 l 1,1,-1
 1886 0 l 1,2,-1
 1526 0 l 1,3,-1
 1526 387 l 1,0,-1
162 387 m 1,4,-1
 522 387 l 1,5,-1
 522 0 l 1,6,-1
 162 0 l 1,7,-1
 162 387 l 1,4,-1
844 387 m 1,8,-1
 1204 387 l 1,9,-1
 1204 0 l 1,10,-1
 844 0 l 1,11,-1
 844 387 l 1,8,-1
EndSplineSet
EndChar

StartChar: OE
Encoding: 338 338 176
Width: 2390
Flags: W
LayerCount: 2
Fore
SplineSet
1180 1202 m 1,0,-1
 1075 1202 l 2,1,2
 786 1202 786 1202 643 1089 c 128,-1,3
 500 976 500 976 500 748 c 0,4,5
 500 519 500 519 643.5 405 c 128,-1,6
 787 291 787 291 1075 291 c 2,7,-1
 1180 291 l 1,8,-1
 1180 1202 l 1,0,-1
1090 1493 m 2,9,-1
 2218 1493 l 1,10,-1
 2218 1202 l 1,11,-1
 1565 1202 l 1,12,-1
 1565 924 l 1,13,-1
 2179 924 l 1,14,-1
 2179 633 l 1,15,-1
 1565 633 l 1,16,-1
 1565 291 l 1,17,-1
 2241 291 l 1,18,-1
 2241 0 l 1,19,-1
 1090 0 l 2,20,21
 1077 0 1077 0 1053.5 -1 c 128,-1,22
 1030 -2 1030 -2 1018 -2 c 0,23,24
 576 -2 576 -2 339 192.5 c 128,-1,25
 102 387 102 387 102 748 c 0,26,27
 102 1108 102 1108 339 1301.5 c 128,-1,28
 576 1495 576 1495 1018 1495 c 0,29,30
 1029 1495 1029 1495 1053 1494 c 128,-1,31
 1077 1493 1077 1493 1090 1493 c 2,9,-1
EndSplineSet
EndChar

StartChar: oe
Encoding: 339 339 177
Width: 2241
Flags: W
LayerCount: 2
Fore
SplineSet
1774 682 m 1,0,1
 1774 784 1774 784 1714.5 846.5 c 128,-1,2
 1655 909 1655 909 1559 909 c 0,3,4
 1455 909 1455 909 1390 850.5 c 128,-1,5
 1325 792 1325 792 1309 682 c 1,6,-1
 1774 682 l 1,0,1
2142 563 m 2,7,-1
 2142 461 l 1,8,-1
 1305 461 l 1,9,10
 1318 335 1318 335 1396 272 c 128,-1,11
 1474 209 1474 209 1614 209 c 0,12,13
 1727 209 1727 209 1845.5 242.5 c 128,-1,14
 1964 276 1964 276 2089 344 c 1,15,-1
 2089 68 l 1,16,17
 1963 20 1963 20 1835 -4.5 c 128,-1,18
 1707 -29 1707 -29 1581 -29 c 0,19,20
 1416 -29 1416 -29 1309 11.5 c 128,-1,21
 1202 52 1202 52 1130 139 c 1,22,23
 1048 55 1048 55 941.5 13 c 128,-1,24
 835 -29 835 -29 705 -29 c 0,25,26
 415 -29 415 -29 251.5 127 c 128,-1,27
 88 283 88 283 88 559 c 256,28,29
 88 835 88 835 251.5 991 c 128,-1,30
 415 1147 415 1147 705 1147 c 0,31,32
 839 1147 839 1147 942 1106 c 128,-1,33
 1045 1065 1045 1065 1126 979 c 1,34,35
 1208 1066 1208 1066 1307.5 1106.5 c 128,-1,36
 1407 1147 1407 1147 1542 1147 c 0,37,38
 1820 1147 1820 1147 1981 990 c 128,-1,39
 2142 833 2142 833 2142 563 c 2,7,-1
705 891 m 0,40,41
 586 891 586 891 523.5 805.5 c 128,-1,42
 461 720 461 720 461 559 c 256,43,44
 461 398 461 398 523.5 312.5 c 128,-1,45
 586 227 586 227 705 227 c 0,46,47
 822 227 822 227 884 312.5 c 128,-1,48
 946 398 946 398 946 559 c 256,49,50
 946 720 946 720 884 805.5 c 128,-1,51
 822 891 822 891 705 891 c 0,40,41
EndSplineSet
EndChar

StartChar: endash
Encoding: 8211 8211 178
Width: 1024
Flags: W
LayerCount: 2
Fore
SplineSet
0 690 m 1,0,-1
 1024 690 l 1,1,-1
 1024 432 l 1,2,-1
 0 432 l 1,3,-1
 0 690 l 1,0,-1
EndSplineSet
EndChar

StartChar: emdash
Encoding: 8212 8212 179
Width: 2048
Flags: W
LayerCount: 2
Fore
SplineSet
0 690 m 1,0,-1
 2048 690 l 1,1,-1
 2048 432 l 1,2,-1
 0 432 l 1,3,-1
 0 690 l 1,0,-1
EndSplineSet
EndChar

StartChar: quotedblleft
Encoding: 8220 8220 180
Width: 1346
Flags: W
LayerCount: 2
Fore
SplineSet
1057 856 m 1,0,-1
 717 856 l 1,1,-1
 717 1139 l 1,2,-1
 944 1493 l 1,3,-1
 1157 1493 l 1,4,-1
 1057 1139 l 1,5,-1
 1057 856 l 1,0,-1
551 856 m 1,6,-1
 211 856 l 1,7,-1
 211 1141 l 1,8,-1
 438 1493 l 1,9,-1
 651 1493 l 1,10,-1
 551 1141 l 1,11,-1
 551 856 l 1,6,-1
EndSplineSet
EndChar

StartChar: quotedblright
Encoding: 8221 8221 181
Width: 1346
Flags: W
LayerCount: 2
Fore
SplineSet
289 1493 m 1,0,-1
 629 1493 l 1,1,-1
 629 1208 l 1,2,-1
 401 856 l 1,3,-1
 188 856 l 1,4,-1
 289 1208 l 1,5,-1
 289 1493 l 1,0,-1
795 1493 m 1,6,-1
 1135 1493 l 1,7,-1
 1135 1206 l 1,8,-1
 907 856 l 1,9,-1
 694 856 l 1,10,-1
 795 1206 l 1,11,-1
 795 1493 l 1,6,-1
EndSplineSet
EndChar

StartChar: quoteleft
Encoding: 8216 8216 182
Width: 778
Flags: W
LayerCount: 2
Fore
SplineSet
551 856 m 1,0,-1
 211 856 l 1,1,-1
 211 1141 l 1,2,-1
 438 1493 l 1,3,-1
 651 1493 l 1,4,-1
 551 1141 l 1,5,-1
 551 856 l 1,0,-1
EndSplineSet
EndChar

StartChar: quoteright
Encoding: 8217 8217 183
Width: 778
Flags: W
LayerCount: 2
Fore
SplineSet
229 1493 m 1,0,-1
 569 1493 l 1,1,-1
 569 1208 l 1,2,-1
 342 856 l 1,3,-1
 129 856 l 1,4,-1
 229 1208 l 1,5,-1
 229 1493 l 1,0,-1
EndSplineSet
EndChar

StartChar: divide
Encoding: 247 247 184
Width: 1716
Flags: W
LayerCount: 2
Fore
SplineSet
705 395 m 1,0,-1
 1012 395 l 1,1,-1
 1012 86 l 1,2,-1
 705 86 l 1,3,-1
 705 395 l 1,0,-1
705 1198 m 1,4,-1
 1012 1198 l 1,5,-1
 1012 889 l 1,6,-1
 705 889 l 1,7,-1
 705 1198 l 1,4,-1
217 760 m 1,8,-1
 1499 760 l 1,9,-1
 1499 524 l 1,10,-1
 217 524 l 1,11,-1
 217 760 l 1,8,-1
EndSplineSet
EndChar

StartChar: lozenge
Encoding: 9674 9674 185
Width: 1012
Flags: W
LayerCount: 2
Fore
SplineSet
506 1409 m 1,0,-1
 121 592 l 1,1,-1
 506 -233 l 1,2,-1
 891 592 l 1,3,-1
 506 1409 l 1,0,-1
506 1653 m 1,4,-1
 1006 592 l 1,5,-1
 506 -477 l 1,6,-1
 6 592 l 1,7,-1
 506 1653 l 1,4,-1
EndSplineSet
EndChar

StartChar: fraction
Encoding: 8725 8725 188
Width: 342
Flags: W
LayerCount: 2
Fore
SplineSet
-184 -29 m 1,0,-1
 -408 -29 l 1,1,-1
 526 1520 l 1,2,-1
 750 1520 l 1,3,-1
 -184 -29 l 1,0,-1
EndSplineSet
EndChar

StartChar: currency
Encoding: 164 164 189
Width: 1303
Flags: W
LayerCount: 2
Fore
SplineSet
434 268 m 1,0,-1
 227 61 l 1,1,-1
 74 215 l 1,2,-1
 281 422 l 1,3,4
 253 471 253 471 239 524.5 c 128,-1,5
 225 578 225 578 225 641 c 256,6,7
 225 704 225 704 240 758 c 128,-1,8
 255 812 255 812 285 858 c 1,9,-1
 76 1063 l 1,10,-1
 229 1217 l 1,11,-1
 436 1010 l 1,12,13
 484 1040 484 1040 538 1054.5 c 128,-1,14
 592 1069 592 1069 653 1069 c 0,15,16
 707 1069 707 1069 761 1055.5 c 128,-1,17
 815 1042 815 1042 872 1014 c 1,18,-1
 1079 1221 l 1,19,-1
 1231 1067 l 1,20,-1
 1024 860 l 1,21,22
 1053 805 1053 805 1067 750 c 128,-1,23
 1081 695 1081 695 1081 641 c 0,24,25
 1081 578 1081 578 1066.5 525.5 c 128,-1,26
 1052 473 1052 473 1022 426 c 1,27,-1
 1229 219 l 1,28,-1
 1075 66 l 1,29,-1
 868 272 l 1,30,31
 822 242 822 242 769 227.5 c 128,-1,32
 716 213 716 213 653 213 c 0,33,34
 595 213 595 213 541 226.5 c 128,-1,35
 487 240 487 240 434 268 c 1,0,-1
653 422 m 0,36,37
 744 422 744 422 808 485.5 c 128,-1,38
 872 549 872 549 872 641 c 256,39,40
 872 733 872 733 808.5 796.5 c 128,-1,41
 745 860 745 860 653 860 c 0,42,43
 562 860 562 860 498 796.5 c 128,-1,44
 434 733 434 733 434 641 c 0,45,46
 434 548 434 548 497 485 c 128,-1,47
 560 422 560 422 653 422 c 0,36,37
EndSplineSet
EndChar

StartChar: guilsinglleft
Encoding: 8249 8249 190
Width: 844
Flags: W
LayerCount: 2
Fore
SplineSet
651 1063 m 1,0,-1
 651 821 l 1,1,-1
 358 600 l 1,2,-1
 651 379 l 1,3,-1
 651 137 l 1,4,-1
 158 506 l 1,5,-1
 158 692 l 1,6,-1
 651 1063 l 1,0,-1
EndSplineSet
EndChar

StartChar: guilsinglright
Encoding: 8250 8250 191
Width: 844
Flags: W
LayerCount: 2
Fore
SplineSet
193 1063 m 1,0,-1
 686 692 l 1,1,-1
 686 506 l 1,2,-1
 193 137 l 1,3,-1
 193 379 l 1,4,-1
 485 600 l 1,5,-1
 193 821 l 1,6,-1
 193 1063 l 1,0,-1
EndSplineSet
EndChar

StartChar: fi
Encoding: 64257 64257 192
Width: 1518
Flags: W
LayerCount: 2
Fore
SplineSet
985 1556 m 1,0,-1
 1346 1556 l 1,1,-1
 1346 1264 l 1,2,-1
 985 1264 l 1,3,-1
 985 1556 l 1,0,-1
911 1556 m 1,4,-1
 911 1321 l 1,5,-1
 713 1321 l 2,6,7
 638 1321 638 1321 609 1293.5 c 128,-1,8
 580 1266 580 1266 580 1198 c 2,9,-1
 580 1120 l 1,10,-1
 1346 1120 l 1,11,-1
 1346 0 l 1,12,-1
 985 0 l 1,13,-1
 985 864 l 1,14,-1
 580 864 l 1,15,-1
 580 0 l 1,16,-1
 219 0 l 1,17,-1
 219 864 l 1,18,-1
 43 864 l 1,19,-1
 43 1120 l 1,20,-1
 219 1120 l 1,21,-1
 219 1198 l 2,22,23
 219 1381 219 1381 321 1468.5 c 128,-1,24
 423 1556 423 1556 637 1556 c 2,25,-1
 911 1556 l 1,4,-1
EndSplineSet
EndChar

StartChar: fl
Encoding: 64258 64258 193
Width: 1518
Flags: W
LayerCount: 2
Fore
SplineSet
635 1556 m 2,0,-1
 1346 1556 l 1,1,-1
 1346 0 l 1,2,-1
 985 0 l 1,3,-1
 985 1321 l 1,4,-1
 711 1321 l 2,5,6
 635 1321 635 1321 605 1293.5 c 128,-1,7
 575 1266 575 1266 575 1198 c 2,8,-1
 575 1120 l 1,9,-1
 856 1120 l 1,10,-1
 856 864 l 1,11,-1
 575 864 l 1,12,-1
 575 0 l 1,13,-1
 217 0 l 1,14,-1
 217 864 l 1,15,-1
 39 864 l 1,16,-1
 39 1120 l 1,17,-1
 217 1120 l 1,18,-1
 217 1198 l 2,19,20
 217 1381 217 1381 319 1468.5 c 128,-1,21
 421 1556 421 1556 635 1556 c 2,0,-1
EndSplineSet
EndChar

StartChar: daggerdbl
Encoding: 8225 8225 194
Width: 1024
Flags: W
LayerCount: 2
Fore
SplineSet
342 1493 m 1,0,-1
 672 1493 l 1,1,-1
 672 1112 l 1,2,-1
 963 1112 l 1,3,-1
 963 874 l 1,4,-1
 672 874 l 1,5,-1
 672 422 l 1,6,-1
 963 422 l 1,7,-1
 963 184 l 1,8,-1
 672 184 l 1,9,-1
 672 -197 l 1,10,-1
 342 -197 l 1,11,-1
 342 184 l 1,12,-1
 51 184 l 1,13,-1
 51 422 l 1,14,-1
 342 422 l 1,15,-1
 342 874 l 1,16,-1
 53 874 l 1,17,-1
 53 1112 l 1,18,-1
 342 1112 l 1,19,-1
 342 1493 l 1,0,-1
EndSplineSet
EndChar

StartChar: periodcentered
Encoding: 183 183 195
Width: 778
Flags: W
LayerCount: 2
Fore
SplineSet
209 905 m 1,0,-1
 569 905 l 1,1,-1
 569 518 l 1,2,-1
 209 518 l 1,3,-1
 209 905 l 1,0,-1
EndSplineSet
EndChar

StartChar: quotesinglbase
Encoding: 8218 8218 196
Width: 778
Flags: W
LayerCount: 2
Fore
SplineSet
248 387 m 1,0,-1
 588 387 l 1,1,-1
 588 102 l 1,2,-1
 358 -250 l 1,3,-1
 147 -250 l 1,4,-1
 248 102 l 1,5,-1
 248 387 l 1,0,-1
EndSplineSet
EndChar

StartChar: quotedblbase
Encoding: 8222 8222 197
Width: 1346
Flags: W
LayerCount: 2
Fore
SplineSet
248 387 m 1,0,-1
 588 387 l 1,1,-1
 588 102 l 1,2,-1
 358 -250 l 1,3,-1
 147 -250 l 1,4,-1
 248 102 l 1,5,-1
 248 387 l 1,0,-1
754 387 m 1,6,-1
 1094 387 l 1,7,-1
 1094 100 l 1,8,-1
 866 -250 l 1,9,-1
 653 -250 l 1,10,-1
 754 100 l 1,11,-1
 754 387 l 1,6,-1
EndSplineSet
EndChar

StartChar: perthousand
Encoding: 8240 8240 198
Width: 2949
Flags: W
LayerCount: 2
Fore
SplineSet
2503 616 m 0,0,1
 2431 616 2431 616 2392 554.5 c 128,-1,2
 2353 493 2353 493 2353 379 c 0,3,4
 2353 264 2353 264 2392 202.5 c 128,-1,5
 2431 141 2431 141 2503 141 c 0,6,7
 2574 141 2574 141 2612 202.5 c 128,-1,8
 2650 264 2650 264 2650 379 c 0,9,10
 2650 493 2650 493 2612 554.5 c 128,-1,11
 2574 616 2574 616 2503 616 c 0,0,1
2503 784 m 0,12,13
 2689 784 2689 784 2795.5 676 c 128,-1,14
 2902 568 2902 568 2902 379 c 256,15,16
 2902 190 2902 190 2795 80.5 c 128,-1,17
 2688 -29 2688 -29 2503 -29 c 0,18,19
 2317 -29 2317 -29 2209 80.5 c 128,-1,20
 2101 190 2101 190 2101 379 c 0,21,22
 2101 567 2101 567 2208.5 675.5 c 128,-1,23
 2316 784 2316 784 2503 784 c 0,12,13
465 1352 m 0,24,25
 393 1352 393 1352 354 1290 c 128,-1,26
 315 1228 315 1228 315 1114 c 0,27,28
 315 999 315 999 354 936.5 c 128,-1,29
 393 874 393 874 465 874 c 256,30,31
 537 874 537 874 575.5 936.5 c 128,-1,32
 614 999 614 999 614 1114 c 0,33,34
 614 1228 614 1228 575 1290 c 128,-1,35
 536 1352 536 1352 465 1352 c 0,24,25
465 1520 m 256,36,37
 651 1520 651 1520 757.5 1411.5 c 128,-1,38
 864 1303 864 1303 864 1114 c 256,39,40
 864 925 864 925 757.5 816 c 128,-1,41
 651 707 651 707 465 707 c 256,42,43
 279 707 279 707 172.5 816 c 128,-1,44
 66 925 66 925 66 1114 c 256,45,46
 66 1303 66 1303 172.5 1411.5 c 128,-1,47
 279 1520 279 1520 465 1520 c 256,36,37
670 -29 m 1,48,-1
 449 -29 l 1,49,-1
 1382 1520 l 1,50,-1
 1604 1520 l 1,51,-1
 670 -29 l 1,48,-1
1587 784 m 256,52,53
 1773 784 1773 784 1880 676 c 128,-1,54
 1987 568 1987 568 1987 379 c 256,55,56
 1987 190 1987 190 1880 80.5 c 128,-1,57
 1773 -29 1773 -29 1587 -29 c 256,58,59
 1401 -29 1401 -29 1293.5 80.5 c 128,-1,60
 1186 190 1186 190 1186 379 c 0,61,62
 1186 567 1186 567 1293.5 675.5 c 128,-1,63
 1401 784 1401 784 1587 784 c 256,52,53
1587 616 m 256,64,65
 1516 616 1516 616 1477 554.5 c 128,-1,66
 1438 493 1438 493 1438 379 c 0,67,68
 1438 264 1438 264 1476.5 202.5 c 128,-1,69
 1515 141 1515 141 1587 141 c 256,70,71
 1659 141 1659 141 1697 202.5 c 128,-1,72
 1735 264 1735 264 1735 379 c 0,73,74
 1735 493 1735 493 1696.5 554.5 c 128,-1,75
 1658 616 1658 616 1587 616 c 256,64,65
EndSplineSet
EndChar

StartChar: dotlessi
Encoding: 305 305 214
Width: 702
Flags: W
LayerCount: 2
Fore
SplineSet
172 1120 m 1,0,-1
 530 1120 l 1,1,-1
 530 0 l 1,2,-1
 172 0 l 1,3,-1
 172 1120 l 1,0,-1
EndSplineSet
EndChar

StartChar: circumflex
Encoding: 710 710 215
Width: 1024
Flags: W
LayerCount: 2
Fore
SplineSet
391 1638 m 1,0,-1
 633 1638 l 1,1,-1
 889 1262 l 1,2,-1
 711 1262 l 1,3,-1
 512 1487 l 1,4,-1
 313 1262 l 1,5,-1
 135 1262 l 1,6,-1
 391 1638 l 1,0,-1
EndSplineSet
EndChar

StartChar: tilde
Encoding: 732 732 216
Width: 1024
Flags: W
LayerCount: 2
Fore
SplineSet
514 1364 m 2,0,-1
 459 1401 l 2,1,2
 455 1403 455 1403 449 1407 c 0,3,4
 402 1438 402 1438 377 1438 c 0,5,6
 341 1438 341 1438 322 1407 c 128,-1,7
 303 1376 303 1376 303 1317 c 2,8,-1
 303 1309 l 1,9,-1
 164 1309 l 1,10,11
 164 1445 164 1445 215.5 1519 c 128,-1,12
 267 1593 267 1593 360 1593 c 0,13,14
 396 1593 396 1593 432.5 1579.5 c 128,-1,15
 469 1566 469 1566 510 1536 c 2,16,-1
 571 1493 l 2,17,18
 593 1478 593 1478 611.5 1470 c 128,-1,19
 630 1462 630 1462 645 1462 c 0,20,21
 681 1462 681 1462 701 1494 c 128,-1,22
 721 1526 721 1526 721 1583 c 2,23,-1
 721 1591 l 1,24,-1
 860 1591 l 1,25,26
 860 1455 860 1455 808.5 1381 c 128,-1,27
 757 1307 757 1307 664 1307 c 0,28,29
 628 1307 628 1307 594.5 1319 c 128,-1,30
 561 1331 561 1331 514 1364 c 2,0,-1
EndSplineSet
EndChar

StartChar: macron
Encoding: 175 175 217
Width: 1024
Flags: W
LayerCount: 2
Fore
SplineSet
197 1556 m 1,0,-1
 827 1556 l 1,1,-1
 827 1368 l 1,2,-1
 197 1368 l 1,3,-1
 197 1556 l 1,0,-1
EndSplineSet
EndChar

StartChar: breve
Encoding: 728 728 218
Width: 1024
Flags: W
LayerCount: 2
Fore
SplineSet
176 1606 m 1,0,-1
 319 1606 l 1,1,2
 330 1536 330 1536 379.5 1499 c 128,-1,3
 429 1462 429 1462 512 1462 c 256,4,5
 595 1462 595 1462 644.5 1499 c 128,-1,6
 694 1536 694 1536 705 1606 c 1,7,-1
 848 1606 l 1,8,9
 842 1462 842 1462 755 1385.5 c 128,-1,10
 668 1309 668 1309 512 1309 c 256,11,12
 356 1309 356 1309 269 1385.5 c 128,-1,13
 182 1462 182 1462 176 1606 c 1,0,-1
EndSplineSet
EndChar

StartChar: dotaccent
Encoding: 729 729 219
Width: 1024
Flags: W
LayerCount: 2
Fore
SplineSet
375 1585 m 1,0,-1
 649 1585 l 1,1,-1
 649 1339 l 1,2,-1
 375 1339 l 1,3,-1
 375 1585 l 1,0,-1
EndSplineSet
EndChar

StartChar: ring
Encoding: 730 730 220
Width: 1024
Flags: W
LayerCount: 2
Fore
SplineSet
381 1534 m 0,0,1
 381 1479 381 1479 419.5 1441 c 128,-1,2
 458 1403 458 1403 512 1403 c 0,3,4
 567 1403 567 1403 605 1441.5 c 128,-1,5
 643 1480 643 1480 643 1534 c 256,6,7
 643 1588 643 1588 604.5 1626.5 c 128,-1,8
 566 1665 566 1665 512 1665 c 0,9,10
 457 1665 457 1665 419 1626.5 c 128,-1,11
 381 1588 381 1588 381 1534 c 0,0,1
227 1534 m 256,12,13
 227 1652 227 1652 310.5 1735.5 c 128,-1,14
 394 1819 394 1819 512 1819 c 256,15,16
 630 1819 630 1819 713.5 1735.5 c 128,-1,17
 797 1652 797 1652 797 1534 c 256,18,19
 797 1416 797 1416 713.5 1332.5 c 128,-1,20
 630 1249 630 1249 512 1249 c 256,21,22
 394 1249 394 1249 310.5 1332.5 c 128,-1,23
 227 1416 227 1416 227 1534 c 256,12,13
EndSplineSet
EndChar

StartChar: cedilla
Encoding: 184 184 221
Width: 1024
Flags: W
LayerCount: 2
Fore
SplineSet
602 0 m 1,0,1
 660 -62 660 -62 687.5 -115 c 128,-1,2
 715 -168 715 -168 715 -215 c 0,3,4
 715 -310 715 -310 653.5 -355.5 c 128,-1,5
 592 -401 592 -401 465 -401 c 0,6,7
 417 -401 417 -401 366 -394.5 c 128,-1,8
 315 -388 315 -388 263 -375 c 1,9,-1
 262 -223 l 1,10,11
 312 -239 312 -239 353.5 -246.5 c 128,-1,12
 395 -254 395 -254 428 -254 c 0,13,14
 486 -254 486 -254 518.5 -231 c 128,-1,15
 551 -208 551 -208 551 -168 c 0,16,17
 551 -142 551 -142 529.5 -101 c 128,-1,18
 508 -60 508 -60 463 0 c 1,19,-1
 602 0 l 1,0,1
EndSplineSet
EndChar

StartChar: hungarumlaut
Encoding: 733 733 222
Width: 1024
Flags: W
LayerCount: 2
Fore
SplineSet
387 1638 m 1,0,-1
 604 1638 l 1,1,-1
 356 1262 l 1,2,-1
 193 1262 l 1,3,-1
 387 1638 l 1,0,-1
750 1638 m 1,4,-1
 981 1638 l 1,5,-1
 709 1262 l 1,6,-1
 535 1262 l 1,7,-1
 750 1638 l 1,4,-1
EndSplineSet
EndChar

StartChar: ogonek
Encoding: 731 731 223
Width: 1024
Flags: W
LayerCount: 2
Fore
SplineSet
453 0 m 1,0,-1
 594 0 l 1,1,2
 544 -67 544 -67 525 -103.5 c 128,-1,3
 506 -140 506 -140 506 -166 c 0,4,5
 506 -205 506 -205 535.5 -229.5 c 128,-1,6
 565 -254 565 -254 614 -254 c 0,7,8
 653 -254 653 -254 691.5 -246.5 c 128,-1,9
 730 -239 730 -239 770 -223 c 1,10,-1
 770 -379 l 1,11,12
 715 -390 715 -390 668 -395.5 c 128,-1,13
 621 -401 621 -401 580 -401 c 0,14,15
 465 -401 465 -401 403.5 -355 c 128,-1,16
 342 -309 342 -309 342 -223 c 0,17,18
 342 -170 342 -170 369 -115.5 c 128,-1,19
 396 -61 396 -61 453 0 c 1,0,-1
EndSplineSet
EndChar

StartChar: caron
Encoding: 711 711 224
Width: 1024
Flags: W
LayerCount: 2
Fore
SplineSet
391 1262 m 1,0,-1
 135 1638 l 1,1,-1
 313 1638 l 1,2,-1
 512 1411 l 1,3,-1
 711 1638 l 1,4,-1
 889 1638 l 1,5,-1
 633 1262 l 1,6,-1
 391 1262 l 1,0,-1
EndSplineSet
EndChar

StartChar: Lslash
Encoding: 321 321 225
Width: 1315
Flags: W
LayerCount: 2
Fore
SplineSet
199 1493 m 1,0,-1
 584 1493 l 1,1,-1
 584 1077 l 1,2,-1
 838 1262 l 1,3,-1
 981 1069 l 1,4,-1
 584 797 l 1,5,-1
 584 291 l 1,6,-1
 1260 291 l 1,7,-1
 1260 0 l 1,8,-1
 199 0 l 1,9,-1
 199 524 l 1,10,-1
 51 418 l 1,11,-1
 -92 608 l 1,12,-1
 199 805 l 1,13,-1
 199 1493 l 1,0,-1
EndSplineSet
EndChar

StartChar: lslash
Encoding: 322 322 226
Width: 760
Flags: W
LayerCount: 2
Fore
SplineSet
199 1556 m 1,0,-1
 559 1556 l 1,1,-1
 559 1055 l 1,2,-1
 688 1143 l 1,3,-1
 799 989 l 1,4,-1
 559 825 l 1,5,-1
 559 0 l 1,6,-1
 199 0 l 1,7,-1
 199 641 l 1,8,-1
 74 555 l 1,9,-1
 -37 709 l 1,10,-1
 199 872 l 1,11,-1
 199 1556 l 1,0,-1
EndSplineSet
EndChar

StartChar: brokenbar
Encoding: 166 166 231
Width: 748
Flags: W
LayerCount: 2
Fore
SplineSet
487 1432 m 1,0,-1
 487 674 l 1,1,-1
 260 674 l 1,2,-1
 260 1432 l 1,3,-1
 487 1432 l 1,0,-1
487 408 m 1,4,-1
 487 -350 l 1,5,-1
 260 -350 l 1,6,-1
 260 408 l 1,7,-1
 487 408 l 1,4,-1
EndSplineSet
EndChar

StartChar: Eth
Encoding: 208 208 232
Width: 1716
Flags: W
LayerCount: 2
Fore
SplineSet
592 1202 m 1,0,-1
 592 881 l 1,1,-1
 827 881 l 1,2,-1
 827 621 l 1,3,-1
 592 621 l 1,4,-1
 592 291 l 1,5,-1
 729 291 l 2,6,7
 965 291 965 291 1089.5 408 c 128,-1,8
 1214 525 1214 525 1214 748 c 0,9,10
 1214 970 1214 970 1090 1086 c 128,-1,11
 966 1202 966 1202 729 1202 c 2,12,-1
 592 1202 l 1,0,-1
207 1493 m 1,13,-1
 612 1493 l 2,14,15
 953 1493 953 1493 1119 1444.5 c 128,-1,16
 1285 1396 1285 1396 1405 1280 c 0,17,18
 1509 1179 1509 1179 1560.5 1047 c 128,-1,19
 1612 915 1612 915 1612 748 c 0,20,21
 1612 579 1612 579 1560.5 446.5 c 128,-1,22
 1509 314 1509 314 1405 213 c 0,23,24
 1284 97 1284 97 1116 48.5 c 128,-1,25
 948 0 948 0 612 0 c 2,26,-1
 207 0 l 1,27,-1
 207 621 l 1,28,-1
 33 621 l 1,29,-1
 33 881 l 1,30,-1
 207 881 l 1,31,-1
 207 1493 l 1,13,-1
EndSplineSet
EndChar

StartChar: eth
Encoding: 240 240 233
Width: 1407
Flags: W
LayerCount: 2
Fore
SplineSet
920 743 m 1,0,1
 865 770 865 770 811 783.5 c 128,-1,2
 757 797 757 797 705 797 c 0,3,4
 588 797 588 797 524.5 730.5 c 128,-1,5
 461 664 461 664 461 543 c 0,6,7
 461 395 461 395 526 311 c 128,-1,8
 591 227 591 227 705 227 c 0,9,10
 822 227 822 227 884 312.5 c 128,-1,11
 946 398 946 398 946 559 c 0,12,13
 946 604 946 604 939.5 650 c 128,-1,14
 933 696 933 696 920 743 c 1,0,1
1096 1100 m 2,15,16
 1213 964 1213 964 1266 835.5 c 128,-1,17
 1319 707 1319 707 1319 559 c 0,18,19
 1319 283 1319 283 1156.5 127 c 128,-1,20
 994 -29 994 -29 705 -29 c 0,21,22
 415 -29 415 -29 251.5 127 c 128,-1,23
 88 283 88 283 88 559 c 0,24,25
 88 790 88 790 238.5 922.5 c 128,-1,26
 389 1055 389 1055 653 1055 c 0,27,28
 699 1055 699 1055 738 1048.5 c 128,-1,29
 777 1042 777 1042 813 1028 c 1,30,-1
 623 1247 l 1,31,-1
 250 1128 l 1,32,-1
 213 1257 l 1,33,-1
 520 1354 l 1,34,-1
 332 1556 l 1,35,-1
 684 1556 l 1,36,-1
 795 1440 l 1,37,-1
 1171 1554 l 1,38,-1
 1206 1425 l 1,39,-1
 891 1329 l 1,40,-1
 1096 1100 l 2,15,16
EndSplineSet
EndChar

StartChar: Thorn
Encoding: 222 222 236
Width: 1511
Flags: W
LayerCount: 2
Fore
SplineSet
573 258 m 1,0,-1
 573 0 l 1,1,-1
 188 0 l 1,2,-1
 188 1493 l 1,3,-1
 573 1493 l 1,4,-1
 573 1233 l 1,5,-1
 827 1233 l 2,6,7
 1112 1233 1112 1233 1264.5 1106.5 c 128,-1,8
 1417 980 1417 980 1417 745 c 0,9,10
 1417 511 1417 511 1264.5 384.5 c 128,-1,11
 1112 258 1112 258 827 258 c 2,12,-1
 573 258 l 1,0,-1
573 956 m 1,13,-1
 573 537 l 1,14,-1
 786 537 l 2,15,16
 898 537 898 537 959 591.5 c 128,-1,17
 1020 646 1020 646 1020 745 c 0,18,19
 1020 846 1020 846 959 901 c 128,-1,20
 898 956 898 956 786 956 c 2,21,-1
 573 956 l 1,13,-1
EndSplineSet
EndChar

StartChar: thorn
Encoding: 254 254 237
Width: 1466
Flags: W
LayerCount: 2
Fore
SplineSet
530 162 m 1,0,-1
 530 -426 l 1,1,-1
 172 -426 l 1,2,-1
 172 1556 l 1,3,-1
 530 1556 l 1,4,-1
 530 956 l 1,5,6
 604 1054 604 1054 694 1100.5 c 128,-1,7
 784 1147 784 1147 901 1147 c 0,8,9
 1108 1147 1108 1147 1241 982.5 c 128,-1,10
 1374 818 1374 818 1374 559 c 256,11,12
 1374 300 1374 300 1241 135.5 c 128,-1,13
 1108 -29 1108 -29 901 -29 c 0,14,15
 784 -29 784 -29 694 17.5 c 128,-1,16
 604 64 604 64 530 162 c 1,0,-1
768 887 m 256,17,18
 653 887 653 887 591.5 802.5 c 128,-1,19
 530 718 530 718 530 559 c 256,20,21
 530 400 530 400 591.5 315.5 c 128,-1,22
 653 231 653 231 768 231 c 256,23,24
 883 231 883 231 943.5 315 c 128,-1,25
 1004 399 1004 399 1004 559 c 256,26,27
 1004 719 1004 719 943.5 803 c 128,-1,28
 883 887 883 887 768 887 c 256,17,18
EndSplineSet
EndChar

StartChar: minus
Encoding: 8722 8722 238
Width: 1716
Flags: W
LayerCount: 2
Fore
SplineSet
217 760 m 1,0,-1
 1499 760 l 1,1,-1
 1499 524 l 1,2,-1
 217 524 l 1,3,-1
 217 760 l 1,0,-1
EndSplineSet
EndChar

StartChar: multiply
Encoding: 215 215 239
Width: 1716
Flags: W
LayerCount: 2
Fore
SplineSet
1460 1075 m 1,0,-1
 1026 641 l 1,1,-1
 1460 209 l 1,2,-1
 1292 41 l 1,3,-1
 858 473 l 1,4,-1
 424 41 l 1,5,-1
 256 209 l 1,6,-1
 690 641 l 1,7,-1
 256 1075 l 1,8,-1
 424 1243 l 1,9,-1
 858 809 l 1,10,-1
 1292 1243 l 1,11,-1
 1460 1075 l 1,0,-1
EndSplineSet
EndChar

StartChar: onesuperior
Encoding: 185 185 240
Width: 897
Flags: W
LayerCount: 2
Fore
SplineSet
141 825 m 1,0,-1
 348 825 l 1,1,-1
 348 1346 l 1,2,-1
 123 1294 l 1,3,-1
 123 1454 l 1,4,-1
 352 1503 l 1,5,-1
 578 1503 l 1,6,-1
 578 825 l 1,7,-1
 782 825 l 1,8,-1
 782 668 l 1,9,-1
 141 668 l 1,10,-1
 141 825 l 1,0,-1
EndSplineSet
EndChar

StartChar: twosuperior
Encoding: 178 178 241
Width: 897
Flags: W
LayerCount: 2
Fore
SplineSet
412 836 m 1,0,-1
 782 836 l 1,1,-1
 782 668 l 1,2,-1
 109 668 l 1,3,-1
 109 821 l 1,4,-1
 422 1087 l 2,5,6
 483 1140 483 1140 509 1180 c 128,-1,7
 535 1220 535 1220 535 1260 c 0,8,9
 535 1310 535 1310 498.5 1341 c 128,-1,10
 462 1372 462 1372 403 1372 c 0,11,12
 341 1372 341 1372 270 1349.5 c 128,-1,13
 199 1327 199 1327 115 1280 c 1,14,-1
 115 1466 l 1,15,16
 202 1493 202 1493 283.5 1506.5 c 128,-1,17
 365 1520 365 1520 440 1520 c 0,18,19
 598 1520 598 1520 688 1455.5 c 128,-1,20
 778 1391 778 1391 778 1280 c 0,21,22
 778 1208 778 1208 742.5 1147.5 c 128,-1,23
 707 1087 707 1087 606 1001 c 2,24,-1
 412 836 l 1,0,-1
EndSplineSet
EndChar

StartChar: threesuperior
Encoding: 179 179 242
Width: 897
Flags: W
LayerCount: 2
Fore
SplineSet
592 1120 m 1,0,1
 684 1102 684 1102 735 1047 c 128,-1,2
 786 992 786 992 786 911 c 0,3,4
 786 782 786 782 687 717.5 c 128,-1,5
 588 653 588 653 387 653 c 0,6,7
 306 653 306 653 232 664.5 c 128,-1,8
 158 676 158 676 90 698 c 1,9,-1
 90 872 l 1,10,11
 156 836 156 836 220 817.5 c 128,-1,12
 284 799 284 799 344 799 c 0,13,14
 439 799 439 799 491 831 c 128,-1,15
 543 863 543 863 543 922 c 0,16,17
 543 986 543 986 489.5 1016.5 c 128,-1,18
 436 1047 436 1047 322 1047 c 2,19,-1
 248 1047 l 1,20,-1
 248 1184 l 1,21,-1
 332 1184 l 2,22,23
 430 1184 430 1184 475 1207.5 c 128,-1,24
 520 1231 520 1231 520 1282 c 0,25,26
 520 1327 520 1327 481 1349.5 c 128,-1,27
 442 1372 442 1372 362 1372 c 0,28,29
 310 1372 310 1372 248.5 1359 c 128,-1,30
 187 1346 187 1346 117 1319 c 1,31,-1
 117 1485 l 1,32,33
 182 1502 182 1502 257.5 1511 c 128,-1,34
 333 1520 333 1520 420 1520 c 0,35,36
 587 1520 587 1520 675.5 1464 c 128,-1,37
 764 1408 764 1408 764 1303 c 0,38,39
 764 1234 764 1234 719 1186 c 128,-1,40
 674 1138 674 1138 592 1120 c 1,0,1
EndSplineSet
EndChar

StartChar: onequarter
Encoding: 188 188 243
Width: 2120
Flags: W
LayerCount: 2
Fore
SplineSet
1593 641 m 1,0,-1
 1354 317 l 1,1,-1
 1593 317 l 1,2,-1
 1593 641 l 1,0,-1
1575 836 m 1,3,-1
 1823 836 l 1,4,-1
 1823 317 l 1,5,-1
 1960 317 l 1,6,-1
 1960 162 l 1,7,-1
 1823 162 l 1,8,-1
 1823 0 l 1,9,-1
 1593 0 l 1,10,-1
 1593 162 l 1,11,-1
 1202 162 l 1,12,-1
 1202 330 l 1,13,-1
 1575 836 l 1,3,-1
733 -29 m 1,14,-1
 510 -29 l 1,15,-1
 1444 1520 l 1,16,-1
 1667 1520 l 1,17,-1
 733 -29 l 1,14,-1
119 825 m 1,18,-1
 324 825 l 1,19,-1
 324 1346 l 1,20,-1
 100 1294 l 1,21,-1
 100 1454 l 1,22,-1
 330 1503 l 1,23,-1
 553 1503 l 1,24,-1
 553 825 l 1,25,-1
 758 825 l 1,26,-1
 758 668 l 1,27,-1
 119 668 l 1,28,-1
 119 825 l 1,18,-1
EndSplineSet
EndChar

StartChar: onehalf
Encoding: 189 189 244
Width: 2120
Flags: W
LayerCount: 2
Fore
SplineSet
1649 168 m 1,0,-1
 2021 168 l 1,1,-1
 2021 0 l 1,2,-1
 1346 0 l 1,3,-1
 1346 154 l 1,4,-1
 1661 422 l 2,5,6
 1723 475 1723 475 1748.5 514 c 128,-1,7
 1774 553 1774 553 1774 592 c 0,8,9
 1774 642 1774 642 1737 673.5 c 128,-1,10
 1700 705 1700 705 1640 705 c 0,11,12
 1578 705 1578 705 1508.5 682.5 c 128,-1,13
 1439 660 1439 660 1354 612 c 1,14,-1
 1354 799 l 1,15,16
 1442 826 1442 826 1522.5 839 c 128,-1,17
 1603 852 1603 852 1677 852 c 0,18,19
 1836 852 1836 852 1925.5 788.5 c 128,-1,20
 2015 725 2015 725 2015 614 c 0,21,22
 2015 542 2015 542 1978.5 480 c 128,-1,23
 1942 418 1942 418 1843 334 c 2,24,-1
 1649 168 l 1,0,-1
733 -29 m 1,25,-1
 510 -29 l 1,26,-1
 1444 1520 l 1,27,-1
 1667 1520 l 1,28,-1
 733 -29 l 1,25,-1
119 825 m 1,29,-1
 324 825 l 1,30,-1
 324 1346 l 1,31,-1
 100 1294 l 1,32,-1
 100 1454 l 1,33,-1
 330 1503 l 1,34,-1
 553 1503 l 1,35,-1
 553 825 l 1,36,-1
 758 825 l 1,37,-1
 758 668 l 1,38,-1
 119 668 l 1,39,-1
 119 825 l 1,29,-1
EndSplineSet
EndChar

StartChar: threequarters
Encoding: 190 190 245
Width: 2120
Flags: W
LayerCount: 2
Fore
SplineSet
1575 836 m 1,0,-1
 1823 836 l 1,1,-1
 1823 317 l 1,2,-1
 1960 317 l 1,3,-1
 1960 162 l 1,4,-1
 1823 162 l 1,5,-1
 1823 0 l 1,6,-1
 1593 0 l 1,7,-1
 1593 162 l 1,8,-1
 1202 162 l 1,9,-1
 1202 330 l 1,10,-1
 1575 836 l 1,0,-1
1593 641 m 1,11,-1
 1354 317 l 1,12,-1
 1593 317 l 1,13,-1
 1593 641 l 1,11,-1
606 1120 m 1,14,15
 699 1102 699 1102 750 1047 c 128,-1,16
 801 992 801 992 801 911 c 0,17,18
 801 782 801 782 701.5 717.5 c 128,-1,19
 602 653 602 653 401 653 c 0,20,21
 320 653 320 653 246 664.5 c 128,-1,22
 172 676 172 676 104 698 c 1,23,-1
 104 872 l 1,24,25
 170 836 170 836 234 817.5 c 128,-1,26
 298 799 298 799 358 799 c 0,27,28
 453 799 453 799 505 831 c 128,-1,29
 557 863 557 863 557 922 c 0,30,31
 557 986 557 986 504 1016.5 c 128,-1,32
 451 1047 451 1047 336 1047 c 2,33,-1
 262 1047 l 1,34,-1
 262 1184 l 1,35,-1
 346 1184 l 2,36,37
 444 1184 444 1184 489.5 1207.5 c 128,-1,38
 535 1231 535 1231 535 1282 c 0,39,40
 535 1327 535 1327 495.5 1349.5 c 128,-1,41
 456 1372 456 1372 377 1372 c 0,42,43
 324 1372 324 1372 263 1359 c 128,-1,44
 202 1346 202 1346 131 1319 c 1,45,-1
 131 1485 l 1,46,47
 196 1502 196 1502 272 1511 c 128,-1,48
 348 1520 348 1520 434 1520 c 0,49,50
 601 1520 601 1520 689.5 1464 c 128,-1,51
 778 1408 778 1408 778 1303 c 0,52,53
 778 1234 778 1234 733 1186 c 128,-1,54
 688 1138 688 1138 606 1120 c 1,14,15
733 -29 m 1,55,-1
 510 -29 l 1,56,-1
 1444 1520 l 1,57,-1
 1667 1520 l 1,58,-1
 733 -29 l 1,55,-1
EndSplineSet
EndChar

StartChar: dcroat
Encoding: 273 273 255
Width: 1466
Flags: W
LayerCount: 2
Fore
SplineSet
934 956 m 1,0,-1
 934 1237 l 1,1,-1
 608 1237 l 1,2,-1
 608 1442 l 1,3,-1
 934 1442 l 1,4,-1
 934 1556 l 1,5,-1
 1294 1556 l 1,6,-1
 1294 1442 l 1,7,-1
 1448 1442 l 1,8,-1
 1448 1237 l 1,9,-1
 1294 1237 l 1,10,-1
 1294 0 l 1,11,-1
 934 0 l 1,12,-1
 934 162 l 1,13,14
 860 63 860 63 771 17 c 128,-1,15
 682 -29 682 -29 565 -29 c 0,16,17
 358 -29 358 -29 225 135.5 c 128,-1,18
 92 300 92 300 92 559 c 256,19,20
 92 818 92 818 225 982.5 c 128,-1,21
 358 1147 358 1147 565 1147 c 0,22,23
 681 1147 681 1147 770.5 1100.5 c 128,-1,24
 860 1054 860 1054 934 956 c 1,0,-1
698 231 m 0,25,26
 813 231 813 231 873.5 315 c 128,-1,27
 934 399 934 399 934 559 c 256,28,29
 934 719 934 719 873.5 803 c 128,-1,30
 813 887 813 887 698 887 c 0,31,32
 584 887 584 887 523.5 803 c 128,-1,33
 463 719 463 719 463 559 c 256,34,35
 463 399 463 399 523.5 315 c 128,-1,36
 584 231 584 231 698 231 c 0,25,26
EndSplineSet
EndChar

StartChar: sfthyphen
Encoding: 173 173 256
Width: 850
Flags: W
LayerCount: 2
Fore
SplineSet
111 735 m 1,0,-1
 739 735 l 1,1,-1
 739 444 l 1,2,-1
 111 444 l 1,3,-1
 111 735 l 1,0,-1
EndSplineSet
EndChar

StartChar: periodcentered
Encoding: 8729 8729 257
Width: 778
Flags: W
LayerCount: 2
Fore
SplineSet
209 905 m 1,0,-1
 569 905 l 1,1,-1
 569 518 l 1,2,-1
 209 518 l 1,3,-1
 209 905 l 1,0,-1
EndSplineSet
EndChar

StartChar: Euro
Encoding: 8364 8364 258
Width: 1425
Flags: W
LayerCount: 2
Fore
SplineSet
1288 82 m 1,0,1
 1193 27 1193 27 1089.5 -1 c 128,-1,2
 986 -29 986 -29 874 -29 c 0,3,4
 612 -29 612 -29 432.5 101.5 c 128,-1,5
 253 232 253 232 178 477 c 1,6,-1
 -39 477 l 1,7,-1
 49 672 l 1,8,-1
 147 672 l 1,9,10
 146 686 146 686 145.5 701.5 c 128,-1,11
 145 717 145 717 145 745 c 0,12,13
 145 774 145 774 145.5 790 c 128,-1,14
 146 806 146 806 147 821 c 1,15,-1
 -39 821 l 1,16,-1
 49 1016 l 1,17,-1
 178 1016 l 1,18,19
 255 1262 255 1262 433.5 1391 c 128,-1,20
 612 1520 612 1520 874 1520 c 0,21,22
 986 1520 986 1520 1089.5 1492 c 128,-1,23
 1193 1464 1193 1464 1288 1409 c 1,24,-1
 1288 1100 l 1,25,26
 1207 1178 1207 1178 1115 1217.5 c 128,-1,27
 1023 1257 1023 1257 924 1257 c 0,28,29
 797 1257 797 1257 707.5 1195.5 c 128,-1,30
 618 1134 618 1134 573 1016 c 1,31,-1
 1112 1016 l 1,32,-1
 1026 821 l 1,33,-1
 533 821 l 1,34,35
 531 805 531 805 530.5 787 c 128,-1,36
 530 769 530 769 530 733 c 0,37,38
 530 720 530 720 530.5 704.5 c 128,-1,39
 531 689 531 689 532 672 c 1,40,-1
 961 672 l 1,41,-1
 872 477 l 1,42,-1
 573 477 l 1,43,44
 623 355 623 355 710.5 294 c 128,-1,45
 798 233 798 233 924 233 c 0,46,47
 1023 233 1023 233 1113.5 272.5 c 128,-1,48
 1204 312 1204 312 1288 391 c 1,49,-1
 1288 82 l 1,0,1
EndSplineSet
EndChar

StartChar: c6459
Encoding: 65539 -1 259
Width: 1024
Flags: W
LayerCount: 2
Fore
SplineSet
197 1526 m 1,0,-1
 432 1526 l 1,1,-1
 432 1280 l 1,2,-1
 197 1280 l 1,3,-1
 197 1526 l 1,0,-1
592 1526 m 1,4,-1
 827 1526 l 1,5,-1
 827 1280 l 1,6,-1
 592 1280 l 1,7,-1
 592 1526 l 1,4,-1
EndSplineSet
EndChar

StartChar: c6460
Encoding: 65540 -1 260
Width: 1024
Flags: W
LayerCount: 2
Fore
SplineSet
563 1526 m 1,0,-1
 846 1526 l 1,1,-1
 561 1262 l 1,2,-1
 365 1262 l 1,3,-1
 563 1526 l 1,0,-1
EndSplineSet
EndChar

StartChar: c6461
Encoding: 65541 -1 261
Width: 1024
Flags: W
LayerCount: 2
Fore
SplineSet
514 1311 m 2,0,-1
 458 1346 l 2,1,2
 455 1348 455 1348 448 1352 c 0,3,4
 403 1378 403 1378 375 1378 c 0,5,6
 343 1378 343 1378 323 1348 c 128,-1,7
 303 1318 303 1318 303 1268 c 2,8,-1
 303 1262 l 1,9,-1
 164 1262 l 1,10,11
 164 1267 164 1267 165 1277 c 128,-1,12
 166 1287 166 1287 166 1292 c 0,13,14
 166 1398 166 1398 219.5 1463 c 128,-1,15
 273 1528 273 1528 360 1528 c 0,16,17
 397 1528 397 1528 434 1515.5 c 128,-1,18
 471 1503 471 1503 510 1479 c 2,19,-1
 569 1440 l 2,20,21
 590 1426 590 1426 609.5 1418.5 c 128,-1,22
 629 1411 629 1411 645 1411 c 0,23,24
 682 1411 682 1411 701.5 1441 c 128,-1,25
 721 1471 721 1471 721 1528 c 1,26,-1
 860 1528 l 1,27,28
 860 1522 860 1522 859 1512 c 128,-1,29
 858 1502 858 1502 858 1497 c 0,30,31
 858 1391 858 1391 804.5 1326.5 c 128,-1,32
 751 1262 751 1262 664 1262 c 0,33,34
 626 1262 626 1262 591 1273 c 128,-1,35
 556 1284 556 1284 514 1311 c 2,0,-1
EndSplineSet
EndChar

StartChar: c6462
Encoding: 65542 -1 262
Width: 1024
Flags: W
LayerCount: 2
Fore
SplineSet
461 1526 m 1,0,-1
 659 1262 l 1,1,-1
 463 1262 l 1,2,-1
 178 1526 l 1,3,-1
 461 1526 l 1,0,-1
EndSplineSet
EndChar

StartChar: c6463
Encoding: 65543 -1 263
Width: 1024
Flags: W
LayerCount: 2
Fore
SplineSet
358 1526 m 1,0,-1
 666 1526 l 1,1,-1
 889 1262 l 1,2,-1
 711 1262 l 1,3,-1
 512 1423 l 1,4,-1
 313 1262 l 1,5,-1
 135 1262 l 1,6,-1
 358 1526 l 1,0,-1
EndSplineSet
EndChar

StartChar: c6466
Encoding: 65544 -1 264
Width: 1024
Flags: W
LayerCount: 2
Fore
SplineSet
358 1262 m 1,0,-1
 135 1526 l 1,1,-1
 313 1526 l 1,2,-1
 512 1364 l 1,3,-1
 711 1526 l 1,4,-1
 889 1526 l 1,5,-1
 666 1262 l 1,6,-1
 358 1262 l 1,0,-1
EndSplineSet
EndChar

StartChar: c6467
Encoding: 65545 -1 265
Width: 1024
Flags: W
LayerCount: 2
Fore
SplineSet
176 1526 m 1,0,-1
 319 1526 l 1,1,2
 340 1465 340 1465 388 1435 c 128,-1,3
 436 1405 436 1405 512 1405 c 256,4,5
 588 1405 588 1405 636 1435 c 128,-1,6
 684 1465 684 1465 705 1526 c 1,7,-1
 848 1526 l 1,8,9
 832 1397 832 1397 746 1329.5 c 128,-1,10
 660 1262 660 1262 512 1262 c 256,11,12
 364 1262 364 1262 278 1329.5 c 128,-1,13
 192 1397 192 1397 176 1526 c 1,0,-1
EndSplineSet
EndChar

StartChar: c6468
Encoding: 65546 -1 266
Width: 1024
Flags: W
LayerCount: 2
Fore
SplineSet
375 1526 m 1,0,-1
 649 1526 l 1,1,-1
 649 1280 l 1,2,-1
 375 1280 l 1,3,-1
 375 1526 l 1,0,-1
EndSplineSet
EndChar

StartChar: uni2600
Encoding: 9728 9728 267
Width: 2048
Flags: W
LayerCount: 2
Fore
SplineSet
906.314453125 636.37890625 m 1052,0,-1
772.44140625 467.348632812 m 4,1,2
 772.314453125 468.37890625 772.314453125 468.37890625 771.84765625 468.71484375 c 4,3,4
 776.314453125 465.37890625 776.314453125 465.37890625 774.491210938 466.600585938 c 4,5,6
 773.314453125 467.37890625 773.314453125 467.37890625 772.44140625 467.348632812 c 4,1,2
1257.02148438 473.459960938 m 132,-1,8
 1261.75488281 478.690429688 1261.75488281 478.690429688 1263.0625 478.690429688 c 132,-1,9
 1264.37011719 478.690429688 1264.37011719 478.690429688 1259.63671875 473.459960938 c 132,-1,10
 1254.90234375 468.228515625 1254.90234375 468.228515625 1253.59570312 468.228515625 c 132,-1,7
 1252.28710938 468.228515625 1252.28710938 468.228515625 1257.02148438 473.459960938 c 132,-1,8
912.61328125 553.706054688 m 5,11,12
 916.046875 555.080078125 916.046875 555.080078125 917.626953125 553.5 c 5,13,-1
 914.193359375 552.126953125 l 5,14,-1
 912.61328125 553.706054688 l 5,11,12
1108.76464844 553.706054688 m 5,15,16
 1112.19726562 555.081054688 1112.19726562 555.081054688 1113.77734375 553.5 c 5,17,-1
 1110.34472656 552.126953125 l 5,18,-1
 1108.76464844 553.706054688 l 5,15,16
863.619140625 603.13671875 m 5,19,-1
 865.19921875 604.716796875 l 5,20,21
 866.573242188 601.286132812 866.573242188 601.286132812 864.993164062 599.704101562 c 5,22,-1
 863.619140625 603.13671875 l 5,19,-1
963.001953125 603.13671875 m 5,23,-1
 964.58203125 604.716796875 l 5,24,25
 965.95703125 601.28515625 965.95703125 601.28515625 964.375976562 599.704101562 c 5,26,-1
 963.001953125 603.13671875 l 5,23,-1
1059.76953125 603.13671875 m 5,27,-1
 1061.34960938 604.716796875 l 5,28,29
 1062.72460938 601.28515625 1062.72460938 601.28515625 1061.14355469 599.704101562 c 5,30,-1
 1059.76953125 603.13671875 l 5,27,-1
1159.15234375 603.13671875 m 5,31,-1
 1160.73242188 604.716796875 l 5,32,33
 1162.10742188 601.28515625 1162.10742188 601.28515625 1160.52636719 599.704101562 c 5,34,-1
 1159.15234375 603.13671875 l 5,31,-1
912.61328125 653.08984375 m 5,35,36
 916.047851562 654.462890625 916.047851562 654.462890625 917.626953125 652.8828125 c 5,37,-1
 914.193359375 651.509765625 l 5,38,-1
 912.61328125 653.08984375 l 5,35,36
1108.76464844 653.08984375 m 5,39,40
 1112.19824219 654.462890625 1112.19824219 654.462890625 1113.77734375 652.8828125 c 5,41,-1
 1110.34472656 651.509765625 l 5,42,-1
 1108.76464844 653.08984375 l 5,39,40
471.859375 950.759765625 m 6,43,-1
 472.690429688 958.078125 l 5,44,-1
 472.98828125 956.608398438 l 6,45,46
 474.081054688 949.376953125 474.081054688 949.376953125 472.952148438 943.53125 c 4,47,48
 472.3984375 940.662109375 472.3984375 940.662109375 472.072265625 944.021484375 c 4,49,50
 471.84765625 946.331054688 471.84765625 946.331054688 471.859375 950.759765625 c 6,43,-1
1551.85449219 946.8359375 m 6,51,-1
 1552.640625 952.424804688 l 5,52,-1
 1553.04980469 951.413085938 l 6,53,54
 1554.24707031 946.836914062 1554.24707031 946.836914062 1553.04980469 942.259765625 c 5,55,56
 1552.21484375 944.87109375 1552.21484375 944.87109375 1551.85449219 946.8359375 c 6,51,-1
570.907226562 946.8359375 m 4,57,58
 571.5234375 949.995117188 571.5234375 949.995117188 572.2265625 950.10546875 c 4,59,60
 573.545898438 946.836914062 573.545898438 946.836914062 572.2265625 943.567382812 c 5,61,62
 571.282226562 944.27734375 571.282226562 944.27734375 570.907226562 946.8359375 c 4,57,58
667.674804688 946.8359375 m 4,63,64
 668.291015625 949.995117188 668.291015625 949.995117188 668.994140625 950.10546875 c 4,65,66
 670.313476562 946.836914062 670.313476562 946.836914062 668.994140625 943.567382812 c 4,67,68
 668.203125 941.606445312 668.203125 941.606445312 667.829101562 944.165039062 c 4,69,70
 667.674804688 945.21484375 667.674804688 945.21484375 667.674804688 946.8359375 c 4,63,64
1355.50976562 946.8359375 m 4,71,72
 1356.12597656 949.995117188 1356.12597656 949.995117188 1356.82910156 950.10546875 c 4,73,74
 1358.1484375 946.836914062 1358.1484375 946.836914062 1356.82910156 943.567382812 c 5,75,76
 1355.88476562 944.27734375 1355.88476562 944.27734375 1355.50976562 946.8359375 c 4,71,72
763.375976562 1045.3359375 m 4,77,78
 766.645507812 1046.65527344 766.645507812 1046.65527344 769.9140625 1045.3359375 c 5,79,80
 769.205078125 1044.39160156 769.205078125 1044.39160156 766.64453125 1044.01660156 c 4,81,82
 763.487304688 1044.6328125 763.487304688 1044.6328125 763.375976562 1045.3359375 c 4,77,78
1253.80175781 1045.41601562 m 4,83,84
 1258.43066406 1046.62207031 1258.43066406 1046.62207031 1261.6484375 1045.31933594 c 4,85,86
 1263.17578125 1044.70117188 1263.17578125 1044.70117188 1261.23535156 1044.34472656 c 4,87,88
 1259.79492188 1044.08007812 1259.79492188 1044.08007812 1257.02148438 1044.11328125 c 4,89,90
 1253.6015625 1044.75390625 1253.6015625 1044.75390625 1253.80175781 1045.41601562 c 4,83,84
588.801757812 1290.26464844 m 4,91,92
 588.801757812 1291.08203125 588.801757812 1291.08203125 597.301757812 1298.76464844 c 6,93,-1
 605.801757812 1306.44628906 l 5,94,-1
 598.120117188 1297.94628906 l 6,95,96
 588.801757812 1287.63476562 588.801757812 1287.63476562 588.801757812 1290.26464844 c 4,91,92
986.333984375 85.0810546875 m 132,-1,98
 992.475585938 91.6201171875 992.475585938 91.6201171875 993.784179688 91.6201171875 c 132,-1,99
 995.090820312 91.6201171875 995.090820312 91.6201171875 988.94921875 85.0810546875 c 132,-1,100
 982.805664062 78.54296875 982.805664062 78.54296875 981.499023438 78.54296875 c 132,-1,97
 980.190429688 78.54296875 980.190429688 78.54296875 986.333984375 85.0810546875 c 132,-1,98
1038.30664062 83.1201171875 m 4,101,102
 1034.71679688 87.6982421875 1034.71679688 87.6982421875 1039.29394531 84.107421875 c 132,-1,103
 1043.87109375 80.517578125 1043.87109375 80.517578125 1043.87109375 79.5302734375 c 4,104,105
 1043.87109375 76.0263671875 1043.87109375 76.0263671875 1038.30664062 83.1201171875 c 4,101,102
915.719726562 152.759765625 m 4,106,107
 915.719726562 153.747070312 915.719726562 153.747070312 920.295898438 157.336914062 c 132,-1,108
 924.875 160.927734375 924.875 160.927734375 921.284179688 156.349609375 c 4,109,110
 915.719726562 149.255859375 915.719726562 149.255859375 915.719726562 152.759765625 c 4,106,107
1102.46777344 157.657226562 m 6,111,-1
 1097.48535156 163.541992188 l 5,112,-1
 1103.37011719 158.559570312 l 6,113,114
 1111.38769531 151.772460938 1111.38769531 151.772460938 1108.35253906 151.772460938 c 4,115,116
 1107.45117188 151.772460938 1107.45117188 151.772460938 1102.46777344 157.657226562 c 6,111,-1
776.772460938 462.344726562 m 132,-1,118
 773.182617188 466.922851562 773.182617188 466.922851562 777.759765625 463.33203125 c 4,119,120
 784.854492188 457.767578125 784.854492188 457.767578125 781.349609375 457.767578125 c 4,121,117
 780.362304688 457.767578125 780.362304688 457.767578125 776.772460938 462.344726562 c 132,-1,118
1245.25292969 461.370117188 m 4,122,123
 1245.25292969 462.357421875 1245.25292969 462.357421875 1249.82910156 465.947265625 c 132,-1,124
 1254.40820312 469.538085938 1254.40820312 469.538085938 1250.81640625 464.959960938 c 4,125,126
 1245.25292969 457.865234375 1245.25292969 457.865234375 1245.25292969 461.370117188 c 4,122,123
1263.55957031 479.677734375 m 4,127,128
 1263.55957031 480.665039062 1263.55957031 480.665039062 1268.13671875 484.254882812 c 132,-1,129
 1272.71289062 487.84375 1272.71289062 487.84375 1269.12402344 483.267578125 c 4,130,131
 1263.55957031 476.169921875 1263.55957031 476.169921875 1263.55957031 479.677734375 c 4,127,128
753.234375 485.8828125 m 4,132,133
 749.64453125 490.4609375 749.64453125 490.4609375 754.221679688 486.870117188 c 132,-1,134
 758.798828125 483.280273438 758.798828125 483.280273438 758.798828125 482.29296875 c 4,135,136
 758.798828125 478.7890625 758.798828125 478.7890625 753.234375 485.8828125 c 4,132,133
570.907226562 936.375 m 4,137,138
 571.5234375 939.534179688 571.5234375 939.534179688 572.2265625 939.64453125 c 4,139,140
 573.545898438 936.375976562 573.545898438 936.375976562 572.2265625 933.10546875 c 5,141,142
 571.282226562 933.814453125 571.282226562 933.814453125 570.907226562 936.375 c 4,137,138
1452.61230469 948.14453125 m 6,143,-1
 1453.44335938 955.462890625 l 5,144,-1
 1453.74121094 953.9921875 l 6,145,146
 1454.83398438 946.771484375 1454.83398438 946.771484375 1453.70703125 940.916015625 c 5,147,148
 1452.6015625 943.71484375 1452.6015625 943.71484375 1452.61230469 948.14453125 c 6,143,-1
571.00390625 958.60546875 m 4,149,150
 571.64453125 962.025390625 571.64453125 962.025390625 572.306640625 961.825195312 c 4,151,152
 573.512695312 957.196289062 573.512695312 957.196289062 572.209960938 953.978515625 c 4,153,154
 571.591796875 952.452148438 571.591796875 952.452148438 571.235351562 954.392578125 c 4,155,156
 570.970703125 955.833007812 570.970703125 955.833007812 571.00390625 958.60546875 c 4,149,150
694.599609375 406.114257812 m 6,157,-1
 684.26171875 417.229492188 l 5,158,-1
 695.376953125 406.891601562 l 6,159,160
 708.1640625 394.999023438 708.1640625 394.999023438 705.71484375 394.999023438 c 4,161,162
 704.939453125 394.999023438 704.939453125 394.999023438 694.599609375 406.114257812 c 6,157,-1
1326.328125 404.153320312 m 132,-1,164
 1335.20117188 413.306640625 1335.20117188 413.306640625 1336.5078125 413.306640625 c 132,-1,165
 1337.81640625 413.306640625 1337.81640625 413.306640625 1328.94335938 404.153320312 c 132,-1,166
 1320.07128906 394.999023438 1320.07128906 394.999023438 1318.76367188 394.999023438 c 132,-1,163
 1317.45605469 394.999023438 1317.45605469 394.999023438 1326.328125 404.153320312 c 132,-1,164
570.907226562 925.9140625 m 4,167,168
 571.5234375 929.072265625 571.5234375 929.072265625 572.2265625 929.182617188 c 4,169,170
 573.545898438 925.9140625 573.545898438 925.9140625 572.2265625 922.64453125 c 5,171,172
 571.282226562 923.354492188 571.282226562 923.354492188 570.907226562 925.9140625 c 4,167,168
1452.27734375 931.14453125 m 4,173,174
 1452.89355469 934.302734375 1452.89355469 934.302734375 1453.59667969 934.413085938 c 4,175,176
 1454.91601562 931.14453125 1454.91601562 931.14453125 1453.59667969 927.875 c 5,177,178
 1452.65234375 928.583984375 1452.65234375 928.583984375 1452.27734375 931.14453125 c 4,173,174
1452.27734375 965.143554688 m 4,179,180
 1452.89355469 968.302734375 1452.89355469 968.302734375 1453.59667969 968.413085938 c 4,181,182
 1454.91601562 965.14453125 1454.91601562 965.14453125 1453.59667969 961.875 c 5,183,184
 1452.65234375 962.583984375 1452.65234375 962.583984375 1452.27734375 965.143554688 c 4,179,180
570.701171875 969.28515625 m 5,185,-1
 572.28125 970.865234375 l 5,186,187
 573.654296875 967.432617188 573.654296875 967.432617188 572.07421875 965.852539062 c 5,188,-1
 570.701171875 969.28515625 l 5,185,-1
815.682617188 14.8916015625 m 4,189,190
 818.952148438 16.2109375 818.952148438 16.2109375 822.220703125 14.8916015625 c 5,191,192
 821.51171875 13.947265625 821.51171875 13.947265625 818.952148438 13.572265625 c 4,193,194
 815.793945312 14.1884765625 815.793945312 14.1884765625 815.682617188 14.8916015625 c 4,189,190
1202.75292969 14.8916015625 m 4,195,196
 1206.02148438 16.2109375 1206.02148438 16.2109375 1209.29199219 14.8916015625 c 5,197,198
 1208.58300781 13.947265625 1208.58300781 13.947265625 1206.02246094 13.572265625 c 4,199,200
 1202.86425781 14.1884765625 1202.86425781 14.1884765625 1202.75292969 14.8916015625 c 4,195,196
1452.07128906 922.208984375 m 5,201,-1
 1453.65136719 923.7890625 l 5,202,203
 1455.0234375 920.356445312 1455.0234375 920.356445312 1453.4453125 918.776367188 c 5,204,-1
 1452.07128906 922.208984375 l 5,201,-1
1185.09960938 1013.20703125 m 4,205,206
 1185.09960938 1014.19628906 1185.09960938 1014.19628906 1189.67675781 1017.78417969 c 132,-1,207
 1194.25292969 1021.37304688 1194.25292969 1021.37304688 1190.6640625 1016.796875 c 4,208,209
 1185.09960938 1009.703125 1185.09960938 1009.703125 1185.09960938 1013.20703125 c 4,205,206
815.682617188 1291.29199219 m 6,210,211
 821.56640625 1292.42480469 821.56640625 1292.42480469 827.452148438 1291.29199219 c 5,212,213
 825.583007812 1290.49121094 825.583007812 1290.49121094 821.567382812 1290.15820312 c 6,214,-1
 814.532226562 1290.98632812 l 5,215,-1
 815.682617188 1291.29199219 l 6,210,211
1181.99414062 1388 m 5,216,217
 1185.42675781 1389.375 1185.42675781 1389.375 1187.00683594 1387.79394531 c 5,218,-1
 1183.57421875 1386.41992188 l 5,219,-1
 1181.99414062 1388 l 5,216,217
1218.60839844 1388 m 5,220,221
 1222.04199219 1389.37402344 1222.04199219 1389.37402344 1223.62109375 1387.79394531 c 5,222,-1
 1220.18847656 1386.41992188 l 5,223,-1
 1218.60839844 1388 l 5,220,221
1196.25097656 1291.32324219 m 4,224,225
 1203.48242188 1292.41601562 1203.48242188 1292.41601562 1209.32714844 1291.28710938 c 4,226,227
 1212.19628906 1290.73339844 1212.19628906 1290.73339844 1208.83886719 1290.40722656 c 4,228,229
 1206.53027344 1290.18261719 1206.53027344 1290.18261719 1202.09960938 1290.19433594 c 6,230,-1
 1194.78125 1291.02441406 l 5,231,-1
 1196.25097656 1291.32324219 l 4,224,225
1189.83984375 1388 m 5,232,233
 1193.27246094 1389.375 1193.27246094 1389.375 1194.85253906 1387.79394531 c 5,234,-1
 1191.41992188 1386.41992188 l 5,235,-1
 1189.83984375 1388 l 5,232,233
1059.76953125 257.912109375 m 5,236,-1
 1061.34960938 259.4921875 l 5,237,238
 1062.72460938 256.060546875 1062.72460938 256.060546875 1061.14355469 254.479492188 c 5,239,-1
 1059.76953125 257.912109375 l 5,236,-1
766.154296875 849.240234375 m 5,240,241
 769.587890625 850.612304688 769.587890625 850.612304688 771.166992188 849.034179688 c 5,242,-1
 767.734375 847.66015625 l 5,243,-1
 766.154296875 849.240234375 l 5,240,241
1255.22363281 849.240234375 m 5,244,245
 1258.65625 850.61328125 1258.65625 850.61328125 1260.23632812 849.034179688 c 5,246,-1
 1256.80371094 847.66015625 l 5,247,-1
 1255.22363281 849.240234375 l 5,244,245
863.619140625 945.747070312 m 5,248,-1
 865.19921875 947.327148438 l 5,249,250
 866.573242188 943.895507812 866.573242188 943.895507812 864.993164062 942.314453125 c 5,251,-1
 863.619140625 945.747070312 l 5,248,-1
1159.15234375 945.747070312 m 5,252,-1
 1160.73242188 947.327148438 l 5,253,254
 1162.10644531 943.89453125 1162.10644531 943.89453125 1160.52636719 942.314453125 c 5,255,-1
 1159.15234375 945.747070312 l 5,252,-1
808 1388 m 5,256,257
 811.432617188 1389.375 811.432617188 1389.375 813.012695312 1387.79394531 c 5,258,-1
 809.580078125 1386.41992188 l 5,259,-1
 808 1388 l 5,256,257
831.538085938 1388 m 5,260,261
 834.970703125 1389.375 834.970703125 1389.375 836.55078125 1387.79394531 c 5,262,-1
 833.118164062 1386.41992188 l 5,263,-1
 831.538085938 1388 l 5,260,261
798.029296875 18.5166015625 m 4,264,265
 781.84765625 25.4189453125 781.84765625 25.4189453125 772.950195312 42.4521484375 c 4,266,267
 768.989257812 50.0341796875 768.989257812 50.0341796875 769.360351562 64.1181640625 c 132,-1,268
 769.73046875 78.201171875 769.73046875 78.201171875 774.107421875 86.4296875 c 4,269,270
 778.955078125 95.544921875 778.955078125 95.544921875 789.309570312 102.885742188 c 132,-1,271
 799.6640625 110.228515625 799.6640625 110.228515625 824.346679688 112.5859375 c 4,272,273
 864.208007812 116.391601562 864.208007812 116.391601562 890.858398438 132.010742188 c 4,274,275
 910.915039062 143.764648438 910.915039062 143.764648438 928.737304688 164.97265625 c 132,-1,276
 946.560546875 186.180664062 946.560546875 186.180664062 954.728515625 208.01171875 c 4,277,278
 958.959960938 219.3203125 958.959960938 219.3203125 962.109375 239.565429688 c 132,-1,279
 965.258789062 259.811523438 965.258789062 259.811523438 963.143554688 262.106445312 c 4,280,281
 961.489257812 263.905273438 961.489257812 263.905273438 936.642578125 269.133789062 c 4,282,283
 823.444335938 292.95703125 823.444335938 292.95703125 725.044921875 379.5703125 c 132,-1,284
 626.645507812 466.18359375 626.645507812 466.18359375 558.569335938 601.921875 c 4,285,286
 501.5703125 715.577148438 501.5703125 715.577148438 481.233398438 847.453125 c 4,287,288
 475.36328125 885.5234375 475.36328125 885.5234375 474.987304688 944.759765625 c 132,-1,289
 474.610351562 1003.99511719 474.610351562 1003.99511719 480.01171875 1039.68066406 c 4,290,291
 505.890625 1210.6484375 505.890625 1210.6484375 605.935546875 1304.06933594 c 132,-1,292
 705.979492188 1397.49023438 705.979492188 1397.49023438 850.85546875 1385.97167969 c 4,293,294
 912.58984375 1381.06445312 912.58984375 1381.06445312 984.372070312 1354.29785156 c 6,295,-1
 1012.48730469 1343.81542969 l 5,296,-1
 1040.6015625 1354.29882812 l 6,297,298
 1141.50878906 1391.92578125 1141.50878906 1391.92578125 1228.95410156 1385.82519531 c 4,299,300
 1348.49902344 1377.48730469 1348.49902344 1377.48730469 1430.87109375 1292.51074219 c 132,-1,301
 1513.24316406 1207.53417969 1513.24316406 1207.53417969 1540.40527344 1064.52636719 c 4,302,303
 1569.51855469 911.250976562 1569.51855469 911.250976562 1520.09960938 740.2421875 c 132,-1,304
 1470.68066406 569.233398438 1470.68066406 569.233398438 1360.0703125 440.497070312 c 4,305,306
 1240.31542969 301.120117188 1240.31542969 301.120117188 1088.33203125 269.133789062 c 4,307,308
 1063.48535156 263.905273438 1063.48535156 263.905273438 1061.67675781 262.106445312 c 4,309,310
 1059.45410156 259.8984375 1059.45410156 259.8984375 1062.52246094 240.176757812 c 132,-1,311
 1065.59082031 220.455078125 1065.59082031 220.455078125 1069.984375 208.7109375 c 4,312,313
 1078.46386719 186.048828125 1078.46386719 186.048828125 1096.02539062 165.044921875 c 132,-1,314
 1113.58691406 144.041992188 1113.58691406 144.041992188 1134.11621094 132.010742188 c 4,315,316
 1160.76757812 116.391601562 1160.76757812 116.391601562 1200.62792969 112.5859375 c 4,317,318
 1225.31152344 110.228515625 1225.31152344 110.228515625 1235.6640625 102.885742188 c 4,319,320
 1255.71386719 88.6669921875 1255.71386719 88.6669921875 1255.71386719 63.416015625 c 4,321,322
 1255.71386719 41.513671875 1255.71386719 41.513671875 1238.90332031 26.75390625 c 4,323,324
 1224.44140625 14.0556640625 1224.44140625 14.0556640625 1187.84375 16.6533203125 c 4,325,326
 1100.98339844 22.8193359375 1100.98339844 22.8193359375 1034.06347656 90.8017578125 c 6,327,-1
 1012.48730469 112.721679688 l 5,328,-1
 990.91015625 90.8017578125 l 6,329,330
 942.47265625 41.5947265625 942.47265625 41.5947265625 878.928710938 23.6435546875 c 4,331,332
 862.016601562 18.8662109375 862.016601562 18.8662109375 833.8046875 17.078125 c 132,-1,333
 805.592773438 15.291015625 805.592773438 15.291015625 798.029296875 18.5166015625 c 4,264,265
1064.03515625 362.538085938 m 4,334,335
 1157.28808594 379.13671875 1157.28808594 379.13671875 1242.50585938 456.883789062 c 132,-1,336
 1327.72460938 534.630859375 1327.72460938 534.630859375 1384.01855469 652.189453125 c 132,-1,337
 1440.31152344 769.748046875 1440.31152344 769.748046875 1452.22558594 898.293945312 c 4,338,339
 1461.61035156 999.529296875 1461.61035156 999.529296875 1434.85351562 1091.98828125 c 4,340,341
 1415.40234375 1159.20800781 1415.40234375 1159.20800781 1375.98828125 1207.67089844 c 132,-1,342
 1336.57519531 1256.13476562 1336.57519531 1256.13476562 1285.29003906 1275.89257812 c 4,343,344
 1247.76269531 1290.3515625 1247.76269531 1290.3515625 1200.79199219 1290.29003906 c 4,345,346
 1132.65136719 1290.20019531 1132.65136719 1290.20019531 1052.03417969 1254.41796875 c 4,347,348
 1024.88964844 1242.37011719 1024.88964844 1242.37011719 1012.48730469 1242.37011719 c 132,-1,349
 1000.08496094 1242.37011719 1000.08496094 1242.37011719 972.940429688 1254.41796875 c 4,350,351
 891.1875 1290.70507812 891.1875 1290.70507812 820.259765625 1290.23730469 c 4,352,353
 726.208007812 1289.61816406 726.208007812 1289.61816406 661.8515625 1222.39257812 c 4,354,355
 618.243164062 1176.83886719 618.243164062 1176.83886719 595.336914062 1108.09863281 c 4,356,357
 540.44921875 943.379882812 540.44921875 943.379882812 603.362304688 748.0703125 c 4,358,359
 642.33984375 627.075195312 642.33984375 627.075195312 717.814453125 527.07421875 c 4,360,361
 734.286132812 505.25 734.286132812 505.25 767.990234375 472.014648438 c 132,-1,362
 801.6953125 438.778320312 801.6953125 438.778320312 822.322265625 424.01953125 c 4,363,364
 939.287109375 340.333007812 939.287109375 340.333007812 1064.03515625 362.538085938 c 4,334,335
892.62109375 559.998046875 m 4,365,366
 868.473632812 572.26953125 868.473632812 572.26953125 866.6953125 600.07421875 c 132,-1,367
 864.916992188 627.87890625 864.916992188 627.87890625 887.33203125 642.711914062 c 4,368,369
 910.427734375 657.99609375 910.427734375 657.99609375 934.986328125 646.264648438 c 132,-1,370
 959.543945312 634.532226562 959.543945312 634.532226562 962.194335938 606.94921875 c 132,-1,371
 964.864257812 579.168945312 964.864257812 579.168945312 941.24609375 563.23046875 c 132,-1,372
 917.627929688 547.291992188 917.627929688 547.291992188 892.62109375 559.998046875 c 4,365,366
1088.77246094 559.998046875 m 4,373,374
 1064.62402344 572.26953125 1064.62402344 572.26953125 1062.84570312 600.07421875 c 132,-1,375
 1061.06738281 627.87890625 1061.06738281 627.87890625 1083.48242188 642.711914062 c 4,376,377
 1106.578125 657.99609375 1106.578125 657.99609375 1131.13671875 646.264648438 c 132,-1,378
 1155.69433594 634.532226562 1155.69433594 634.532226562 1158.34472656 606.94921875 c 132,-1,379
 1161.01464844 579.168945312 1161.01464844 579.168945312 1137.39648438 563.23046875 c 132,-1,380
 1113.77832031 547.291992188 1113.77832031 547.291992188 1088.77246094 559.998046875 c 4,373,374
737.46875 853.592773438 m 4,381,382
 695.958984375 868.947265625 695.958984375 868.947265625 678.137695312 907.291992188 c 4,383,384
 671.306640625 921.993164062 671.306640625 921.993164062 671.24609375 945.528320312 c 132,-1,385
 671.185546875 969.068359375 671.185546875 969.068359375 679.426757812 986.461914062 c 4,386,387
 694.7265625 1018.75585938 694.7265625 1018.75585938 727.01953125 1034.0546875 c 4,388,389
 744.416015625 1042.296875 744.416015625 1042.296875 767.953125 1042.23535156 c 132,-1,390
 791.490234375 1042.17578125 791.490234375 1042.17578125 806.333007812 1035.27734375 c 4,391,392
 836.68359375 1021.17578125 836.68359375 1021.17578125 853.237304688 990.6484375 c 4,393,394
 859.596679688 978.923828125 859.596679688 978.923828125 860.850585938 972.7265625 c 132,-1,395
 862.104492188 966.529296875 862.104492188 966.529296875 862.104492188 946.8359375 c 4,396,397
 862.104492188 919.375 862.104492188 919.375 854.734375 904.365234375 c 4,398,399
 839.7109375 873.771484375 839.7109375 873.771484375 809.116210938 858.747070312 c 4,400,401
 794.10546875 851.376953125 794.10546875 851.376953125 770.568359375 850.715820312 c 132,-1,402
 747.029296875 850.055664062 747.029296875 850.055664062 737.46875 853.592773438 c 4,381,382
1223.94238281 854.919921875 m 4,403,404
 1202.91699219 863.399414062 1202.91699219 863.399414062 1186.42480469 881.109375 c 132,-1,405
 1169.93261719 898.818359375 1169.93261719 898.818359375 1164.2890625 918.9765625 c 4,406,407
 1160.5390625 932.369140625 1160.5390625 932.369140625 1162.12011719 953.715820312 c 132,-1,408
 1163.70117188 975.063476562 1163.70117188 975.063476562 1169.31152344 986.798828125 c 4,409,410
 1184.29296875 1018.13378906 1184.29296875 1018.13378906 1215.94433594 1033.71679688 c 4,411,412
 1233.37011719 1042.29589844 1233.37011719 1042.29589844 1256.96582031 1042.29589844 c 132,-1,413
 1280.56054688 1042.29589844 1280.56054688 1042.29589844 1297.95507812 1034.0546875 c 4,414,415
 1330.24902344 1018.75488281 1330.24902344 1018.75488281 1345.54785156 986.461914062 c 4,416,417
 1353.7890625 969.068359375 1353.7890625 969.068359375 1353.72851562 945.528320312 c 132,-1,418
 1353.67089844 922 1353.67089844 922 1346.77050781 907.1484375 c 4,419,420
 1332.61132812 876.677734375 1332.61132812 876.677734375 1302.14160156 860.34765625 c 4,421,422
 1285.79101562 851.583984375 1285.79101562 851.583984375 1260.94433594 850.80078125 c 132,-1,423
 1236.09765625 850.018554688 1236.09765625 850.018554688 1223.94238281 854.919921875 c 4,403,404
EndSplineSet
EndChar

StartChar: uni2630
Encoding: 9776 9776 268
Width: 2048
Flags: W
LayerCount: 2
Fore
SplineSet
390.875976562 4.69140625 m 4,0,1
 367.465820312 9.5283203125 367.465820312 9.5283203125 354.456054688 29.3974609375 c 132,-1,2
 341.4453125 49.2666015625 341.4453125 49.2666015625 346.916992188 71.8232421875 c 4,3,4
 349.403320312 82.0703125 349.403320312 82.0703125 363.10546875 99.7568359375 c 132,-1,5
 376.807617188 117.444335938 376.807617188 117.444335938 453.665039062 209.61328125 c 6,6,-1
 516.92578125 285.475585938 l 5,7,-1
 450.856445312 286.6796875 l 5,8,-1
 384.788085938 287.883789062 l 5,9,-1
 373.166015625 294.639648438 l 6,10,11
 344.661132812 311.209960938 344.661132812 311.209960938 345.647460938 343.646484375 c 132,-1,12
 346.634765625 376.083984375 346.634765625 376.083984375 376.092773438 390.83984375 c 6,13,-1
 389.314453125 397.462890625 l 5,14,-1
 517.337890625 397.448242188 l 6,15,16
 645.349609375 397.4375 645.349609375 397.4375 654.811523438 394.83984375 c 4,17,18
 664.98828125 392.045898438 664.98828125 392.045898438 676.08203125 380.604492188 c 132,-1,19
 687.174804688 369.163085938 687.174804688 369.163085938 690.254882812 358.284179688 c 4,20,21
 696.428710938 336.477539062 696.428710938 336.477539062 686.6171875 317.713867188 c 4,22,23
 682.741210938 310.301757812 682.741210938 310.301757812 602.28515625 213.594726562 c 6,24,-1
 521.830078125 116.893554688 l 5,25,-1
 586.030273438 115.663085938 l 5,26,-1
 650.231445312 114.432617188 l 5,27,-1
 662.915039062 107.5078125 l 6,28,29
 693.534179688 90.7900390625 693.534179688 90.7900390625 692.564453125 58.302734375 c 132,-1,30
 691.594726562 25.814453125 691.594726562 25.814453125 659.97265625 8.9091796875 c 4,31,32
 652.775390625 5.0615234375 652.775390625 5.0615234375 635.12890625 4.3310546875 c 132,-1,33
 617.482421875 3.6015625 617.482421875 3.6015625 524.815429688 3.31640625 c 4,34,35
 399.400390625 2.9326171875 399.400390625 2.9326171875 390.875976562 4.69140625 c 4,0,1
853.282226562 276.55078125 m 6,36,37
 826.8125 290.225585938 826.8125 290.225585938 824.784179688 321.735351562 c 4,38,39
 823.80078125 337.013671875 823.80078125 337.013671875 829.014648438 347.370117188 c 132,-1,40
 834.228515625 357.727539062 834.228515625 357.727539062 914.5703125 454.057617188 c 6,41,-1
 994.911132812 550.390625 l 5,42,-1
 930.940429688 551.600585938 l 6,43,44
 879.232421875 552.578125 879.232421875 552.578125 866.736328125 554.73828125 c 132,-1,45
 854.240234375 556.8984375 854.240234375 556.8984375 842.198242188 566.940429688 c 4,46,47
 819.0625 586.234375 819.0625 586.234375 825.639648438 619.049804688 c 132,-1,48
 832.215820312 651.865234375 832.215820312 651.865234375 860.881835938 660.166015625 c 4,49,50
 869.405273438 662.633789062 869.405273438 662.633789062 1002.30664062 661.904296875 c 6,51,-1
 1135.20800781 661.173828125 l 5,52,-1
 1145.35742188 654.530273438 l 6,53,54
 1168.15722656 639.60546875 1168.15722656 639.60546875 1169.75878906 611.573242188 c 4,55,56
 1170.69628906 595.15625 1170.69628906 595.15625 1165.47460938 584.815429688 c 132,-1,57
 1160.25195312 574.47265625 1160.25195312 574.47265625 1079.93261719 478.141601562 c 6,58,-1
 999.61328125 381.80859375 l 5,59,-1
 1064.79589844 380.604492188 l 6,60,61
 1110.65625 379.756835938 1110.65625 379.756835938 1121.79492188 378.796875 c 132,-1,62
 1132.93359375 377.8359375 1132.93359375 377.8359375 1139.94921875 374.123046875 c 4,63,64
 1161.17773438 362.889648438 1161.17773438 362.889648438 1167.734375 343.243164062 c 4,65,66
 1170.69628906 334.369140625 1170.69628906 334.369140625 1169.70703125 319.002929688 c 4,67,68
 1167.859375 290.307617188 1167.859375 290.307617188 1141.22558594 276.548828125 c 6,69,-1
 1128.20410156 269.821289062 l 5,70,-1
 997.255859375 269.821289062 l 5,71,-1
 866.307617188 269.821289062 l 5,72,-1
 853.282226562 276.55078125 l 6,36,37
1334.5390625 540.419921875 m 6,73,74
 1315.484375 549.374023438 1315.484375 549.374023438 1306.73828125 568.453125 c 4,75,76
 1297.33496094 588.965820312 1297.33496094 588.965820312 1305.73925781 609.739257812 c 4,77,78
 1309.81640625 619.815429688 1309.81640625 619.815429688 1392.18945312 718.764648438 c 6,79,-1
 1474.5625 817.71484375 l 5,80,-1
 1406.98632812 818.918945312 l 6,81,82
 1350.22558594 819.930664062 1350.22558594 819.930664062 1338.72070312 822.360351562 c 132,-1,83
 1327.21582031 824.790039062 1327.21582031 824.790039062 1315.58984375 838.223632812 c 4,84,85
 1295.13476562 861.856445312 1295.13476562 861.856445312 1304.86132812 890.811523438 c 132,-1,86
 1314.58789062 919.766601562 1314.58789062 919.766601562 1345.49804688 927.26171875 c 4,87,88
 1356.45703125 929.918945312 1356.45703125 929.918945312 1481.87207031 929.208984375 c 132,-1,89
 1607.28808594 928.498046875 1607.28808594 928.498046875 1616.17578125 924.124023438 c 4,90,91
 1638.30566406 913.232421875 1638.30566406 913.232421875 1646.015625 891.129882812 c 132,-1,92
 1653.72558594 869.028320312 1653.72558594 869.028320312 1642.66015625 848.200195312 c 4,93,94
 1637.98144531 839.392578125 1637.98144531 839.392578125 1557.66308594 743.056640625 c 6,95,-1
 1477.34570312 646.723632812 l 5,96,-1
 1543.53515625 645.51953125 l 5,97,-1
 1609.72363281 644.315429688 l 5,98,-1
 1621.34570312 637.559570312 l 6,99,100
 1648.80566406 621.596679688 1648.80566406 621.596679688 1648.80566406 590.12890625 c 132,-1,101
 1648.80566406 558.66015625 1648.80566406 558.66015625 1621.34570312 542.697265625 c 6,102,-1
 1609.72363281 535.94140625 l 5,103,-1
 1478.21972656 535.319335938 l 5,104,-1
 1346.71582031 534.698242188 l 5,105,-1
 1334.5390625 540.419921875 l 6,73,74
EndSplineSet
EndChar

StartChar: uni2631
Encoding: 9777 9777 269
Width: 2048
Flags: W
LayerCount: 2
Fore
SplineSet
1106.97851562 667.134765625 m 6,0,-1
 1112.36914062 662.13671875 l 5,1,-1
 1126.45605469 661.549804688 l 6,2,3
 1173.64550781 659.579101562 1173.64550781 659.579101562 1201.9453125 631.280273438 c 132,-1,4
 1230.24414062 602.98046875 1230.24414062 602.98046875 1230.24414062 557.791015625 c 4,5,6
 1230.24414062 541.645507812 1230.24414062 541.645507812 1227.66992188 535.4296875 c 132,-1,7
 1225.09472656 529.213867188 1225.09472656 529.213867188 1222.67578125 526.795898438 c 132,-1,8
 1220.25683594 524.376953125 1220.25683594 524.376953125 1217.15234375 522.268554688 c 4,9,10
 1212.51757812 519.12109375 1212.51757812 519.12109375 1203.93164062 519.12109375 c 4,11,12
 1196.3828125 519.12109375 1196.3828125 519.12109375 1182.3046875 522.579101562 c 6,13,-1
 1162.96679688 527.330078125 l 6,14,15
 1157.56835938 528.657226562 1157.56835938 528.657226562 1152.70507812 533.520507812 c 132,-1,16
 1147.84082031 538.384765625 1147.84082031 538.384765625 1147.76757812 546.56640625 c 6,17,-1
 1147.65234375 559.515625 l 6,18,19
 1147.55761719 569.956054688 1147.55761719 569.956054688 1135 582.506835938 c 4,20,21
 1130.50292969 587.004882812 1130.50292969 587.004882812 1127.61425781 587.306640625 c 132,-1,22
 1124.7265625 587.607421875 1124.7265625 587.607421875 1120.59082031 587.607421875 c 132,-1,23
 1116.45507812 587.607421875 1116.45507812 587.607421875 1108.671875 585.876953125 c 132,-1,24
 1100.88964844 584.146484375 1100.88964844 584.146484375 1093.13769531 584.146484375 c 4,25,26
 1076.81152344 584.146484375 1076.81152344 584.146484375 1064.46484375 596.493164062 c 4,27,28
 1060.22363281 600.735351562 1060.22363281 600.735351562 1056.81542969 605.497070312 c 132,-1,29
 1053.40722656 610.258789062 1053.40722656 610.258789062 1050.67773438 612.989257812 c 4,30,31
 1041.55078125 622.115234375 1041.55078125 622.115234375 1028.98242188 622.115234375 c 4,32,33
 1016.13671875 622.115234375 1016.13671875 622.115234375 1008.49902344 614.478515625 c 4,34,35
 1004.26660156 610.24609375 1004.26660156 610.24609375 1000.33691406 601.71484375 c 4,36,37
 993.91796875 587.784179688 993.91796875 587.784179688 982.552734375 580.880859375 c 4,38,39
 974.666992188 576.092773438 974.666992188 576.092773438 965.43359375 576.092773438 c 132,-1,40
 956.19921875 576.092773438 956.19921875 576.092773438 947.044921875 578.353515625 c 132,-1,41
 937.890625 580.614257812 937.890625 580.614257812 930.627929688 580.614257812 c 4,42,43
 916.494140625 580.614257812 916.494140625 580.614257812 908.956054688 573.076171875 c 132,-1,44
 901.41796875 565.538085938 901.41796875 565.538085938 901.41796875 555.938476562 c 6,45,-1
 901.41796875 544.387695312 l 6,46,47
 901.41796875 536.098632812 901.41796875 536.098632812 896.46875 531.150390625 c 132,-1,48
 891.520507812 526.202148438 891.520507812 526.202148438 885.973632812 524.912109375 c 4,49,50
 850.333007812 516.62890625 850.333007812 516.62890625 846.692382812 515.984375 c 132,-1,51
 843.052734375 515.33984375 843.052734375 515.33984375 840.987304688 515.33984375 c 4,52,53
 832.602539062 515.33984375 832.602539062 515.33984375 826.661132812 521.280273438 c 4,54,55
 820.0703125 527.872070312 820.0703125 527.872070312 820.0703125 543.149414062 c 4,56,57
 820.0703125 548.607421875 820.0703125 548.607421875 820.451171875 557.032226562 c 4,58,59
 822.309570312 598.19921875 822.309570312 598.19921875 849.07421875 625.119140625 c 4,60,61
 881.8203125 657.865234375 881.8203125 657.865234375 931.666015625 657.880859375 c 6,62,-1
 942.577148438 657.880859375 l 5,63,-1
 949.0703125 664.387695312 l 6,64,65
 981.6171875 696.93359375 981.6171875 696.93359375 1028.2265625 696.93359375 c 132,-1,66
 1074.8359375 696.93359375 1074.8359375 696.93359375 1106.97851562 667.134765625 c 6,0,-1
549.26171875 179.530273438 m 4,67,68
 542.883789062 192.665039062 542.883789062 192.665039062 542.883789062 217.67578125 c 132,-1,69
 542.883789062 242.686523438 542.883789062 242.686523438 550.833007812 258.40625 c 4,70,71
 561.252929688 279.015625 561.252929688 279.015625 579.983398438 294.545898438 c 132,-1,72
 598.598632812 309.9765625 598.598632812 309.9765625 619.358398438 315.727539062 c 4,73,74
 619.50390625 316.091796875 619.50390625 316.091796875 619.658203125 316.494140625 c 4,75,76
 627.775390625 337.682617188 627.775390625 337.682617188 644.063476562 353.970703125 c 132,-1,77
 660.350585938 370.258789062 660.350585938 370.258789062 685.868164062 379.69921875 c 4,78,79
 705.196289062 386.849609375 705.196289062 386.849609375 725.502929688 386.849609375 c 132,-1,80
 745.809570312 386.849609375 745.809570312 386.849609375 767.092773438 378.170898438 c 6,81,-1
 779.279296875 373.84765625 l 6,82,83
 783.069335938 374.900390625 783.069335938 374.900390625 791.08984375 378.15625 c 4,84,85
 809.831054688 385.756835938 809.831054688 385.756835938 835.889648438 385.756835938 c 132,-1,86
 861.88671875 385.756835938 861.88671875 385.756835938 880.618164062 377.20703125 c 4,87,88
 906.466796875 365.409179688 906.466796875 365.409179688 923.189453125 343.291992188 c 132,-1,89
 939.912109375 321.174804688 939.912109375 321.174804688 942.19140625 294.8359375 c 4,90,91
 943.456054688 280.201171875 943.456054688 280.201171875 943.456054688 279.22265625 c 4,92,93
 943.456054688 271.202148438 943.456054688 271.202148438 937.673828125 265.341796875 c 132,-1,94
 931.891601562 259.48046875 931.891601562 259.48046875 923.665039062 259.48046875 c 4,95,96
 923.556640625 259.48046875 923.556640625 259.48046875 923.447265625 259.481445312 c 6,97,-1
 882.026367188 259.481445312 l 6,98,99
 873.73828125 259.481445312 873.73828125 259.481445312 868.461914062 264.7578125 c 132,-1,100
 863.186523438 270.033203125 863.186523438 270.033203125 862.237304688 276.596679688 c 6,101,-1
 860.953125 285.475585938 l 6,102,103
 860.084960938 291.4765625 860.084960938 291.4765625 856.453125 295.108398438 c 4,104,105
 847.166015625 304.395507812 847.166015625 304.395507812 833.303710938 304.395507812 c 4,106,107
 818.59765625 304.395507812 818.59765625 304.395507812 812.200195312 297.918945312 c 4,108,109
 797.708984375 283.064453125 797.708984375 283.064453125 780.311523438 283.064453125 c 4,110,111
 775.369140625 283.064453125 775.369140625 283.064453125 770.1953125 284.267578125 c 4,112,113
 760.380859375 286.553710938 760.380859375 286.553710938 747.627929688 296.471679688 c 132,-1,114
 734.875 306.389648438 734.875 306.389648438 723.685546875 306.389648438 c 4,115,116
 718.110351562 306.389648438 718.110351562 306.389648438 711.840820312 303.317382812 c 4,117,118
 704.008789062 299.48046875 704.008789062 299.48046875 700.747070312 295.077148438 c 132,-1,119
 697.486328125 290.673828125 697.486328125 290.673828125 692.875 270.272460938 c 4,120,121
 690.7890625 261.048828125 690.7890625 261.048828125 683.924804688 254.184570312 c 4,122,123
 672.829101562 243.087890625 672.829101562 243.087890625 649.840820312 240.1953125 c 4,124,125
 638.243164062 238.736328125 638.243164062 238.736328125 632.305664062 232.798828125 c 4,126,127
 624.711914062 225.205078125 624.711914062 225.205078125 624.711914062 216.884765625 c 4,128,129
 624.711914062 211.6875 624.711914062 211.6875 626.81640625 205.604492188 c 132,-1,130
 628.921875 199.520507812 628.921875 199.520507812 628.921875 196.766601562 c 4,131,132
 628.921875 182.689453125 628.921875 182.689453125 618.047851562 175.454101562 c 4,133,134
 611.776367188 171.28125 611.776367188 171.28125 583.163085938 161.623046875 c 4,135,136
 576.188476562 159.26953125 576.188476562 159.26953125 571.670898438 159.270507812 c 4,137,138
 560.416992188 159.271484375 560.416992188 159.271484375 553.202148438 171.91015625 c 4,139,140
 551.594726562 174.7265625 551.594726562 174.7265625 549.26171875 179.530273438 c 4,67,68
1444.19433594 195.72265625 m 4,141,142
 1444.19433594 199.637695312 1444.19433594 199.637695312 1445.31835938 204.28125 c 132,-1,143
 1446.44335938 208.92578125 1446.44335938 208.92578125 1446.44335938 214.298828125 c 4,144,145
 1446.44335938 234.704101562 1446.44335938 234.704101562 1413.57226562 239.491210938 c 4,146,147
 1398.43164062 241.697265625 1398.43164062 241.697265625 1388.3671875 251.76171875 c 132,-1,148
 1378.30273438 261.826171875 1378.30273438 261.826171875 1376.19335938 276.569335938 c 132,-1,149
 1374.08398438 291.313476562 1374.08398438 291.313476562 1367.61230469 297.78515625 c 132,-1,150
 1361.14160156 304.256835938 1361.14160156 304.256835938 1346.28125 304.256835938 c 132,-1,151
 1331.421875 304.256835938 1331.421875 304.256835938 1325.23632812 298.071289062 c 4,152,153
 1310.57226562 283.106445312 1310.57226562 283.106445312 1293.1171875 283.106445312 c 4,154,155
 1288.07519531 283.106445312 1288.07519531 283.106445312 1282.78320312 284.336914062 c 4,156,157
 1272.30761719 286.779296875 1272.30761719 286.779296875 1260.55859375 296.619140625 c 132,-1,158
 1248.80859375 306.458007812 1248.80859375 306.458007812 1237.41503906 306.458007812 c 4,159,160
 1225.44335938 306.458007812 1225.44335938 306.458007812 1215.29003906 296.302734375 c 4,161,162
 1209.60839844 290.62109375 1209.60839844 290.62109375 1209.60839844 286.80078125 c 4,163,164
 1209.60839844 276 1209.60839844 276 1202.59667969 268.989257812 c 4,165,166
 1198.07617188 264.46875 1198.07617188 264.46875 1193.35839844 263.28515625 c 4,167,168
 1186.69628906 261.615234375 1186.69628906 261.615234375 1168.91308594 261.615234375 c 6,169,-1
 1148.21289062 261.615234375 l 6,170,171
 1139.92480469 261.615234375 1139.92480469 261.615234375 1134.27050781 267.309570312 c 132,-1,172
 1128.61621094 273.00390625 1128.61621094 273.00390625 1128.21679688 281.611328125 c 6,173,-1
 1128.21679688 287.619140625 l 6,174,175
 1128.21679688 307.864257812 1128.21679688 307.864257812 1142.46289062 330.94140625 c 4,176,177
 1155.96191406 352.805664062 1155.96191406 352.805664062 1176.52539062 366.9296875 c 4,178,179
 1205.35546875 386.73046875 1205.35546875 386.73046875 1238.76953125 386.73046875 c 4,180,181
 1260.11523438 386.73046875 1260.11523438 386.73046875 1282.109375 378.045898438 c 6,182,-1
 1294.41210938 373.833984375 l 6,183,184
 1298.20019531 374.87890625 1298.20019531 374.87890625 1306.27539062 378.155273438 c 4,185,186
 1324.68359375 385.622070312 1324.68359375 385.622070312 1350.15917969 385.622070312 c 4,187,188
 1394.79199219 385.622070312 1394.79199219 385.622070312 1424.54589844 360.413085938 c 4,189,190
 1448.52832031 340.09375 1448.52832031 340.09375 1456.734375 315.326171875 c 4,191,192
 1457.21875 315.157226562 1457.21875 315.157226562 1457.76660156 314.977539062 c 4,193,194
 1505.55664062 299.240234375 1505.55664062 299.240234375 1523.36035156 255.354492188 c 4,195,196
 1528.96386719 241.541015625 1528.96386719 241.541015625 1528.96386719 219.015625 c 4,197,198
 1528.96386719 185.233398438 1528.96386719 185.233398438 1520.77734375 171.069335938 c 6,199,-1
 1516.27539062 163.28125 l 6,200,201
 1514.96484375 161.012695312 1514.96484375 161.012695312 1513.09570312 159.14453125 c 4,202,203
 1506.79589844 152.844726562 1506.79589844 152.844726562 1500.765625 152.844726562 c 132,-1,204
 1494.73535156 152.844726562 1494.73535156 152.844726562 1489.48535156 155.665039062 c 4,205,206
 1463.70800781 169.516601562 1463.70800781 169.516601562 1458.9375 172.458984375 c 132,-1,207
 1454.16796875 175.400390625 1454.16796875 175.400390625 1451.54003906 178.02734375 c 4,208,209
 1444.19433594 185.373046875 1444.19433594 185.373046875 1444.19433594 195.72265625 c 4,141,142
1378.01855469 471.8046875 m 4,210,211
 1381.84472656 472.959960938 1381.84472656 472.959960938 1386.74707031 474.48046875 c 5,212,213
 1381.8671875 473.376953125 1381.8671875 473.376953125 1377.77539062 472.310546875 c 5,214,215
 1377.8984375 472.055664062 1377.8984375 472.055664062 1378.01855469 471.8046875 c 4,210,211
1655.12402344 314.342773438 m 4,216,217
 1640.84960938 357.815429688 1640.84960938 357.815429688 1609.32714844 388.534179688 c 4,218,219
 1568.00097656 428.8046875 1568.00097656 428.8046875 1512.3203125 441.485351562 c 4,220,221
 1489.11621094 446.772460938 1489.11621094 446.772460938 1465.58203125 446.772460938 c 4,222,223
 1432.44042969 446.772460938 1432.44042969 446.772460938 1398.64453125 436.288085938 c 4,224,225
 1376.22558594 429.333984375 1376.22558594 429.333984375 1372.78417969 428.896484375 c 132,-1,226
 1369.34277344 428.458007812 1369.34277344 428.458007812 1368.28222656 428.458007812 c 4,227,228
 1356.16015625 428.458007812 1356.16015625 428.458007812 1349.66601562 439.360351562 c 4,229,230
 1347.19824219 443.501953125 1347.19824219 443.501953125 1341.5859375 455.248046875 c 4,231,232
 1332.34179688 474.591796875 1332.34179688 474.591796875 1331.70996094 477.7421875 c 132,-1,233
 1331.07910156 480.892578125 1331.07910156 480.892578125 1331.07910156 482.163085938 c 4,234,235
 1331.07910156 493.658203125 1331.07910156 493.658203125 1339.93066406 499.627929688 c 4,236,237
 1352.984375 508.418945312 1352.984375 508.418945312 1389.97460938 516.579101562 c 4,238,239
 1392.80761719 517.205078125 1392.80761719 517.205078125 1395.37109375 517.901367188 c 4,240,241
 1396.98242188 522.35546875 1396.98242188 522.35546875 1398.3671875 527.118164062 c 4,242,243
 1402.796875 542.357421875 1402.796875 542.357421875 1402.796875 567.731445312 c 132,-1,244
 1402.796875 593.106445312 1402.796875 593.106445312 1399.44726562 606.75390625 c 4,245,246
 1387.47070312 655.56640625 1387.47070312 655.56640625 1350.61035156 692.42578125 c 4,247,248
 1326.68359375 716.353515625 1326.68359375 716.353515625 1295.08398438 730.900390625 c 4,249,250
 1253.86914062 749.877929688 1253.86914062 749.877929688 1205.4921875 749.877929688 c 4,251,252
 1168.62207031 749.877929688 1168.62207031 749.877929688 1139.48144531 740.380859375 c 4,253,254
 1126.33886719 736.096679688 1126.33886719 736.096679688 1120.05664062 736.096679688 c 4,255,256
 1110.91699219 736.096679688 1110.91699219 736.096679688 1104.78125 742.233398438 c 4,257,258
 1101.83496094 745.178710938 1101.83496094 745.178710938 1099.76269531 749.857421875 c 132,-1,259
 1097.69433594 754.52734375 1097.69433594 754.52734375 1084.68164062 781.404296875 c 4,260,261
 1082.31738281 786.288085938 1082.31738281 786.288085938 1082.31738281 792.166992188 c 132,-1,262
 1082.31738281 798.045898438 1082.31738281 798.045898438 1088.54101562 804.26953125 c 4,263,264
 1091.44628906 807.174804688 1091.44628906 807.174804688 1095.23144531 808.690429688 c 6,265,-1
 1101.95800781 811.384765625 l 6,266,267
 1127.39746094 821.575195312 1127.39746094 821.575195312 1160.69335938 825.744140625 c 5,268,269
 1141.22558594 849.203125 1141.22558594 849.203125 1114.86132812 865.7734375 c 4,270,271
 1081.56738281 886.6953125 1081.56738281 886.6953125 1045.25585938 895.774414062 c 4,272,273
 1024.08300781 901.068359375 1024.08300781 901.068359375 988.254882812 901.068359375 c 4,274,275
 967.629882812 901.068359375 967.629882812 901.068359375 954.078125 898.524414062 c 4,276,277
 885.145507812 885.573242188 885.145507812 885.573242188 837.529296875 837.95703125 c 4,278,279
 801.561523438 801.989257812 801.561523438 801.989257812 788.377929688 752.33984375 c 5,280,281
 788.813476562 752.341796875 788.813476562 752.341796875 794.404296875 752.341796875 c 132,-1,282
 799.995117188 752.341796875 799.995117188 752.341796875 817.169921875 751.415039062 c 4,283,284
 842.149414062 750.068359375 842.149414062 750.068359375 846.73046875 749.051757812 c 132,-1,285
 851.311523438 748.036132812 851.311523438 748.036132812 854.170898438 746.9375 c 4,286,287
 857.418945312 745.689453125 857.418945312 745.689453125 860.951171875 742.158203125 c 4,288,289
 866.66796875 736.44140625 866.66796875 736.44140625 866.66796875 726.811523438 c 4,290,291
 866.66796875 721.09375 866.66796875 721.09375 861.26953125 687.45703125 c 4,292,293
 860.247070312 681.080078125 860.247070312 681.080078125 855.008789062 675.841796875 c 132,-1,294
 849.770507812 670.604492188 849.770507812 670.604492188 841.958007812 670.604492188 c 4,295,296
 840.161132812 670.604492188 840.161132812 670.604492188 826.552734375 672.840820312 c 132,-1,297
 812.943359375 675.077148438 812.943359375 675.077148438 795.182617188 675.077148438 c 4,298,299
 749.521484375 675.077148438 749.521484375 675.077148438 707.04296875 655.259765625 c 4,300,301
 662.372070312 634.418945312 662.372070312 634.418945312 633.528320312 596.2421875 c 4,302,303
 609.235351562 564.087890625 609.235351562 564.087890625 601.360351562 526.711914062 c 5,304,305
 610.190429688 526.666015625 610.190429688 526.666015625 627.711914062 525.674804688 c 4,306,307
 653.202148438 524.232421875 653.202148438 524.232421875 657.79296875 523.237304688 c 132,-1,308
 662.384765625 522.243164062 662.384765625 522.243164062 665.279296875 521.158203125 c 4,309,310
 668.565429688 519.926757812 668.565429688 519.926757812 671.592773438 516.899414062 c 4,311,312
 677.688476562 510.8046875 677.688476562 510.8046875 677.688476562 502.090820312 c 4,313,314
 677.688476562 497.7109375 677.688476562 497.7109375 675.185546875 484.094726562 c 4,315,316
 671.174804688 462.276367188 671.174804688 462.276367188 669.458984375 458.373046875 c 4,317,318
 663.91015625 445.74609375 663.91015625 445.74609375 649.770507812 445.74609375 c 4,319,320
 644.997070312 445.74609375 644.997070312 445.74609375 630.610351562 447.461914062 c 132,-1,321
 616.224609375 449.176757812 616.224609375 449.176757812 603.361328125 449.176757812 c 4,322,323
 547.840820312 449.176757812 547.840820312 449.176757812 499.256835938 419.774414062 c 4,324,325
 437.571289062 382.4453125 437.571289062 382.4453125 415.904296875 316.459960938 c 4,326,327
 410.560546875 300.185546875 410.560546875 300.185546875 410.560546875 268.04296875 c 132,-1,328
 410.560546875 235.901367188 410.560546875 235.901367188 413.885742188 224.532226562 c 4,329,330
 430.322265625 168.334960938 430.322265625 168.334960938 477.022460938 130.625 c 132,-1,331
 523.721679688 92.9150390625 523.721679688 92.9150390625 585.731445312 86.2509765625 c 4,332,333
 597.990234375 84.9326171875 597.990234375 84.9326171875 781.516601562 84.9326171875 c 132,-1,334
 965.04296875 84.9326171875 965.04296875 84.9326171875 1047 85 c 4,335,336
 1451.86425781 85.330078125 1451.86425781 85.330078125 1507.20605469 88.7236328125 c 5,337,338
 1554.72167969 99.31640625 1554.72167969 99.31640625 1592.23046875 127.848632812 c 4,339,340
 1629.17089844 155.951171875 1629.17089844 155.951171875 1646.46386719 193.958007812 c 4,341,342
 1655.70507812 214.271484375 1655.70507812 214.271484375 1658.08984375 226.5 c 132,-1,343
 1660.47363281 238.727539062 1660.47363281 238.727539062 1660.47363281 268.388671875 c 132,-1,344
 1660.47363281 298.049804688 1660.47363281 298.049804688 1655.12402344 314.342773438 c 4,216,217
325.491210938 270.01171875 m 4,345,346
 325.491210938 345.26953125 325.491210938 345.26953125 373.333984375 412.583984375 c 4,347,348
 383.821289062 427.337890625 383.821289062 427.337890625 403.86328125 446.750976562 c 132,-1,349
 423.786132812 466.048828125 423.786132812 466.048828125 439.819335938 477.065429688 c 4,350,351
 473.548828125 500.23828125 473.548828125 500.23828125 512.071289062 512.754882812 c 6,352,-1
 516.879882812 514.317382812 l 5,353,-1
 517.287109375 519.4921875 l 6,354,355
 522.815429688 589.8046875 522.815429688 589.8046875 571.874023438 649.885742188 c 4,356,357
 620.431640625 709.348632812 620.431640625 709.348632812 693.54296875 736.676757812 c 6,358,-1
 702.001953125 739.838867188 l 5,359,-1
 705.814453125 757.5078125 l 6,360,361
 715.012695312 800.119140625 715.012695312 800.119140625 732.638671875 833.095703125 c 4,362,363
 763.969726562 891.7109375 763.969726562 891.7109375 824.713867188 931.287109375 c 4,364,365
 902.799804688 982.159179688 902.799804688 982.159179688 996.212890625 982.159179688 c 4,366,367
 1031.84375 982.159179688 1031.84375 982.159179688 1066.15234375 973.985351562 c 4,368,369
 1149.19433594 954.201171875 1149.19433594 954.201171875 1210.39648438 893.004882812 c 4,370,371
 1237.61816406 865.784179688 1237.61816406 865.784179688 1255.62011719 834.26953125 c 6,372,-1
 1259.79980469 826.953125 l 5,373,-1
 1276.34960938 822.9609375 l 6,374,375
 1355.32128906 803.909179688 1355.32128906 803.909179688 1411.66796875 747.568359375 c 4,376,377
 1458.25292969 700.983398438 1458.25292969 700.983398438 1476.88183594 638.963867188 c 4,378,379
 1485.50097656 610.276367188 1485.50097656 610.276367188 1485.50097656 562.58203125 c 4,380,381
 1485.50097656 542.288085938 1485.50097656 542.288085938 1483.07128906 527.720703125 c 5,382,383
 1484.97753906 527.573242188 1484.97753906 527.573242188 1487.07128906 527.416992188 c 4,384,385
 1555.484375 522.284179688 1555.484375 522.284179688 1612.609375 489.388671875 c 4,386,387
 1670.02441406 456.327148438 1670.02441406 456.327148438 1702.04785156 406.57421875 c 132,-1,388
 1734.0703125 356.8203125 1734.0703125 356.8203125 1743.37695312 295.984375 c 4,389,390
 1745.83496094 279.918945312 1745.83496094 279.918945312 1745.83496094 263.874023438 c 4,391,392
 1745.83496094 217.662109375 1745.83496094 217.662109375 1725.44335938 171.622070312 c 4,393,394
 1700.72949219 112.361328125 1700.72949219 112.361328125 1649.47363281 71.40234375 c 132,-1,395
 1598.21777344 30.4423828125 1598.21777344 30.4423828125 1530.5625 13.0966796875 c 6,396,-1
 1508.54296875 7.451171875 l 6,397,398
 1506.09863281 6.82421875 1506.09863281 6.82421875 1503.56738281 6.822265625 c 4,399,400
 989.094726562 6.423828125 989.094726562 6.423828125 874.640625 6.423828125 c 4,401,402
 575.411132812 6.423828125 575.411132812 6.423828125 558.913085938 9.212890625 c 4,403,404
 500.5390625 19.0849609375 500.5390625 19.0849609375 453.390625 48.16796875 c 4,405,406
 355.130859375 108.776367188 355.130859375 108.776367188 331.723632812 214.650390625 c 4,407,408
 325.491210938 242.848632812 325.491210938 242.848632812 325.491210938 270.01171875 c 4,345,346
EndSplineSet
EndChar
